<svg xmlns="http://www.w3.org/2000/svg" width="179" height="146" viewBox="0 0 179 146">
  <defs>
    <linearGradient id="ante_favicon-a" x1="163.338%" x2="43.294%" y1="108.457%" y2="47.407%">
      <stop offset="0%" stop-color="#B1CD56"/>
      <stop offset="100%" stop-color="#64AC56"/>
    </linearGradient>
    <linearGradient id="ante_favicon-b" x1="120.35%" x2="10.4%" y1="112%" y2="8.549%">
      <stop offset="0%" stop-color="#63BDC2"/>
      <stop offset="100%" stop-color="#3C889E"/>
    </linearGradient>
    <linearGradient id="ante_favicon-c" x1="92.5%" x2="13.964%" y1="93.209%" y2="8.648%">
      <stop offset="0%" stop-color="#3B7DBC"/>
      <stop offset="100%" stop-color="#1E5098"/>
    </linearGradient>
    <linearGradient id="ante_favicon-d" x1="117.099%" x2="-106.913%" y1="-16.667%" y2="207.284%">
      <stop offset="0%" stop-color="#F9CD4F"/>
      <stop offset="100%" stop-color="#EA9646"/>
    </linearGradient>
    <linearGradient id="ante_favicon-e" x1="91.927%" x2="-32.738%" y1="17.314%" y2="141.979%">
      <stop offset="0%" stop-color="#E88E43"/>
      <stop offset="100%" stop-color="#DE553E"/>
    </linearGradient>
    <linearGradient id="ante_favicon-f" x1="82.281%" x2="-4.12%" y1="30.548%" y2="116.952%">
      <stop offset="0%" stop-color="#DF5D3B"/>
      <stop offset="100%" stop-color="#D23B32"/>
    </linearGradient>
  </defs>
  <g fill="none" fill-rule="evenodd">
    <path fill="url(#ante_favicon-a)" d="M155.60277,23.5061163 C149.421311,17.2760503 145.956785,8.81596694 145.976676,0 L145.702624,0 L132,29.7283235 C134.200279,33.3085993 136.810293,36.6152643 139.776239,39.5801517 C150.152841,50.119967 164.276923,56.0325406 179,56 L179,33.254241 C170.220626,33.304507 161.789658,29.7918634 155.60277,23.5061163 Z"/>
    <path fill="url(#ante_favicon-b)" d="M110,73.3921569 C128.60346,91.1147728 153.309507,101 179,101 L179,78.292549 C159.124285,78.3222458 139.999898,70.6975044 125.594,57 L110,73.3921569 Z"/>
    <path fill="url(#ante_favicon-c)" d="M97.2082143,92 L82,108.985207 C108.640616,132.870843 143.196572,146.057184 179,146 L179,123.23756 C148.811077,123.300937 119.665585,112.211496 97.1735714,92.1037793 L97.2082143,92 Z"/>
    <path fill="url(#ante_favicon-d)" d="M0,56 L0,33.2542637 C18.3579247,33.2352103 33.2352103,18.3579247 33.2542637,0 L56,0 C56.0274997,14.8605406 50.1363891,29.1203748 39.6283819,39.6283819 C29.1203748,50.1363891 14.8605406,56.0274997 0,56 Z"/>
    <path fill="url(#ante_favicon-e)" d="M0,100.826496 L0,77.9965463 C43.1202623,78.0348967 78.112575,43.1202411 78.1700262,0 L101,0 C101.018403,26.7925038 90.3832819,52.4929507 71.4381163,71.4381163 C52.4929507,90.3832819 26.7925038,101.018403 0,101 L0,100.826496 Z"/>
    <path fill="url(#ante_favicon-f)" d="M0,146 L9.8145873e-14,123.126518 C24.3777823,123.153619 48.2046444,115.828429 68.4079101,102.095591 C88.0927565,88.7143696 103.505176,69.8790279 112.781542,47.8670852 C119.083013,32.7087104 122.300382,16.43204 122.243312,0 L145,0 C145.022001,19.537103 141.134665,38.8785341 133.569811,56.8704077 C129.912829,65.5543826 125.437754,73.8656785 120.205924,81.6903778 C114.984935,89.4282082 109.053947,96.655615 102.491003,103.277495 C89.248247,116.588006 73.5853595,127.209585 56.3562389,134.563171 C38.522644,142.140796 19.3571629,146.030143 0,146 Z"/>
  </g>
</svg>
