<svg xmlns="http://www.w3.org/2000/svg" width="250" height="250" viewBox="-30 -50 250 250">
    <defs>
        <linearGradient id="a" x1="60.121%" x2="43.272%" y1="97.05%" y2=".879%">
            <stop offset="0%" stop-color="gray" stop-opacity=".25"/>
            <stop offset="54%" stop-color="gray" stop-opacity=".12"/>
            <stop offset="100%" stop-color="gray" stop-opacity=".1"/>
        </linearGradient>
        <linearGradient id="b" x1="53.377%" x2="53.377%" y1="97.549%" y2="3.021%">
            <stop offset="0%" stop-color="gray" stop-opacity=".25"/>
            <stop offset="54%" stop-color="gray" stop-opacity=".12"/>
            <stop offset="100%" stop-color="gray" stop-opacity=".1"/>
        </linearGradient>
        <linearGradient id="c" x1="31.883%" x2="64.117%" y1="95.546%" y2="4.235%">
            <stop offset="0%" stop-color="gray" stop-opacity=".25"/>
            <stop offset="54%" stop-color="gray" stop-opacity=".12"/>
            <stop offset="100%" stop-color="gray" stop-opacity=".1"/>
        </linearGradient>
        <linearGradient id="d" x1="35.607%" x2="62.352%" y1="95.298%" y2="8.302%">
            <stop offset="0%" stop-color="gray" stop-opacity=".25"/>
            <stop offset="54%" stop-color="gray" stop-opacity=".12"/>
            <stop offset="100%" stop-color="gray" stop-opacity=".1"/>
        </linearGradient>
    </defs>
    <g fill="none" fill-rule="evenodd">
        <path fill="#F5F5F5" d="M165.5 95a.5.5 0 1 0 0-1 .5.5 0 0 0 0 1z"/>
        <path fill="url(#a)" d="M.041 1.597l.5 4.524 8.277-.905a7.829 7.829 0 0 1 5.715 1.646 7.67 7.67 0 0 1 2.861 5.165l1.312 11.854a7.634 7.634 0 0 1-1.663 5.655 7.793 7.793 0 0 1-5.219 2.832l-8.277.905.501 4.523 12.848-1.393c4.266-.464 7.344-4.263 6.875-8.484L21.465 7.012a7.67 7.67 0 0 0-2.861-5.164A7.829 7.829 0 0 0 12.889.2L.041 1.597z" opacity=".5" transform="translate(151 70)"/>
        <path fill="#DBE8FC" d="M153 73.181l.432 3.977 6.216-.702a7.186 7.186 0 0 1 5.394 1.618 7.621 7.621 0 0 1 2.701 5.075l.939 8.831a7.72 7.72 0 0 1-1.57 5.558 7.281 7.281 0 0 1-4.927 2.783l-6.216.702.431 3.977 10.06-1.143a7.281 7.281 0 0 0 4.925-2.783 7.72 7.72 0 0 0 1.57-5.557l-1.783-16.778a7.621 7.621 0 0 0-2.702-5.076 7.186 7.186 0 0 0-5.394-1.618L153 73.181z"/>
        <path fill="url(#b)" d="M57.83 84.561l-38.413 4.195a10.149 10.149 0 0 1-7.442-2.164 10.09 10.09 0 0 1-3.728-6.776L.189 6.459 58.731.064l8.058 73.358c.61 5.542-3.401 10.529-8.96 11.14z" opacity=".5" transform="translate(93 54)"/>
        <path fill="#DBE8FC" d="M94.811 61.928l55.872-6.125 7.637 69.802c.61 5.578-3.412 10.594-8.984 11.205l-35.696 3.913c-5.57.611-10.582-3.415-11.192-8.992L94.81 61.928z"/>
        <path fill="#FECC23" d="M99.228 65.374l47.779-5.238 6.762 61.812c.61 5.577-3.411 10.594-8.983 11.205l-27.603 3.026c-5.572.61-10.583-3.416-11.193-8.993l-6.762-61.812z"/>
        <path fill="#FFF" d="M108.888 70.006c-1.324.139-1.1 2.116.224 1.988 1.324-.128 1.1-2.113-.224-1.988z"/>
        <path fill="#FAFAFA" d="M115.888 88.007c-1.324.139-1.1 2.115.224 1.987 1.324-.128 1.1-2.126-.224-1.987zm-3.001 12c-1.323.139-1.098 2.115.225 1.987 1.323-.128 1.101-2.126-.225-1.987zm7.001 16c-1.324.139-1.1 2.115.225 1.987 1.324-.128 1.097-2.126-.225-1.987zm13.999 0c-1.323.14-1.098 2.115.225 1.987 1.323-.128 1.101-2.129-.225-1.987z"/>
        <path fill="#FFF" d="M131.888 70.007c-1.324.139-1.1 2.115.224 1.987 1.324-.128 1.1-2.126-.224-1.987zm10.999-2c-1.323.139-1.098 2.115.225 1.987 1.323-.128 1.101-2.126-.225-1.987z"/>
        <path fill="#FAFAFA" d="M122.885 76.007c-1.32.14-1.098 2.126.23 1.986 1.326-.14 1.09-2.126-.23-1.986zm13.001 21c-1.321.14-1.099 2.126.229 1.986 1.327-.14 1.089-2.128-.23-1.986zm-19 31c-1.321.14-1.098 2.126.225 1.986 1.324-.14 1.103-2.128-.225-1.986zm-7.999-52c-1.322.14-1.1 2.126.225 1.986 1.325-.14 1.1-2.126-.225-1.986z"/>
        <path fill="#FAFAFA" d="M99.02 63.488l47.89-5.25 1.53 13.982-47.89 5.25z"/>
        <path fill="#000" d="M123.706 124.975L116.886 63 99 64.95l6.82 61.973a10.173 10.173 0 0 0 3.767 6.834 10.269 10.269 0 0 0 7.52 2.183L135 133.99a10.269 10.269 0 0 1-7.524-2.179 10.173 10.173 0 0 1-3.77-6.836z" opacity=".05"/>
        <path fill="#FFF" d="M136.053 124.79l-6.818-61.844L147.117 61l6.822 61.844a10.118 10.118 0 0 1-2.192 7.469 10.25 10.25 0 0 1-6.865 3.741L127 136c5.615-.613 9.668-5.631 9.053-11.21z" opacity=".1"/>
        <path fill="#000" d="M154.987 55.344c-.483-4.4-14.3-6.503-30.863-4.697-16.562 1.806-29.594 6.841-29.111 11.244.295 2.683 5.55 4.512 13.365 5.122a4.999 4.999 0 0 0 1.846 6.174 5.038 5.038 0 0 0 6.421-.747c1.182 4.062 3.817 6.836 6.545 6.538 2.985-.325 5.061-4.22 5-9.014 1.234 1.365 2.765 2.117 4.34 1.946 1.92-.21 3.48-1.746 4.346-3.962 1.042.815 2.235 1.23 3.432 1.096 1.549-.17 2.863-1.2 3.768-2.755.632 3.51 3.07 6.04 5.667 5.757 2.76-.3 4.654-3.668 4.232-7.518-.224-2.045-1.057-3.815-2.204-4.982 2.192-1.394 3.368-2.835 3.216-4.202z" opacity=".03"/>
        <path fill="#FAFAFA" d="M153.987 53.344c-.483-4.4-14.3-6.503-30.863-4.697-16.562 1.806-29.594 6.841-29.111 11.244.295 2.683 5.55 4.512 13.365 5.122a4.999 4.999 0 0 0 1.846 6.174 5.038 5.038 0 0 0 6.421-.747c1.182 4.062 3.817 6.836 6.545 6.538 2.985-.325 5.061-4.22 5-9.014 1.234 1.365 2.765 2.117 4.34 1.946 1.92-.21 3.48-1.746 4.346-3.962 1.042.815 2.235 1.23 3.432 1.096 1.549-.17 2.863-1.2 3.768-2.755.632 3.51 3.07 6.042 5.66 5.757 2.76-.3 4.654-3.668 4.232-7.518-.223-2.045-1.057-3.815-2.203-4.982 2.198-1.383 3.374-2.821 3.222-4.202z"/>
        <path fill="url(#c)" d="M26.877 3.523L25.78 7.857 17.9 5.881a7.62 7.62 0 0 0-5.75.839 7.552 7.552 0 0 0-3.467 4.639l-2.88 11.35a7.52 7.52 0 0 0 .842 5.72 7.583 7.583 0 0 0 4.663 3.449l7.88 1.976-1.088 4.334-12.235-3.069a7.583 7.583 0 0 1-4.662-3.45 7.516 7.516 0 0 1-.843-5.72L5.427 5.936A7.552 7.552 0 0 1 8.89 1.287a7.62 7.62 0 0 1 5.752-.843l12.235 3.08z" opacity=".5" transform="translate(10 34)"/>
        <path fill="#DBE8FC" d="M35 38.797l-.992 3.9-6.338-1.583a7.725 7.725 0 0 0-5.808.847 7.604 7.604 0 0 0-3.501 4.67l-2.203 8.662c-1.03 4.068 1.461 8.193 5.564 9.216L28.07 66.1l-.992 3.9-10.281-2.563a7.66 7.66 0 0 1-4.711-3.472 7.54 7.54 0 0 1-.852-5.758l4.185-16.463a7.604 7.604 0 0 1 3.503-4.669 7.725 7.725 0 0 1 5.809-.844L35 38.797z"/>
        <path fill="url(#d)" d="M7.774 84.232l37.63 9.45c5.446 1.367 10.974-1.924 12.347-7.351l18.16-71.819L18.553.11.396 71.928a10.105 10.105 0 0 0 1.131 7.675 10.167 10.167 0 0 0 6.247 4.63z" opacity=".5" transform="translate(20 19)"/>
        <path fill="#DBE8FC" d="M64.28 110.59l-34.821-8.782c-5.435-1.37-8.731-6.893-7.362-12.333l17.136-68.093 54.503 13.746L76.6 103.22c-1.369 5.44-6.885 8.74-12.32 7.37z"/>
        <path fill="#FECC23" d="M61.393 105.604l-26.927-6.79c-5.435-1.371-8.73-6.893-7.361-12.333l15.174-60.298 46.609 11.754-15.175 60.298a10.158 10.158 0 0 1-4.635 6.239 10.139 10.139 0 0 1-7.685 1.13z"/>
        <path fill="#FFF" d="M78.252 42.034c1.284.313.782 2.245-.502 1.932-1.285-.313-.788-2.245.502-1.932z"/>
        <path fill="#FAFAFA" d="M70.251 58.034c1.286.313.783 2.245-.502 1.932-1.286-.313-.783-2.245.502-1.932zm0 12c1.286.313.783 2.245-.502 1.932-1.286-.313-.783-2.245.502-1.932zM61.25 85.035c1.287.313.784 2.244-.503 1.93-1.286-.312-.777-2.246.504-1.93zm-12.998-2c1.285.313.782 2.244-.503 1.93-1.285-.312-.785-2.246.503-1.93z"/>
        <path fill="#FFF" d="M56.252 38.034c1.284.313.782 2.245-.502 1.932-1.285-.313-.788-2.245.502-1.932zm-10.002-4c1.287.313.784 2.245-.503 1.932-1.287-.313-.775-2.245.504-1.932z"/>
        <path fill="#FAFAFA" d="M63.252 45.034c1.284.312.783 2.244-.503 1.932-1.287-.312-.782-2.246.503-1.932zm-14.999 19c1.282.312.782 2.244-.502 1.932-1.284-.312-.792-2.246.502-1.932zm14.998 34c1.285.313.784 2.245-.502 1.932-1.286-.313-.784-2.245.502-1.932zm13.999-51c1.286.313.786 2.245-.502 1.932-1.288-.313-.777-2.245.503-1.932z"/>
        <path fill="#FAFAFA" d="M85.92 49.736L39.203 37.954l3.433-13.64 46.717 11.782z"/>
        <path fill="#000" d="M71.616 34L89 38.344 73.762 98.358c-1.376 5.414-6.918 8.698-12.378 7.333L44 101.347c5.46 1.364 11.002-1.919 12.378-7.334L71.616 34z" opacity=".05"/>
        <path fill="#FFF" d="M60 30.365L42.58 26 27.313 86.3c-1.379 5.441 1.939 10.963 7.41 12.335L52.142 103c-5.472-1.371-8.79-6.894-7.41-12.334L60 30.366z" opacity=".1"/>
        <path fill="#000" d="M34.546 20.326c1.084-4.263 15.033-4.453 31.155-.425C81.82 23.93 94.023 30.65 92.932 34.912c-.669 2.6-6.108 3.684-13.916 3.222a4.959 4.959 0 0 1-2.674 5.824 5.042 5.042 0 0 1-6.246-1.61c-1.728 3.834-4.712 6.204-7.36 5.541-2.898-.725-4.424-4.838-3.703-9.545-1.408 1.176-3.024 1.707-4.557 1.327-1.868-.467-3.198-2.19-3.75-4.487-1.142.664-2.369.907-3.544.613-1.508-.376-2.665-1.568-3.345-3.222-1.115 3.365-3.865 5.528-6.394 4.893-2.676-.663-4.097-4.238-3.149-7.96.504-1.99 1.561-3.608 2.864-4.599-1.987-1.671-2.95-3.248-2.612-4.583z" opacity=".03"/>
        <path fill="#FAFAFA" d="M35.546 18.326c1.084-4.263 15.033-4.453 31.155-.425C82.82 21.93 95.023 28.65 93.932 32.912c-.669 2.6-6.108 3.684-13.916 3.222a4.959 4.959 0 0 1-2.674 5.824 5.042 5.042 0 0 1-6.246-1.61c-1.728 3.834-4.712 6.204-7.36 5.541-2.898-.725-4.424-4.838-3.703-9.545-1.408 1.176-3.024 1.707-4.557 1.327-1.868-.467-3.198-2.19-3.75-4.487-1.142.664-2.369.907-3.544.613-1.508-.376-2.665-1.568-3.345-3.222-1.115 3.365-3.865 5.528-6.394 4.893-2.676-.663-4.097-4.238-3.149-7.96.504-1.99 1.561-3.608 2.864-4.599-1.987-1.671-2.953-3.248-2.612-4.583z"/>
        <path fill="#FF482D" d="M167.186 146.449c-1.016-.65-2.414-.534-3.28.272-.94.913-.894 2.328.102 3.193l3.146 2.78a.57.57 0 0 0 .74 0l3.116-2.797c.991-.87 1.027-2.284.08-3.193-.87-.8-2.266-.91-3.278-.255a.58.58 0 0 1-.626 0zm-160-9c-1.016-.65-2.414-.534-3.28.272-.94.913-.894 2.328.102 3.193l3.146 2.78a.57.57 0 0 0 .74 0l3.116-2.797c.991-.87 1.027-2.284.08-3.193-.87-.8-2.266-.91-3.278-.255a.58.58 0 0 1-.626 0zm8-121c-1.016-.65-2.414-.534-3.28.272-.94.913-.894 2.328.102 3.193l3.146 2.78a.57.57 0 0 0 .74 0l3.116-2.797c.991-.87 1.027-2.284.08-3.193-.87-.8-2.266-.91-3.278-.255a.58.58 0 0 1-.626 0zm124-10c-1.016-.65-2.414-.534-3.28.272-.94.913-.894 2.328.102 3.193l3.146 2.78a.57.57 0 0 0 .74 0l3.116-2.797c.991-.87 1.027-2.284.08-3.193-.87-.8-2.266-.91-3.278-.255a.58.58 0 0 1-.626 0z" opacity=".5"/>
        <g fill="#3AD29F" opacity=".5">
            <path d="M98.647 0h1v4h-1z"/>
            <path d="M101 1.78v.44h-4v-.44z"/>
        </g>
        <g fill="#3AD29F" opacity=".5">
            <path d="M1.647 48h1v4h-1z"/>
            <path d="M4 49.78v.44H0v-.44z"/>
        </g>
        <g fill="#3AD29F" opacity=".5">
            <path d="M126.647 161h1v4h-1z"/>
            <path d="M129 162.78v.44h-4v-.44z"/>
        </g>
        <g fill="#3AD29F" opacity=".5">
            <path d="M4.647 111h1v4h-1z"/>
            <path d="M7 112.78v.44H3v-.44z"/>
        </g>
        <g fill="#3AD29F" opacity=".5">
            <path d="M45.647 117h1v4h-1z"/>
            <path d="M48 118.78v.44h-4v-.44z"/>
        </g>
        <path fill="#F55F44" d="M32.753 149.531a.826.826 0 0 1-.45-.998.414.414 0 0 0-.727-.367.398.398 0 0 0-.045.081.826.826 0 0 1-.998.45.414.414 0 0 0-.367.727.398.398 0 0 0 .081.045c.381.17.574.6.45.998a.414.414 0 0 0 .727.367.398.398 0 0 0 .045-.081.826.826 0 0 1 .998-.45.414.414 0 0 0 .367-.727.398.398 0 0 0-.081-.045z" opacity=".5"/>
        <path fill="#3AD29F" d="M87.753 142.531a.826.826 0 0 1-.45-.998.414.414 0 0 0-.727-.367.398.398 0 0 0-.045.081.826.826 0 0 1-.998.45.414.414 0 0 0-.367.727.398.398 0 0 0 .081.045c.381.17.574.6.45.998a.414.414 0 0 0 .727.367.398.398 0 0 0 .045-.081.826.826 0 0 1 .998-.45.414.414 0 0 0 .367-.727.398.398 0 0 0-.081-.045z" opacity=".5"/>
        <path fill="#F55F44" d="M109.753 37.531a.826.826 0 0 1-.45-.998.414.414 0 0 0-.727-.367.398.398 0 0 0-.045.081.826.826 0 0 1-.998.45.414.414 0 0 0-.367.727.398.398 0 0 0 .081.045c.381.17.574.6.45.998a.414.414 0 0 0 .727.367.398.398 0 0 0 .045-.081.826.826 0 0 1 .998-.45.414.414 0 0 0 .367-.727.398.398 0 0 0-.081-.045zm57 2a.826.826 0 0 1-.45-.998.414.414 0 0 0-.727-.367.398.398 0 0 0-.045.081.826.826 0 0 1-.998.45.414.414 0 0 0-.367.727.398.398 0 0 0 .081.045c.381.17.574.6.45.998a.414.414 0 0 0 .727.367.398.398 0 0 0 .045-.081.826.826 0 0 1 .998-.45.414.414 0 0 0 .367-.727.398.398 0 0 0-.081-.045zm-83 61a.826.826 0 0 1-.45-.998.414.414 0 0 0-.727-.367.398.398 0 0 0-.045.081.826.826 0 0 1-.998.45.414.414 0 0 0-.367.727.398.398 0 0 0 .081.045c.381.17.574.6.45.998a.414.414 0 0 0 .727.367.398.398 0 0 0 .045-.081.826.826 0 0 1 .998-.45.414.414 0 0 0 .367-.727.398.398 0 0 0-.081-.045zm98-96a.826.826 0 0 1-.45-.998.414.414 0 0 0-.727-.367.398.398 0 0 0-.045.081.826.826 0 0 1-.998.45.414.414 0 0 0-.367.727.398.398 0 0 0 .081.045c.381.17.574.6.45.998a.414.414 0 0 0 .727.367.398.398 0 0 0 .045-.081.826.826 0 0 1 .998-.45.414.414 0 0 0 .367-.727.398.398 0 0 0-.081-.045z" opacity=".5"/>
    </g>
</svg>
