<svg xmlns="http://www.w3.org/2000/svg" viewBox="0 0 1488 774" width="1488" height="774" style="width:100%;height:100%;transform:translate3d(0,0,0)"><defs><linearGradient id="ao" spreadMethod="pad" gradientUnits="userSpaceOnUse" x1="581" y1="309" x2="670.333" y2="382.333"><stop offset="0%" stop-color="#44B148"/><stop offset="50%" stop-color="#77C043"/><stop offset="100%" stop-color="#A9CF3D"/></linearGradient><linearGradient id="ap" spreadMethod="pad" gradientUnits="userSpaceOnUse" x1="624" y1="404" x2="624" y2="316.98"><stop offset="0%" stop-color="#44B148"/><stop offset="50%" stop-color="#77C043"/><stop offset="100%" stop-color="#A9CF3D"/></linearGradient><linearGradient id="an" spreadMethod="pad" gradientUnits="userSpaceOnUse" x1="651" y1="179" x2="675" y2="213"><stop offset="0%" stop-color="#44B148"/><stop offset="50%" stop-color="#449448"/><stop offset="100%" stop-color="#447748"/></linearGradient><linearGradient id="al" spreadMethod="pad" gradientUnits="userSpaceOnUse" x1="532" y1="171" x2="581.333" y2="225.667"><stop offset="0%" stop-color="#44B148"/><stop offset="50%" stop-color="#449448"/><stop offset="100%" stop-color="#447748"/></linearGradient><linearGradient id="am" spreadMethod="pad" gradientUnits="userSpaceOnUse" x1="537" y1="167" x2="586.333" y2="221.667"><stop offset="0%" stop-color="#44B148"/><stop offset="50%" stop-color="#449448"/><stop offset="100%" stop-color="#447748"/></linearGradient><linearGradient id="aj" spreadMethod="pad" gradientUnits="userSpaceOnUse" x1="-589" y1="383" x2="-589" y2="288.373"><stop offset="0%" stop-color="#F5892B"/><stop offset="50%" stop-color="#F9AA28"/><stop offset="100%" stop-color="#FECA25"/></linearGradient><linearGradient id="ak" spreadMethod="pad" gradientUnits="userSpaceOnUse" x1="-456" y1="445" x2="-456" y2="276.418"><stop offset="0%" stop-color="#F5892B"/><stop offset="50%" stop-color="#F9AA28"/><stop offset="100%" stop-color="#FECA25"/></linearGradient><linearGradient id="ai" spreadMethod="pad" gradientUnits="userSpaceOnUse" x1="-472" y1="166" x2="-479" y2="127.5"><stop offset="0%" stop-color="#7DBF43" stop-opacity="0"/><stop offset="50%" stop-color="#7DBF43" stop-opacity=".5"/><stop offset="100%" stop-color="#7DBF43"/></linearGradient><linearGradient id="ah" spreadMethod="pad" gradientUnits="userSpaceOnUse" x1="-601" y1="166" x2="-495.697" y2="135.697"><stop offset="0%" stop-color="#7DBF43"/><stop offset="50%" stop-color="#7DBF43" stop-opacity=".5"/><stop offset="100%" stop-color="#7DBF43" stop-opacity="0"/></linearGradient><linearGradient id="ag" spreadMethod="pad" gradientUnits="userSpaceOnUse" x1="-594" y1="192" x2="-488.697" y2="161.697"><stop offset="0%" stop-color="#7DBF43"/><stop offset="50%" stop-color="#7DBF43" stop-opacity=".5"/><stop offset="100%" stop-color="#7DBF43" stop-opacity="0"/></linearGradient><linearGradient id="af" spreadMethod="pad" gradientUnits="userSpaceOnUse" x1="-468" y1="38" x2="-399.196" y2="38"><stop offset="0%" stop-color="#FECC25"/><stop offset="50%" stop-color="#FCBD27"/><stop offset="100%" stop-color="#FAAE28"/></linearGradient><linearGradient id="ae" spreadMethod="pad" gradientUnits="userSpaceOnUse" x1="-523" y1="213" x2="-466.75" y2="174.932"><stop offset="0%" stop-color="#1D9BAC"/><stop offset="50%" stop-color="#1D9BAC" stop-opacity=".5"/><stop offset="100%" stop-color="#1D9BAC" stop-opacity="0"/></linearGradient><linearGradient id="ad" spreadMethod="pad" gradientUnits="userSpaceOnUse" x1="-328" y1="178" x2="-365.5" y2="185.5"><stop offset="0%" stop-color="#1D9BAC"/><stop offset="50%" stop-color="#1D9BAC" stop-opacity=".5"/><stop offset="100%" stop-color="#1D9BAC" stop-opacity="0"/></linearGradient><linearGradient id="ab" spreadMethod="pad" gradientUnits="userSpaceOnUse" x1="481" y1="-49" x2="486.333" y2="-32.333"><stop offset="0%" stop-color="#FAAE28"/><stop offset="50%" stop-color="#FAAE28" stop-opacity=".5"/><stop offset="100%" stop-color="#FAAE28" stop-opacity="0"/></linearGradient><linearGradient id="ac" spreadMethod="pad" gradientUnits="userSpaceOnUse" x1="495" y1="76" x2="515.75" y2="76"><stop offset="0%" stop-color="#FAAE28"/><stop offset="50%" stop-color="#FAAE28" stop-opacity=".5"/><stop offset="100%" stop-color="#FAAE28" stop-opacity="0"/></linearGradient><linearGradient id="Y" spreadMethod="pad" gradientUnits="userSpaceOnUse" x1="445" y1="-207" x2="466.667" y2="-172.5"><stop offset="0%" stop-color="#D65B2B"/><stop offset="50%" stop-color="#C84C2B"/><stop offset="100%" stop-color="#BB3D2B"/></linearGradient><linearGradient id="Z" spreadMethod="pad" gradientUnits="userSpaceOnUse" x1="411" y1="-176" x2="444" y2="-144"><stop offset="0%" stop-color="#FECC25"/><stop offset="50%" stop-color="#FCBD27"/><stop offset="100%" stop-color="#FAAE28"/></linearGradient><linearGradient id="aa" spreadMethod="pad" gradientUnits="userSpaceOnUse" x1="389" y1="-164" x2="432.607" y2="-164"><stop offset="0%" stop-color="#FAAE28" stop-opacity=".3"/><stop offset="50%" stop-color="#FAAE28" stop-opacity=".65"/><stop offset="100%" stop-color="#FAAE28"/></linearGradient><linearGradient id="W" spreadMethod="pad" gradientUnits="userSpaceOnUse" x1="418" y1="-45" x2="403.049" y2="-58.082"><stop offset="0%" stop-color="#7DBF43"/><stop offset="50%" stop-color="#7DBF43" stop-opacity=".5"/><stop offset="100%" stop-color="#7DBF43" stop-opacity="0"/></linearGradient><linearGradient id="X" spreadMethod="pad" gradientUnits="userSpaceOnUse" x1="381" y1="-11" x2="470.37" y2="-11"><stop offset="0%" stop-color="#7DBF43" stop-opacity="0"/><stop offset="50%" stop-color="#7DBF43" stop-opacity=".5"/><stop offset="100%" stop-color="#7DBF43"/></linearGradient><linearGradient id="U" spreadMethod="pad" gradientUnits="userSpaceOnUse" x1="361" y1="21" x2="316.667" y2="-42.333"><stop offset="0%" stop-color="#128BA1"/><stop offset="50%" stop-color="#209FAE"/><stop offset="100%" stop-color="#2EB3BB"/></linearGradient><linearGradient id="T" spreadMethod="pad" gradientUnits="userSpaceOnUse" x1="222" y1="116" x2="252.75" y2="137.25"><stop offset="0%" stop-color="#FAAE28"/><stop offset="50%" stop-color="#FAAE28" stop-opacity=".5"/><stop offset="100%" stop-color="#FAAE28" stop-opacity="0"/></linearGradient><linearGradient id="V" spreadMethod="pad" gradientUnits="userSpaceOnUse" x1="397" y1="57" x2="375.667" y2="6"><stop offset="0%" stop-color="#128BA1"/><stop offset="50%" stop-color="#1C99AA"/><stop offset="100%" stop-color="#26A7B3"/></linearGradient><linearGradient id="R" spreadMethod="pad" gradientUnits="userSpaceOnUse" x1="175.441" y1="44.537" x2="190.007" y2="74.941"><stop offset="0%" stop-color="#F5892B"/><stop offset="50%" stop-color="#F5892B" stop-opacity=".5"/><stop offset="100%" stop-color="#F5892B" stop-opacity="0"/></linearGradient><linearGradient id="S" spreadMethod="pad" gradientUnits="userSpaceOnUse" x1="195" y1="51" x2="236" y2="-14.667"><stop offset="0%" stop-color="#128BA1"/><stop offset="50%" stop-color="#209FAE"/><stop offset="100%" stop-color="#2EB3BB"/></linearGradient><linearGradient id="H" spreadMethod="pad" gradientUnits="userSpaceOnUse" x1="280" y1="402" x2="280" y2="300.007"><stop offset="0%" stop-color="#F5892B"/><stop offset="50%" stop-color="#F9AA28"/><stop offset="100%" stop-color="#FECA25"/></linearGradient><linearGradient id="I" spreadMethod="pad" gradientUnits="userSpaceOnUse" x1="341" y1="123" x2="341" y2="59.611"><stop offset="0%" stop-color="#F5892B"/><stop offset="50%" stop-color="#F9AA28"/><stop offset="100%" stop-color="#FECA25"/></linearGradient><linearGradient id="J" spreadMethod="pad" gradientUnits="userSpaceOnUse" x1="394" y1="102" x2="563.87" y2="102"><stop offset="0%" stop-color="#F5892B"/><stop offset="50%" stop-color="#F9AA28"/><stop offset="100%" stop-color="#FECA25"/></linearGradient><linearGradient id="K" spreadMethod="pad" gradientUnits="userSpaceOnUse" x1="488" y1="78" x2="513.75" y2="87.25"><stop offset="0%" stop-color="#F5892B"/><stop offset="50%" stop-color="#F5892B" stop-opacity=".5"/><stop offset="100%" stop-color="#F5892B" stop-opacity="0"/></linearGradient><linearGradient id="L" spreadMethod="pad" gradientUnits="userSpaceOnUse" x1="270" y1="65" x2="344.843" y2="91.886"><stop offset="0%" stop-color="#F5892B" stop-opacity=".4"/><stop offset="50%" stop-color="#F5892B" stop-opacity=".2"/><stop offset="100%" stop-color="#F5892B" stop-opacity="0"/></linearGradient><linearGradient id="M" spreadMethod="pad" gradientUnits="userSpaceOnUse" x1="516" y1="204" x2="516" y2="137.916"><stop offset="0%" stop-color="#F5892B"/><stop offset="50%" stop-color="#F9AA28"/><stop offset="100%" stop-color="#FECA25"/></linearGradient><linearGradient id="N" spreadMethod="pad" gradientUnits="userSpaceOnUse" x1="281" y1="165" x2="481.334" y2="165"><stop offset="0%" stop-color="#F5892B" stop-opacity=".4"/><stop offset="50%" stop-color="#F5892B" stop-opacity=".2"/><stop offset="100%" stop-color="#F5892B" stop-opacity="0"/></linearGradient><linearGradient id="O" spreadMethod="pad" gradientUnits="userSpaceOnUse" x1="411" y1="165" x2="480.729" y2="165"><stop offset="0%" stop-color="#F5892B" stop-opacity=".4"/><stop offset="50%" stop-color="#F5892B" stop-opacity=".2"/><stop offset="100%" stop-color="#F5892B" stop-opacity="0"/></linearGradient><linearGradient id="P" spreadMethod="pad" gradientUnits="userSpaceOnUse" x1="511" y1="309" x2="511" y2="208.327"><stop offset="0%" stop-color="#F5892B"/><stop offset="50%" stop-color="#F9AA28"/><stop offset="100%" stop-color="#FECA25"/></linearGradient><linearGradient id="Q" spreadMethod="pad" gradientUnits="userSpaceOnUse" x1="591" y1="402" x2="591" y2="325.287"><stop offset="0%" stop-color="#F5892B"/><stop offset="50%" stop-color="#F9AA28"/><stop offset="100%" stop-color="#FECA25"/></linearGradient><linearGradient id="D" spreadMethod="pad" gradientUnits="userSpaceOnUse" x1="-32" y1="-50" x2="3.713" y2="-28.503"><stop offset="0%" stop-color="#7DBF43"/><stop offset="50%" stop-color="#7DBF43" stop-opacity=".5"/><stop offset="100%" stop-color="#7DBF43" stop-opacity="0"/></linearGradient><linearGradient id="G" spreadMethod="pad" gradientUnits="userSpaceOnUse" x1="-27" y1="-241" x2="33.548" y2="-241"><stop offset="0%" stop-color="#FECC25"/><stop offset="50%" stop-color="#FCBD27"/><stop offset="100%" stop-color="#FAAE28"/></linearGradient><linearGradient id="E" spreadMethod="pad" gradientUnits="userSpaceOnUse" x1="-118" y1="-56" x2="20.865" y2="-142.856"><stop offset="0%" stop-color="#2EB3BB"/><stop offset="50%" stop-color="#4AC1C6"/><stop offset="100%" stop-color="#67CED1"/></linearGradient><linearGradient id="F" spreadMethod="pad" gradientUnits="userSpaceOnUse" x1="-122" y1="-61" x2="16.865" y2="-147.856"><stop offset="0%" stop-color="#2EB3BB"/><stop offset="50%" stop-color="#4AC1C6"/><stop offset="100%" stop-color="#67CED1"/></linearGradient><linearGradient id="C" spreadMethod="pad" gradientUnits="userSpaceOnUse" x1="-43" y1="-30" x2="-57.716" y2="83.25"><stop offset="0%" stop-color="#7DBF43"/><stop offset="50%" stop-color="#7DBF43" stop-opacity=".5"/><stop offset="100%" stop-color="#7DBF43" stop-opacity="0"/></linearGradient><linearGradient id="B" spreadMethod="pad" gradientUnits="userSpaceOnUse" x1="-103" y1="260" x2="-55.786" y2="260"><stop offset="0%" stop-color="#7DBF43"/><stop offset="50%" stop-color="#7DBF43" stop-opacity=".5"/><stop offset="100%" stop-color="#7DBF43" stop-opacity="0"/></linearGradient><linearGradient id="x" spreadMethod="pad" gradientUnits="userSpaceOnUse" x1="-358.994" y1="-285.86" x2="-345.553" y2="-286.127"><stop offset="0%" stop-color="#44B148"/><stop offset="50%" stop-color="#77C043"/><stop offset="100%" stop-color="#A9CF3D"/></linearGradient><linearGradient id="y" spreadMethod="pad" gradientUnits="userSpaceOnUse" x1="-366.001" y1="-267.788" x2="-345.825" y2="-268.188"><stop offset="0%" stop-color="#44B148"/><stop offset="50%" stop-color="#77C043"/><stop offset="100%" stop-color="#A9CF3D"/></linearGradient><linearGradient id="z" spreadMethod="pad" gradientUnits="userSpaceOnUse" x1="-377.001" y1="-253.675" x2="-346.318" y2="-254.283"><stop offset="0%" stop-color="#44B148"/><stop offset="50%" stop-color="#77C043"/><stop offset="100%" stop-color="#A9CF3D"/></linearGradient><linearGradient id="u" spreadMethod="pad" gradientUnits="userSpaceOnUse" x1="-153.944" y1="-187.121" x2="176.511" y2="-182.498"><stop offset="0%" stop-color="#67CED1" stop-opacity=".3"/><stop offset="50%" stop-color="#58C7CB" stop-opacity=".2"/><stop offset="100%" stop-color="#49C0C5" stop-opacity=".1"/></linearGradient><linearGradient id="v" spreadMethod="pad" gradientUnits="userSpaceOnUse" x1="-153.778" y1="-111.906" x2="176.677" y2="-107.283"><stop offset="0%" stop-color="#A9CF3D" stop-opacity=".3"/><stop offset="50%" stop-color="#A9CF3D" stop-opacity=".2"/><stop offset="100%" stop-color="#A9CF3D" stop-opacity=".1"/></linearGradient><linearGradient id="w" spreadMethod="pad" gradientUnits="userSpaceOnUse" x1="-153.612" y1="-36.691" x2="176.843" y2="-32.068"><stop offset="0%" stop-color="#F5892B" stop-opacity=".3"/><stop offset="50%" stop-color="#F5892B" stop-opacity=".2"/><stop offset="100%" stop-color="#F5892B" stop-opacity=".1"/></linearGradient><linearGradient id="q" spreadMethod="pad" gradientUnits="userSpaceOnUse" x1="-153.944" y1="-187.121" x2="176.511" y2="-182.498"><stop offset="0%" stop-color="#67CED1" stop-opacity=".3"/><stop offset="50%" stop-color="#58C7CB" stop-opacity=".2"/><stop offset="100%" stop-color="#49C0C5" stop-opacity=".1"/></linearGradient><linearGradient id="r" spreadMethod="pad" gradientUnits="userSpaceOnUse" x1="-153.778" y1="-111.906" x2="176.677" y2="-107.283"><stop offset="0%" stop-color="#A9CF3D" stop-opacity=".3"/><stop offset="50%" stop-color="#A9CF3D" stop-opacity=".2"/><stop offset="100%" stop-color="#A9CF3D" stop-opacity=".1"/></linearGradient><linearGradient id="s" spreadMethod="pad" gradientUnits="userSpaceOnUse" x1="-153.612" y1="-36.691" x2="176.843" y2="-32.068"><stop offset="0%" stop-color="#F5892B" stop-opacity=".3"/><stop offset="50%" stop-color="#F5892B" stop-opacity=".2"/><stop offset="100%" stop-color="#F5892B" stop-opacity=".1"/></linearGradient><linearGradient id="m" spreadMethod="pad" gradientUnits="userSpaceOnUse" x1="-153.944" y1="-187.121" x2="176.511" y2="-182.498"><stop offset="0%" stop-color="#67CED1" stop-opacity=".3"/><stop offset="50%" stop-color="#58C7CB" stop-opacity=".2"/><stop offset="100%" stop-color="#49C0C5" stop-opacity=".1"/></linearGradient><linearGradient id="n" spreadMethod="pad" gradientUnits="userSpaceOnUse" x1="-153.778" y1="-111.906" x2="176.677" y2="-107.283"><stop offset="0%" stop-color="#A9CF3D" stop-opacity=".3"/><stop offset="50%" stop-color="#A9CF3D" stop-opacity=".2"/><stop offset="100%" stop-color="#A9CF3D" stop-opacity=".1"/></linearGradient><linearGradient id="o" spreadMethod="pad" gradientUnits="userSpaceOnUse" x1="-153.612" y1="-36.691" x2="176.843" y2="-32.068"><stop offset="0%" stop-color="#F5892B" stop-opacity=".3"/><stop offset="50%" stop-color="#F5892B" stop-opacity=".2"/><stop offset="100%" stop-color="#F5892B" stop-opacity=".1"/></linearGradient><linearGradient id="i" spreadMethod="pad" gradientUnits="userSpaceOnUse" x1="-153.944" y1="-187.121" x2="176.511" y2="-182.498"><stop offset="0%" stop-color="#67CED1" stop-opacity=".3"/><stop offset="50%" stop-color="#58C7CB" stop-opacity=".2"/><stop offset="100%" stop-color="#49C0C5" stop-opacity=".1"/></linearGradient><linearGradient id="j" spreadMethod="pad" gradientUnits="userSpaceOnUse" x1="-153.778" y1="-111.906" x2="176.677" y2="-107.283"><stop offset="0%" stop-color="#A9CF3D" stop-opacity=".3"/><stop offset="50%" stop-color="#A9CF3D" stop-opacity=".2"/><stop offset="100%" stop-color="#A9CF3D" stop-opacity=".1"/></linearGradient><linearGradient id="k" spreadMethod="pad" gradientUnits="userSpaceOnUse" x1="-153.612" y1="-36.691" x2="176.843" y2="-32.068"><stop offset="0%" stop-color="#F5892B" stop-opacity=".3"/><stop offset="50%" stop-color="#F5892B" stop-opacity=".2"/><stop offset="100%" stop-color="#F5892B" stop-opacity=".1"/></linearGradient><linearGradient id="e" spreadMethod="pad" gradientUnits="userSpaceOnUse" x1="482" y1="-255" x2="640.992" y2="-147.005"><stop offset="0%" stop-color="#F2632F" stop-opacity=".1"/><stop offset="50%" stop-color="#F4762D" stop-opacity=".2"/><stop offset="100%" stop-color="#F5892B" stop-opacity=".3"/></linearGradient><linearGradient id="d" spreadMethod="pad" gradientUnits="userSpaceOnUse" x1="-235" y1="139" x2="-47.509" y2="396.987"><stop offset="0%" stop-color="#F2632F" stop-opacity=".1"/><stop offset="50%" stop-color="#F4762D" stop-opacity=".2"/><stop offset="100%" stop-color="#F5892B" stop-opacity=".3"/></linearGradient><linearGradient id="c" spreadMethod="pad" gradientUnits="userSpaceOnUse" x1="-248" y1="148" x2="-60.509" y2="405.987"><stop offset="0%" stop-color="#F5892B" stop-opacity=".1"/><stop offset="50%" stop-color="#F5892B" stop-opacity=".2"/><stop offset="100%" stop-color="#F5892B" stop-opacity=".3"/></linearGradient><linearGradient id="b" spreadMethod="pad" gradientUnits="userSpaceOnUse" x1="-627" y1="-24" x2="-418.51" y2="277.485"><stop offset="0%" stop-color="#F2632F" stop-opacity=".1"/><stop offset="50%" stop-color="#F4762D" stop-opacity=".2"/><stop offset="100%" stop-color="#F5892B" stop-opacity=".3"/></linearGradient><clipPath id="a"><path d="M0 0h1488v774H0z"/></clipPath><clipPath id="A"><path d="M0 0h1920v1080H0z"/></clipPath><clipPath id="f"><path d="M0 0h1920v1080H0z"/></clipPath><clipPath id="g"><path fill="#fff" d="M520 208v426h862V208H520"/></clipPath><mask id="t" mask-type="alpha"/><mask id="p" mask-type="alpha"/><mask id="l" mask-type="alpha"><path fill="#FFF" d="m-436.095 92.514 5.839-417.698 858.782 12.005-5.839 417.698-858.782-12.005z" transform="translate(960 540)" style="display:block"/></mask><mask id="h" mask-type="alpha"><path fill="#FFF" d="m-436.095 92.514 5.839-417.698 858.782 12.005-5.839 417.698-858.782-12.005z" transform="translate(960 540)" style="display:block"/></mask></defs><g clip-path="url(#a)"><path fill="#fff" d="M0 0h1920v1080H0z" transform="translate(-220 -182)" style="display:block"/><path stroke-miterlimit="10" stroke="#A9CF3D" stroke-width="3" d="m-547.545 270.659-36.874-527.714 1170.048 10.289-100.024 588.168-1033.15-70.743z" fill="none" transform="translate(741.194 357.963)" style="display:block"/><path fill="url(#b)" d="M-344.987 116.305c0 101.895-82.603 184.498-184.498 184.498S-713.983 218.2-713.983 116.305-631.38-68.192-529.485-68.192s184.498 82.602 184.498 184.497z" transform="translate(740.253 356.594)" style="display:block"/><path fill="url(#c)" d="M-169.758 185.665c0 27.89-22.61 50.5-50.5 50.5s-50.5-22.61-50.5-50.5 22.61-50.5 50.5-50.5 50.5 22.61 50.5 50.5z" transform="translate(739.886 356.964)" style="display:block"/><path fill="url(#d)" d="M-224.624 401c0-89.343 72.428-161.771 161.771-161.771 89.343 0 161.77 72.428 161.77 161.771" transform="translate(740.077 358.523)" style="display:block"/><path fill="url(#e)" d="m623.726-157.594-45.403 19.155L476.984-264.91l30.004-24.042 116.738 131.358z" transform="translate(740.46 357.969)" style="display:block"/><path fill="#FFF" d="M720-62V62H-720V-62H720z" transform="translate(708 820)" style="display:block"/><path fill="#DDFF95" d="m-448.049-338.148-1.192 453.291 889.721 2.34 1.192-453.291-889.721-2.34z" transform="translate(740 358)" style="display:block"/><g clip-path="url(#f)" transform="translate(-220 -182)" style="display:block"><g clip-path="url(#g)"><path fill="#FFF" d="m-436.095 92.514 5.839-417.698 858.782 12.005-5.839 417.698-858.782-12.005z" transform="rotate(-.8 39150.128 -68594.218)" style="display:block"/><g opacity=".155" mask="url(#h)" style="display:block"><path fill="#49C0C5" d="m343.605 397.593-168.62-.299.104-58.494 168.62.298-.104 58.495z" opacity=".44"/><path fill="#7DBF43" d="m343.449 485.746-168.62-.3.104-58.494 168.62.298-.104 58.496z" opacity=".44"/><path fill="#F2632F" d="m343.293 573.898-168.62-.299.104-58.495 168.62.298-.104 58.496z" opacity=".44"/><path fill="#67CED1" d="m845.582 379.896-106.475-.189c-10.91-.02-19.74-8.88-19.72-19.79v-.399c.02-10.91 8.88-19.74 19.79-19.72l106.477.19c10.91.019 19.739 8.879 19.719 19.789v.399c-.02 10.91-8.88 19.74-19.79 19.72z" opacity=".44"/><path fill="#A9CF3D" d="m845.426 468.049-106.475-.19c-10.91-.02-19.74-8.88-19.72-19.79v-.398c.02-10.91 8.88-19.74 19.79-19.72l106.476.189c10.91.02 19.74 8.88 19.72 19.79v.398c-.02 10.91-8.88 19.74-19.79 19.72z" opacity=".44"/><path fill="#F5892B" d="m845.27 556.201-106.475-.19c-10.91-.019-19.74-8.879-19.72-19.789v-.399c.02-10.91 8.88-19.74 19.79-19.72l106.475.19c10.91.019 19.74 8.879 19.72 19.789v.399c-.02 10.91-8.88 19.74-19.79 19.72z" opacity=".44"/><path fill="url(#i)" d="m178.355-168.91-330.455-4.623.28-19.953 330.455 4.623-.28 19.953z" transform="rotate(-.7 44459.087 -42346.813)" opacity="1"/><path fill="url(#j)" d="m177.112-80.031-330.455-4.623.279-19.952 330.455 4.623-.279 19.952z" transform="rotate(-.7 44459.087 -42346.813)" opacity="1"/><path fill="url(#k)" d="m175.869 8.849-330.455-4.623.279-19.953 330.455 4.623-.279 19.953z" transform="rotate(-.7 44459.087 -42346.813)" opacity="1"/><path fill="#FFF" d="M230.553 368.548c.13 10.691-8.43 19.464-19.121 19.594-10.692.13-19.464-8.43-19.595-19.12-.13-10.692 8.43-19.464 19.122-19.595 10.69-.13 19.463 8.43 19.594 19.121zM229.107 454.88c.13 10.691-8.43 19.463-19.12 19.593-10.692.13-19.464-8.429-19.595-19.12-.13-10.69 8.43-19.463 19.121-19.594 10.691-.13 19.464 8.43 19.594 19.121zM227.19 543.582c.131 10.691-8.43 19.464-19.12 19.594-10.692.131-19.464-8.43-19.594-19.12-.131-10.692 8.43-19.464 19.12-19.595 10.692-.13 19.464 8.43 19.595 19.121z" opacity=".44"/></g><g opacity=".009" mask="url(#l)" style="display:block"><path fill="#49C0C5" d="m1422.582 397.593-168.619-.299.104-58.494 168.619.298-.104 58.495z" opacity=".44"/><path fill="#7DBF43" d="m1422.426 485.746-168.619-.3.103-58.494 168.62.298-.104 58.496z" opacity=".44"/><path fill="#F2632F" d="m1422.27 573.898-168.619-.299.103-58.495 168.62.298-.104 58.496z" opacity=".44"/><path fill="#67CED1" d="m1924.56 379.896-106.476-.189c-10.91-.02-19.74-8.88-19.72-19.79l.001-.399c.02-10.91 8.88-19.74 19.79-19.72l106.476.19c10.91.019 19.739 8.879 19.72 19.789v.399c-.02 10.91-8.881 19.74-19.791 19.72z" opacity=".44"/><path fill="#A9CF3D" d="m1924.404 468.049-106.476-.19c-10.91-.02-19.74-8.88-19.72-19.79l.001-.398c.02-10.91 8.88-19.74 19.79-19.72l106.475.189c10.91.02 19.74 8.88 19.72 19.79v.398c-.02 10.91-8.88 19.74-19.79 19.72z" opacity=".44"/><path fill="#F5892B" d="m1924.248 556.201-106.476-.19c-10.91-.019-19.74-8.879-19.72-19.789l.001-.399c.02-10.91 8.88-19.74 19.79-19.72l106.475.19c10.91.019 19.74 8.879 19.72 19.789v.399c-.02 10.91-8.88 19.74-19.79 19.72z" opacity=".44"/><path fill="url(#m)" d="m178.355-168.91-330.455-4.623.28-19.953 330.455 4.623-.28 19.953z" transform="rotate(-.7 44998.537 -130661.227)" opacity="1"/><path fill="url(#n)" d="m177.112-80.031-330.455-4.623.279-19.952 330.455 4.623-.279 19.952z" transform="rotate(-.7 44998.537 -130661.227)" opacity="1"/><path fill="url(#o)" d="m175.869 8.849-330.455-4.623.279-19.953 330.455 4.623-.279 19.953z" transform="rotate(-.7 44998.537 -130661.227)" opacity="1"/><path fill="#FFF" d="M1309.53 368.548c.13 10.691-8.43 19.464-19.12 19.594-10.692.13-19.464-8.43-19.595-19.12-.13-10.692 8.43-19.464 19.121-19.595 10.691-.13 19.463 8.43 19.594 19.121zM1308.085 454.88c.13 10.691-8.43 19.463-19.121 19.593-10.692.13-19.464-8.429-19.594-19.12-.131-10.69 8.43-19.463 19.12-19.594 10.692-.13 19.464 8.43 19.595 19.121zM1306.168 543.582c.13 10.691-8.43 19.464-19.12 19.594-10.692.131-19.464-8.43-19.595-19.12-.13-10.692 8.43-19.464 19.121-19.595 10.691-.13 19.464 8.43 19.594 19.121z" opacity=".44"/></g><g opacity=".44" style="display:block"><path fill="url(#x)" d="m-345.244-284.416.008 7.839a19.111 19.111 0 0 1-7.512-1.511 19.167 19.167 0 0 1-5.894-3.892 49.813 49.813 0 0 0 1.937-13.878 11.381 11.381 0 0 0 3.361 8.095 11.375 11.375 0 0 0 8.1 3.347z" transform="translate(960 540)" opacity="1"/><path fill="url(#y)" d="m-345.23-269.043.005 7.84a34.488 34.488 0 0 1-20.161-6.442 50.03 50.03 0 0 0 3.921-6.852 26.686 26.686 0 0 0 16.235 5.454z" transform="translate(960 540)" opacity="1"/><path fill="url(#z)" d="m-345.219-253.671.006 7.839a49.846 49.846 0 0 1-30.754-10.533 49.85 49.85 0 0 0 5.876-5.389 41.995 41.995 0 0 0 9.551 5.229 42.052 42.052 0 0 0 15.321 2.854z" transform="translate(960 540)" opacity="1"/><path fill="#A9CF3D" d="M572.552 244.166a19.227 19.227 0 0 1-5.64 13.646 19.226 19.226 0 0 1-13.636 5.66l-.005-7.839a11.373 11.373 0 0 0 8.093-3.361 11.376 11.376 0 0 0 3.349-8.1l7.839-.006z" opacity="1"/><path fill="#A9CF3D" d="M587.924 244.153a34.438 34.438 0 0 1-2.715 13.497 34.517 34.517 0 0 1-7.419 11.021 34.49 34.49 0 0 1-11.011 7.436 34.455 34.455 0 0 1-13.491 2.739l-.006-7.84a26.731 26.731 0 0 0 18.962-7.873 26.732 26.732 0 0 0 5.742-8.533 26.619 26.619 0 0 0 2.098-10.439l7.84-.008z" opacity="1"/><path fill="#A9CF3D" d="M603.295 244.142a49.813 49.813 0 0 1-3.918 19.48 50.03 50.03 0 0 1-10.709 15.912 49.85 49.85 0 0 1-4.635 4.101 50.002 50.002 0 0 1-11.258 6.632c-6.17 2.615-12.722 3.942-19.474 3.948l-.008-7.839a41.894 41.894 0 0 0 16.422-3.328 42.025 42.025 0 0 0 7.161-3.894 42.428 42.428 0 0 0 15.28-18.58c2.195-5.202 3.304-10.728 3.3-16.427l7.748-.006.091.001z" opacity="1"/></g></g></g><g clip-path="url(#A)" transform="translate(-220 -182)" style="display:block"><path fill="#128BA1" d="m36.764 380.551-2.08-15.902-30.869 3.402.207 34.057h50.965c4.085 0 5.71-5.283 2.332-7.58l-20.555-13.977z" transform="translate(960.003 540)" style="display:block"/><g style="display:block"><path fill="#A9CF3D" d="M1005.758 902.193c.046 5.609-4.465 10.193-10.073 10.238l-34.563.279c-5.61.045-10.194-4.466-10.239-10.075-.045-5.609 4.466-10.193 10.075-10.239l34.563-.278c5.609-.045 10.192 4.466 10.237 10.075z"/><path fill="#A9CF3C" d="M976.728 665.431c-12.385.1-22.339 10.093-22.24 22.327.003.42.017.842.046 1.263l5.64 181.546.994 31.983 34.927-.281.48-31.995 2.723-181.737c.015-.377.02-.754.016-1.14-.098-12.234-10.21-22.066-22.586-21.966zm-21.175 28.9c.209.639.444 1.26.706 1.87-.271-.61-.506-1.231-.706-1.87z"/></g><path fill="#A9CF3D" d="m44.966-5.887-1.134 45.655-1.882 75.328-.906 36.438c0 .387-.009.765-.027 1.143-.598 11.741-10.307 21.073-22.189 21.073-11.864 0-21.548-9.288-22.19-20.985l-.035-1.231v-.062l-.572-23.016-1.733-69.788-1.609-64.555c-.361-14.529 11.328-26.508 25.866-26.508h.536c14.538 0 26.227 11.979 25.875 26.508z" transform="rotate(-1.015 30692.372 -53674.466)" style="display:block"/><path fill="#128BA1" d="m-109.994 380.551 4.884-18.882 30.869 3.403-4.051 37.036h-49.924c-4.085 0-5.711-5.283-2.333-7.58l20.555-13.977z" transform="translate(960 540)" style="display:block"/><g style="display:block"><path fill="#A9CF3D" d="M894.228 670.874c-12.213-1.313-23.162 7.527-24.454 19.74-.056.417-.09.834-.105 1.26l-.01.074-3.458 41.365-1.04 12.45-1.746 20.844-1.476 17.647-5.695 68.055-.524 6.271-3.92 46.93 34.43 3.673 4.287-33.078 2.89-22.299 8.974-69.22 11.429-88.132c.056-.375.113-.751.149-1.127 1.303-12.213-7.538-23.16-19.73-24.453z"/><path fill="#A9CF3D" d="M895.655 909.203c-.411 5.594-5.28 9.796-10.875 9.384l-34.47-2.537c-5.594-.411-9.796-5.28-9.385-10.875.412-5.593 5.282-9.795 10.875-9.384l34.471 2.537c5.594.412 9.796 5.281 9.384 10.875z"/><path fill="url(#B)" d="m-55.456 245.321-10.079 69.068-37.135-2.091 6.782-67.955 1.758-17.621 2.08-20.814 36.594 39.413z" transform="rotate(-.916 34159.047 -59406.555)"/></g><g style="display:block"><path fill="#A9CF3D" d="m936 536.92-15.172 107.19-6.903 48.732c-.036.384-.1.76-.156 1.134-1.95 11.588-12.666 19.747-24.47 18.365-11.786-1.364-20.337-11.712-19.625-23.407l.117-1.22v-.067l4.274-46.988 2.052-22.55 3.925-43.089 4.025-44.127c1.326-14.482 14.32-25.027 28.756-23.345l.529.054c14.446 1.681 24.676 14.938 22.648 29.318z"/><path fill="url(#C)" d="m-19.377-2.107-15.864 107.089-44.542-26.288 4.203-43.063 4.31-44.101c1.42-14.473 14.482-24.933 28.907-23.158l.528.057C-27.4-29.796-17.256-16.474-19.377-2.107z" transform="rotate(-.37 83842.279 -147524.843)"/></g><path fill="#FECC25" d="m144.043-200.501 5.402-17.142a12.335 12.335 0 0 1 12.316-8.615l.096.004 7.48-21.851.03.034c2.14-2.445 3.954-.31 3.582 2.712l-1.477 19.936 6.609 10.159a12.334 12.334 0 0 1-2.917 14.786l-14.511 12.696" transform="rotate(-34.988 1471.78 -1377.484)" style="display:block"/><g style="display:block"><path fill="#A9CF3D" d="m884.339 535.058 66.01 19.253 49.956-27.175-2.538-37.162-112.853 7.709-.575 37.375z"/><path fill="#7DBF43" d="m949.867 504.012 34.027-2.324 2.395 29.587-14.904 13.73-19.02-10.127-2.498-30.866z"/><path fill="url(#D)" d="m-44.662-32.395 16.99 15.12 18.376-7.56L2.147-13.379l27.305-29.695-76.29-.216 2.176 10.895z" transform="rotate(-3.908 8335.224 -13741.822)"/></g><g style="display:block"><path fill="#B5E7E9" d="m889.582 497.364 24.069 21.772 27.67-25.46-51.739 3.688z"/><path fill="#FFF" d="m914.915 495.633 34.107 23.604 33.266-28.144-67.373 4.54z"/></g><path fill="#67CED1" d="M44.975-43.134H-68.146c.177-1.404.344-2.799.51-4.182 4.566-37.135 8.248-67.529 11.057-91.069 1.768-14.687 3.193-26.711 4.296-36.042 1.571-13.262 13.803-22.614 27.024-20.648l51.333 7.645s2.195 6.324 5.087 17.912a407.594 407.594 0 0 1 4.13 18.381c3.672 18.255 7.396 42.72 8.956 71.814.021.218.031.438.041.656l.031.645c.572 11.005.833 22.666.656 34.888z" transform="rotate(-3.908 8335.224 -13741.822)" style="display:block"/><g style="display:block"><path fill="url(#E)" d="M-26.039-94.197c0 24.174-18.162 44.104-41.597 46.881 4.566-37.135 8.248-67.529 11.057-91.069 17.85 6.74 30.54 23.977 30.54 44.188z" transform="rotate(-3.908 8335.224 -13741.822)"/><path fill="url(#F)" d="M13.465-133.97c0 9.636-7.812 17.448-17.448 17.448s-17.448-7.812-17.448-17.448 7.812-17.448 17.448-17.448 17.448 7.812 17.448 17.448z" transform="rotate(-3.908 8335.224 -13741.822)"/></g><g style="display:block"><path fill="#FAB028" d="m971.516 286.683 12.892-1.138c1.758-.156 2.767 1.957 1.54 3.227l-12.185 12.615"/><path fill="url(#G)" d="M34.506-240.548c0 16.717-13.557 30.274-30.274 30.274-11.873 0-22.151-6.843-27.123-16.796a30.175 30.175 0 0 1-3.151-13.478c0-16.727 13.557-30.274 30.274-30.274 4.844 0 9.422 1.133 13.478 3.151 9.953 4.962 16.796 15.24 16.796 27.123z" transform="rotate(-2.135 14874.152 -25219.47)"/><path fill="#FECC25" d="M961.288 281.854c.623 16.705-12.42 30.758-29.125 31.38-4.84.181-9.457-.78-13.586-2.646a30.175 30.175 0 0 1-3.65-13.351c-.624-16.716 12.42-30.758 29.124-31.381 4.841-.18 9.458.78 13.586 2.646a30.175 30.175 0 0 1 3.651 13.352z"/></g><path fill="#67CED1" d="M7.117-181.633c-9.133 8.591-9.004 23.143.278 31.572l71.662 65.08c6.673 6.358 17.093 6.584 24.035.52l.259-.226c7.393-6.458 8.177-17.676 1.755-25.1l-67.302-71.259c-8.141-8.619-21.723-9.02-30.358-.897l-.329.31z" transform="rotate(12.924 -1866.715 4268.295)" style="display:block"/><path fill="#67CED1" d="m166.849-189.895-23.446-15.014-66.386 96.156a17.82 17.82 0 0 0-.647.936l-.001.001c-5.365 8.379-2.922 19.52 5.457 24.885 8.379 5.365 19.52 2.923 24.885-5.456l.022-.037c.196-.308.379-.62.554-.935l59.562-100.536z" transform="rotate(-6.685 5251.83 -7760.369)" style="display:block"/><path fill="#FAAE28" d="M-79.106-63.609c11.314 7.297 14.57 22.383 7.273 33.697-7.297 11.314-22.383 14.571-33.697 7.274" transform="rotate(-3.908 8335.224 -13741.822)" style="display:block"/><path fill="#67CED1" d="m-71.284-184.647-53.378 34.263c-11.779 7.561-15.723 22.934-9.038 35.231l37.104 68.25 23.691-14.624L-97.5-123.68l46.25-24.769h26.005l1.739-46.361-.259-.038a69.131 69.131 0 0 0-47.519 10.201z" transform="rotate(-3.908 8335.224 -13741.822)" style="display:block"/></g><g style="display:block"><path fill="#FECC25" d="M1002.764 643.108v117H875.932v-117h126.832z"/><path fill="url(#H)" d="M224.136 285.108h113.377v117H224.136v-117z" transform="translate(740 358)"/><path fill="url(#I)" d="M417.763 126.108h-152.5v-70.67h152.5v70.67z" transform="translate(740 358)"/><path fill="url(#J)" d="M564.763 126.108h-169.87V78.637h169.87v47.471z" transform="translate(740 358)"/><path fill="url(#K)" d="m485.837 78.637 2.155 13.711 19.683 5.76 21.838-19.206-43.676-.265z" transform="translate(740 358)"/><path fill="#FECC25" d="M1207.894 484.108h-73v-47.471h73v47.471z"/><path fill="url(#L)" d="m265.263 55.438 59.25 70.67h42.583v-66.74l-101.833-3.93z" transform="translate(740 358)"/><path fill="url(#M)" d="M481.596 204.552h70.667v-78.444h-70.667v78.444z" transform="translate(740 358)"/><path fill="#FECC25" d="M1221.596 562.552h-200.333v-78.444h200.333v78.444z"/><path fill="url(#N)" d="M281.263 126.108v13.838l74 64.606h126.333v-78.444H281.263z" transform="translate(740 358)"/><path fill="url(#O)" d="M411.868 126.108v13.838l69.728 64.606v-78.444h-69.728z" transform="translate(740 358)"/><path fill="#FEED6A" d="M1160.763 562.548v197.56h-166.5v-197.56h166.5z"/><path fill="#FECC25" d="M1102.452 753.978c0 2.06-.069 4.11-.199 6.13h-107.99v-100.29c4.29-.6 8.68-.91 13.13-.91 52.5 0 95.06 42.56 95.06 95.07z"/><path fill="url(#P)" d="M602.763 204.548v109.56h-182v-109.56h182z" transform="translate(740 358)"/><path fill="#FECC25" d="M1292.263 672.108v88h-131.5v-88h131.5z"/><path fill="url(#Q)" d="M552.263 314.108h77.5v88h-77.5v-88z" transform="translate(740 358)"/><path fill="#FECC25" d="M1160.763 624.578v95.97c-25.39-1.28-45.58-22.28-45.58-47.98 0-25.7 20.19-46.71 45.58-47.99z"/><path fill="#F3752D" d="M1211.263 672.108h-50.5v-47.53c.81-.04 1.63-.06 2.459-.06 26.39 0 47.801 21.27 48.041 47.59z"/><path fill="#FEED6A" d="M1211.273 672.568c0 26.53-21.51 48.04-48.051 48.04-.83 0-1.649-.02-2.459-.06v-48.44h50.5c.01.15.01.31.01.46z"/></g><path fill="#F5892B" d="M464.91-29.453c-9.024 22.39-23.786 28.59-23.786 28.59l.235-31.17.101-14.56.246-32.77 27.793-18c2.394 15.7 2.731 28.971 1.747 40.141-1.011 11.26-3.356 20.389-6.336 27.769z" transform="translate(740 358)" style="display:block"/><path fill="#F5892B" d="M452.498 78.637h-16c-4.254-7.91-4.892-21.35-3.941-35.4 1.72-25.44 8.63-52.85 8.63-52.85l19.655-21.75c8.794 22.06 7.739 47.07 4.035 67.66-4.355 24.23-12.379 42.34-12.379 42.34z" transform="translate(740 358)" style="display:block"/><path fill="#F5892B" d="M423.227 78.637s6.699-22.167 49.333 0h-49.333z" transform="translate(740 358)" style="display:block"/><g style="display:block"><path fill="#FAAE28" d="M972.364 403.994c-12.79 24.158-28.638 42.53-43.302 55.995-10.063 9.235-19.57 16.156-27.143 21.062-4.94 3.2-10.934-2.187-8.29-7.449l40.374-80.311 38.361 10.703z"/><path fill="url(#R)" d="M227.865 44.844c-14.064 23.439-30.872 40.937-46.235 53.598-8.498-8.234-13.016-17.05-15.376-24.571l23.877-41.767 37.734 12.74z" transform="rotate(-3.066 7309.672 -13684.151)"/><path fill="url(#S)" d="M274.027-27.07c6.532-12.285 1.869-27.539-10.416-34.071-12.285-6.532-27.539-1.868-34.071 10.417l-50.705 95.362 38.118 20.268 55.345-89.19a25.365 25.365 0 0 0 1.729-2.786z" transform="rotate(-3.066 7309.672 -13684.151)"/><g><path stroke-linecap="round" stroke-linejoin="round" stroke="#1D9BAC" stroke-width="20" d="m926.429 399.882 38.45 20.47" fill="none"/></g></g><g style="display:block"><path fill="#7DBF43" d="m886.14 497.951-36.748-13.937c-2.518-.955-2.75-4.426-.382-5.708l4.708-2.55a72.474 72.474 0 0 1 60.216-4.04l.314.12-6.158 16.236c-3.333 8.79-13.161 13.213-21.95 9.88z"/><path fill="#7DBF43" d="M896.469 480.483c-10.041 4.52-21.845.043-26.364-9.999l-.165-.367c-4.52-10.041-.042-21.845 10-26.364"/></g><g style="display:block"><path fill="#FECC25" d="M991.772 447.603c-.044 30.307-6.08 56.52-13.494 77.31-5.09 14.263-10.83 25.968-15.72 34.696-3.189 5.693-11.854 3.513-11.982-3.015l-1.957-99.641 43.153-9.35z"/><path fill="url(#T)" d="M250.472 89.971c-.64 30.3-7.19 56.39-15.01 77.03-12.71-3.25-21.909-9.25-28.319-15.19v-53.34l43.329-8.5z" transform="rotate(-1.126 18825.688 -37465.676)"/><path fill="#2EB3BB" d="M1001.373 381.064c-.314-16-13.539-28.715-29.538-28.4-15.998.314-28.714 13.54-28.4 29.538l1.817 92.457 47.324-.93 8.697-89.605c.084-1.007.12-2.027.1-3.06z"/><path fill="#2EB3BB" d="M1002.29 465.296c.245 5.603-3.818 10.333-9.075 10.563l-48.093 2.25c-5.257.23-9.719-4.128-9.963-9.731-.245-5.604 3.82-10.334 9.077-10.564l48.092-2.249c5.258-.23 9.718 4.127 9.963 9.73z"/></g><g style="display:block"><path fill="#2EB3BB" d="m1177.763 352.827-28.43 41.511a52.361 52.361 0 0 1-44.01 22.77c-22.64-.35-44.08-1.08-63.51-1.99-29.72-1.38-54.73-3.17-72.09-4.58-14.86-1.21-26.29-13.631-26.29-28.531v-.56c0-15.81 12.81-28.62 28.62-28.62h205.71z"/><path fill="url(#U)" d="m437.763-5.173-28.43 41.511a52.361 52.361 0 0 1-44.01 22.77c-22.64-.35-44.08-1.08-63.51-1.99-33.05-24.75-50.251-59.601-51.551-62.291h187.501z" transform="translate(740 358)"/></g><g style="display:block"><path fill="#26A7B3" d="M1155.753 384.968c-12.95 22.34-29.841 31.57-48.271 32.4-15.55.7-32.21-4.58-48.54-13-34.49-17.77-67.49-49.54-85.53-68.58-8.34-8.79-9-22.35-1.6-31.95l.25-.331c7.22-9.37 20.09-12.28 30.64-6.94l40.38 20.451 59.36 30.07.01.01 11.31 5.729 41.99 32.141z"/><path fill="#2EB3BB" d="M1058.942 404.368c-34.49-17.77-67.49-49.54-85.53-68.58-8.34-8.79-9-22.35-1.6-31.95l.25-.331c7.22-9.37 20.09-12.28 30.64-6.94l40.38 20.451 15.86 87.35z"/><path fill="url(#V)" d="M415.753 26.968c-12.95 22.34-29.841 31.57-48.271 32.4 17.89-33.24-4.53-69.46-5.03-70.27l11.311 5.729 41.99 32.141z" transform="translate(740 358)"/></g><g style="display:block"><path fill="#A9CF3D" d="m957.497 583.875-38.939 5.324c-2.667.364-4.531-2.573-3.065-4.831l2.917-4.49a72.47 72.47 0 0 1 50.962-32.33l.332-.046 2.351 17.205c1.273 9.313-5.244 17.895-14.558 19.168z"/><path fill="#A9CF3D" d="M958.22 563.595c-6.659 8.77-19.167 10.48-27.936 3.82l-.32-.245c-8.77-6.66-10.48-19.167-3.82-27.936"/></g><g style="display:block"><path fill="#A9CF3D" d="m1221.942 270.317-.2.62a268.604 268.604 0 0 1-10.709 27.621c-.23.54-.47 1.08-.72 1.61-5.18 11.34-11.14 22.329-17.79 32.909a486.1 486.1 0 0 0-6.97 11.43l-.11.186a107.558 107.558 0 0 0-8.386 17.621c-8.997 24.375-29.294 56.464-29.294 56.464-16-6.34-20.331-35.67-20.331-35.67-.68-6.06-3.129-12.56-5.769-18.11-3.76-7.91-7.9-13.89-7.9-13.89 5-6 15-16 15-16 2.52-4.11 5.19-9.461 7.3-13.981h.01c2.35-5.04 4.02-9.019 4.02-9.019-2.66-3.71-4.27-7.91-5.2-12.01-.19-.84-.35-1.68-.49-2.51-.75-4.5-.13-9.01 1.63-13.03l.3-.66a23.75 23.75 0 0 1 8.659-9.88 196.165 196.165 0 0 0 9.057-6.212c10.042-7.284 19.085-15.824 27.292-25.127 19.192-21.756 30.646-15.164 37.101-4.602 5.9 9.65 7 21.49 3.5 32.24z"/><path fill="url(#W)" d="M428.843-61.142c-8.8 14.56-32.17 24.019-32.77 24.269 2.35-5.04 4.02-9.019 4.02-9.019-2.66-3.71-4.27-7.91-5.2-12.01l.01-.021c12.13 10.47 33.94-3.219 33.94-3.219z" transform="translate(740 358)"/><path fill="url(#X)" d="M471.033-59.442c-.23.54-.47 1.08-.72 1.61-5.18 11.34-11.14 22.329-17.79 32.909a486.1 486.1 0 0 0-6.97 11.43l-.11.186a107.558 107.558 0 0 0-8.386 17.621c-8.997 24.375-29.294 56.464-29.294 56.464-16-6.34-20.331-35.67-20.331-35.67-.68-6.06-3.129-12.56-5.769-18.11 0 0 71.43-23.221 73.1-88.561l16.27 22.121z" transform="translate(740 358)"/></g><g style="display:block"><path fill="#FECC25" d="m1130.89 196.342-10.06 2.4c-1.66.396-1.909 2.655-.374 3.403l13.267 6.463"/><path fill="url(#Y)" d="M472.093-195.722c0 10.95-8.88 19.83-19.83 19.83-10.95 0-19.831-8.88-19.831-19.83 0-2.65.521-5.19 1.471-7.5 2.95-7.24 10.06-12.341 18.36-12.341 8.3 0 15.409 5.101 18.359 12.341a19.7 19.7 0 0 1 1.471 7.5z" transform="translate(740 358)"/><path fill="#D65B2B" d="M1210.622 154.778c-2.96 7.23-10.069 12.33-18.359 12.33-8.29 0-15.4-5.1-18.36-12.33 2.95-7.24 10.06-12.341 18.36-12.341 8.3 0 15.41 5.101 18.36 12.341z"/><path fill="#FECC25" d="M1194.102 192.608c0 17.949-14.55 32.5-32.5 32.5-17.949 0-32.5-14.551-32.5-32.5 0-17.949 14.551-32.5 32.5-32.5 17.95 0 32.5 14.551 32.5 32.5z"/><path fill="url(#Z)" d="M454.103-165.392c0 17.95-14.55 32.5-32.5 32.5-12.17 0-22.77-6.68-28.34-16.58a32.307 32.307 0 0 1-4.16-15.92c0-17.95 14.55-32.5 32.5-32.5 5.79 0 11.22 1.51 15.92 4.16 9.9 5.57 16.58 16.17 16.58 28.34z" transform="translate(740 358)"/><path fill="#FECC25" d="M1181.682 180.187c0 17.95-14.55 32.5-32.5 32.5a32.303 32.303 0 0 1-15.919-4.159 32.307 32.307 0 0 1-4.16-15.92c0-17.95 14.55-32.5 32.5-32.5 5.79 0 11.22 1.51 15.92 4.16a32.303 32.303 0 0 1 4.16 15.919z"/><path stroke-miterlimit="10" stroke="#231F20" stroke-width="1.5" d="m1120.442 179.801 2.391 21.613" fill="none"/><path stroke="url(#aa)" stroke-miterlimit="10" stroke-width="1.5" d="m389.655-159.412 11.054-3.825a60.632 60.632 0 0 1 31.558-2.187l.162.032" fill="none" transform="translate(740 358)"/><path stroke-miterlimit="10" stroke="#231F20" stroke-width="1.5" d="m1121.526 189.597 34.422-4.344a17.4 17.4 0 0 1 16.42 7.268l.061.087" fill="none"/><g><path stroke-miterlimit="10" stroke="#231F20" stroke-width="1.5" d="m1201.201 171.211 15.927 15.927" fill="none"/></g><g><path stroke-miterlimit="10" stroke="#231F20" stroke-width="1.5" d="m1167.397 137.407 15.928 15.928" fill="none"/></g></g><g style="display:block"><path fill="#FECC25" d="M1235.643 326.518c-2.44 22.39-15.38 28.59-15.38 28.59l-8.93-31.171-4.18-14.56-9.39-32.769 22.5-18c7.01 15.7 11.25 28.97 13.55 40.14 2.3 11.26 2.64 20.39 1.83 27.77z"/><path fill="url(#ab)" d="M495.643-31.482c-11.22 2.11-19.83-.571-24.31-2.581l-4.18-14.56 26.66-10.629c2.3 11.26 2.64 20.39 1.83 27.77z" transform="translate(740 358)"/><path fill="#A9CF3D" d="M1233.715 298.327s-2.409-47.718-21.681-67.469c0 0-6.518-5.939-16.885-.681-9.785 4.963-14.761 16.084-12.561 26.833 2.602 12.716 8.464 33.193 21.498 55.905l29.629-14.588z"/><path stroke-linecap="round" stroke-linejoin="round" stroke="#7DBF43" stroke-width="20" d="m1204.086 312.915 29.629-14.588" fill="none"/></g><path fill="#FECC25" d="M515.013 76.608h-16c-6.58-7.91-11.17-21.35-14.35-35.4-5.76-25.44-6.91-52.85-6.91-52.85l13.26-21.75c15.28 22.06 21.579 47.07 23.929 67.66 2.77 24.23.071 42.34.071 42.34z" transform="translate(740 358)" style="display:block"/><g style="display:block"><path fill="#FECC25" d="M1286.383 432.168v.05a4.413 4.413 0 0 1-4.411 4.419h-46.129l-.891 6.971a7.733 7.733 0 0 1-6.96 6.74l-.06.01-2.049-11.31c-.44-2.45.299-4.98 2.049-6.75 3.26-3.29 9.501-7.5 18.661-5.02 0 0 9.48-11.29 39.79 4.89z"/><path fill="url(#ac)" d="M516.593 78.637h-20.75s5.59-11.23 20.75 0z" transform="translate(740 358)"/></g><g style="display:block"><path fill="#FECC25" d="M333.224 432.6c-1.802 9.668 33.208 16.194 35.01 6.526 1.802-9.668-4.574-18.966-14.242-20.768-9.668-1.802-18.966 4.574-20.768 14.242z"/><path fill="#FECC25" d="m350.333 471.623-23.565-4.392 6.456-34.63 23.564 4.392-6.455 34.63z"/></g><path fill="#7DBF43" d="m-382.449 93.238-31.304-4.581-21.09 113.351c-.088.42-.169.843-.232 1.273v.001c-1.637 11.187 6.104 21.582 17.291 23.219 11.187 1.637 21.583-6.104 23.22-17.291l.005-.048c.059-.41.103-.82.137-1.228l11.973-114.696z" transform="translate(739.998 357.996)" style="display:block"/><path fill="#A9CF3D" d="M-460.253 79.1c-13.584 4.298-20.623 19.261-15.271 32.466l41.322 101.948c3.701 9.799 14.259 15.162 24.355 12.373l.377-.104c10.752-2.971 17.082-14.071 14.163-24.837L-429.119 94.82c-4.09-12.837-17.8-19.939-30.645-15.875l-.489.155z" transform="translate(739.998 357.996)" style="display:block"/><path fill="#7DBF43" d="m-252.389 355.104 28.307 42.184 49.424-48.59c3.688-2.68 1.834-8.514-2.725-8.571l-34.885 9.065-10.083-15.025" transform="translate(739.998 357.996)" style="display:block"/><g style="display:block"><path fill="#1D9BAC" d="m416.604 544.538.103.582c2.826 16.025-7.62 31.391-23.555 34.663l-122.67 25.186-65.492 13.44c-19.5 3.992-38.468-8.887-41.925-28.494l-.129-.727c-3.457-19.607 9.962-38.196 29.654-41.103l155.206-22.926 34.817-5.147c16.093-2.376 31.163 8.49 33.99 24.526z"/><path stroke-miterlimit="10" stroke="#FFF" stroke-width=".5" d="M204.822 582.18a6.746 6.746 0 1 1-13.285 2.34 6.746 6.746 0 0 1 13.285-2.34zM197.008 576.708l2.343 13.286M204.822 582.18l-13.286 2.342" fill="none"/></g><g style="display:block"><path fill="#2EB3BB" d="m415.605 559.72-.005.022a30.135 30.135 0 0 1-3.082 6.566c-8.906 14.257-27.679 18.583-41.935 9.677a30.331 30.331 0 0 1-5.963-4.875 6.408 6.408 0 0 1-.383-.41l-.124-.14-1.705-2.068c-7.365-9.755-8.374-23.437-1.503-34.43 3.8-6.091 9.41-10.361 15.688-12.58 8.424-2.957 18.072-2.205 26.236 2.9a30.168 30.168 0 0 1 8.175 7.493l1.597 2.325.027.04a30.467 30.467 0 0 1 3.55 8.412 30.205 30.205 0 0 1-.573 17.067z"/><path fill="#2EB3BB" d="m519.743 690.04-35.262 26.567-71.23-86.417-48.642-59.024-.372-.466-.124-.14-1.705-2.068 3.474-2.624 45.122-33.993 1.597 2.325.027.04 3.654 5.318 103.46 150.482z"/><path fill="#1D9BAC" d="M528.15 684.155c3.296 4.538 2.518 10.725-1.74 13.818l-36.838 26.951c-4.258 3.093-10.383 1.922-13.68-2.616-3.297-4.538-2.444-10.624 1.813-13.717l36.84-26.95c4.257-3.093 10.307-2.023 13.604 2.514z"/></g><path fill="#A9CF3D" d="M-468.463 163.321a126.397 126.397 0 0 0-.068 24.113c.807 8.591 2.353 17.251 4.83 25.83.364 1.273.75 2.545 1.159 3.806l-75.261 8.921-19.864 2.363-19.784 2.341s-2.522-38.523 12.671-80.386c.011-.034.023-.057.034-.091 2-5.523 4.318-11.102 6.988-16.647 8.364-17.398 20.193-34.58 36.932-49.057 24.42-21.125 61.317-21.075 85.533.277 0 0-1.522 2.405-3.738 5.303-7.818 10.204-25.853 37.215-29.432 73.215v.012zM-384.273 351.342l-1.894 50.766 66.407-6.59c4.559 0 6.487-5.808 2.833-8.534l-31.413-16.843.675-18.082" transform="translate(739.998 357.996)" style="display:block"/><g style="display:block"><path fill="#67CED1" d="m389.57 545.979-109.033 43.158-69.568 27.547c-18.51 7.33-39.42-2.069-46.227-20.773l-.25-.693c-6.807-18.705 3.17-39.34 22.057-45.625l93.988-31.273 88.272-29.364c15.443-5.136 32.17 2.944 37.738 18.238l.205.556c5.569 15.295-2.056 32.24-17.181 38.229z"/><path fill="#2EB3BB" d="M280.537 518.32v70.817l-69.568 27.547c-18.51 7.33-39.42-2.069-46.227-20.773l-.25-.693c-6.807-18.704 3.17-39.34 22.057-45.625l93.988-31.273z"/></g><g style="display:block"><path fill="#67CED1" d="M408.503 518.49c-.01.88-.06 1.76-.16 2.63-1.17 11.2-8.55 21.31-19.85 25.42-4.12 1.5-8.36 2.06-12.47 1.77-11.63-.8-22.28-8.29-26.53-19.95-1-2.74-1.58-5.53-1.76-8.31-.07-.88-.09-1.76-.07-2.63.21-12.23 7.84-23.63 20.02-28.06 11.31-4.11 23.49-1.1 31.59 6.75 3.21 3.1 5.77 6.96 7.4 11.44 1.32 3.61 1.9 7.31 1.83 10.94z"/><path fill="#67CED1" d="m408.503 518.49-.16 2.63-3.67 60.08-7.859 128.86-44.14-.77-4.941-189.24-.07-2.63 31.28.55 29.56.52z"/><g><path fill="#2EB3BB" d="M407.909 709.488c0 5.61-4.266 10.158-9.528 10.158l-45.645.15c-5.262 0-9.53-4.548-9.53-10.157s4.268-10.032 9.53-10.032l45.645-.15c5.262 0 9.528 4.423 9.528 10.031z"/></g></g><path fill="url(#ad)" d="M-331.497 160.491c-.01.88-.06 1.76-.16 2.63l-3.67 60.08c-14.21-5.54-25.06-17.81-28.65-32.89a47.28 47.28 0 0 1-1.27-10.91c0-6.93 1.5-13.51 4.19-19.43a47.256 47.256 0 0 1 20.33-21.86c3.21 3.1 5.77 6.96 7.4 11.44 1.32 3.61 1.9 7.31 1.83 10.94z" transform="translate(739.998 357.996)" style="display:block"/><g style="display:block"><path fill="url(#ae)" d="m-468.454 163.312-20.554 26.324-1.903 33.039-42.415-13.559 35.511-43.466 29.361-2.338z" transform="translate(739.998 357.996)"/><path fill="#B5E7E9" d="m249.089 532.842-18.803 64.387-58.344-33.53 77.147-30.857z"/></g><path fill="#FAB028" d="m-402.496 28.98 14.687-.746c2.004-.102 3.06 2.338 1.613 3.728l-14.372 13.811" transform="translate(739.998 357.995)" style="display:block"/><path stroke-miterlimit="10" stroke="#231F20" stroke-width="1.5" d="M-395.042 24.95c1.804 5.801 1.181 11.152-1.39 11.951-2.571.799-6.117-3.255-7.921-9.056-1.804-5.801-1.181-11.153 1.39-11.952 2.571-.799 6.117 3.256 7.921 9.057z" fill="none" transform="translate(739.998 357.995)" style="display:block"/><g style="display:block"><path fill="url(#af)" d="M-398.401 38.569c0 18.997-15.405 34.402-34.402 34.402-13.492 0-25.172-7.775-30.822-19.086a34.293 34.293 0 0 1-3.58-15.316c0-19.008 15.405-34.402 34.402-34.402a34.293 34.293 0 0 1 15.316 3.58c11.311 5.639 19.086 17.318 19.086 30.822z" transform="translate(739.998 357.995)"/><path fill="#FECC25" d="M326.091 381.062c0 18.997-15.404 34.402-34.401 34.402a34.293 34.293 0 0 1-15.316-3.58 34.293 34.293 0 0 1-3.58-15.315c0-19.008 15.404-34.403 34.401-34.403a34.293 34.293 0 0 1 15.316 3.58 34.293 34.293 0 0 1 3.58 15.316z"/></g><path stroke-miterlimit="10" stroke="#231F20" stroke-width="1.5" d="m-395.38 23.942-25.586 12.563a19.61 19.61 0 0 0-10.764 14.786l-.015.104" fill="none" transform="translate(739.998 357.995)" style="display:block"/><path fill="#A9CF3D" d="M-468.463 163.309v.012l-69.34 62.67-14.648 13.238-22.329-2.466-8.546-.943s5.671-52.738 18.546-85.511c.011-.034.023-.057.034-.091h58.238l38.045 13.091z" transform="translate(739.998 357.996)" style="display:block"/><path fill="url(#ag)" d="M-533.326 180.991c0 19.511-9.602 36.795-24.341 47.363a57.88 57.88 0 0 1-17.113 8.409l-8.546-.943s5.671-52.738 18.546-85.511c.011-.034.023-.057.034-.091 2-5.523 4.318-11.102 6.988-16.647a58.413 58.413 0 0 1 15.637 16.647c5.579 8.932 8.795 19.478 8.795 30.773z" transform="translate(739.998 357.996)" style="display:block"/><path fill="url(#ah)" d="M-490.911 139.991c0 8.822-7.152 15.973-15.974 15.973s-15.973-7.151-15.973-15.973c0-8.822 7.151-15.973 15.973-15.973 8.822 0 15.974 7.151 15.974 15.973z" transform="translate(739.998 357.996)" style="display:block"/><path fill="url(#ai)" d="m-464.374 139.991-7.868-19.399s-16.352 16.841-9.345 54.25l12.747-11.521 4.466-23.33z" transform="translate(739.998 357.996)" style="display:block"/><g style="display:block"><path fill="#FECC25" d="M181.674 759.367H122.24v-60.908h59.434v60.908z"/><path fill="#FEED6A" d="M122.24 698.459H68.411v60.908h53.829v-60.908z"/><path fill="url(#aj)" d="M-572.089 340.459h-32.105v-39.91h32.105v39.91z" transform="translate(740 358)"/><path fill="#FECC25" d="M135.806 658.549h-34.511v39.91h34.511v-39.91z"/><path fill="url(#ak)" d="M-420.258 401.367h-70.653v-143.24h70.653v143.24z" transform="translate(740 358)"/><path fill="#FEED6A" d="M249.089 616.127h-94.832v143.24h94.832v-143.24z"/></g><g style="display:block"><path fill="#7DBF43" d="m1332.004 633.402-.363.155c-9.873 4.204-21.294-.398-25.497-10.27l-12.868-30.232 4.953-6.727-8.28-1.105-9.025-21.196-7.686-18.055c-4.203-9.873.398-21.294 10.278-25.497l.358-.155c.096-.041.185-.083.281-.11 9.81-4.004 21.052.604 25.222 10.381l32.9 77.314c4.203 9.873-.393 21.294-10.273 25.497z"/><path fill="url(#al)" d="M558.363 183.932c0 10.925-7.647 20.067-17.872 22.371l-7.763-18.023c-4.245-9.855.308-21.295 10.17-25.54l.357-.157c.096-.041.185-.083.281-.11 8.662 3.271 14.827 11.645 14.827 21.459z" transform="rotate(.243 -83339.232 174767.822)"/><path fill="url(#am)" d="M579.255 206.867a5.939 5.939 0 1 1-11.877-.001 5.939 5.939 0 0 1 11.877.001z" transform="rotate(.243 -83339.232 174767.822)"/><path stroke-miterlimit="10" stroke="#448048" stroke-width="1.5" d="m1300.782 560.546 54.68 128.472" fill="none"/></g><g style="display:block"><path stroke-miterlimit="10" stroke="#448048" stroke-width="1.5" d="M1365.066 671.293s-2.917-87.43-38.912-193.42" fill="none"/><path fill="#44B148" d="M1342.793 479.836a5.536 5.536 0 1 1-11.072-.003 5.536 5.536 0 0 1 11.072.003z"/><path fill="#7DBF43" d="M1347.45 494.441a5.536 5.536 0 1 1-11.072 0 5.536 5.536 0 0 1 11.073 0z"/><path fill="#44B148" d="M1352.197 509.016a5.536 5.536 0 1 1-11.074-.003 5.536 5.536 0 0 1 11.074.003z"/><path fill="#7DBF43" d="M1324.457 488.9a5.536 5.536 0 0 1-11.073-.004 5.536 5.536 0 1 1 11.073.003z"/><path fill="#44B148" d="M1329.24 503.474a5.536 5.536 0 1 1-11.074-.003 5.536 5.536 0 0 1 11.073.003z"/><path fill="#7DBF43" d="M1333.985 518.35a5.536 5.536 0 1 1-11.074-.003 5.536 5.536 0 0 1 11.074.003z"/></g><g style="display:block"><path fill="#7DBF43" d="m1420.165 460.126-3.39 35.502-11.371 4.879 10.146 7.98-1.942 20.34-4.973 51.97-.971 10.135c-1.164 12.165-12.21 21.145-24.327 19.563l-.44-.062c-12.117-1.582-20.479-13.108-18.478-25.17l21.505-129.506c1.506-9.094 9.937-15.241 19.072-14.051l.336.048c9.141 1.19 15.722 9.19 14.833 18.372z"/><path fill="url(#an)" d="m673.552 170.812-4.952 51.971c-.219.007-.439.007-.658.007-14.518 0-26.294-11.768-26.294-26.287 0-14.519 11.776-26.294 26.294-26.294 1.927 0 3.799.205 5.61.603z" transform="rotate(.02 -876275.173 1813594.055)"/><path stroke-miterlimit="10" stroke="#448048" stroke-width="1.5" d="m1400.78 478.562-27.98 214.16" fill="none"/></g><g style="display:block"><path fill="#7DBF43" d="m1415.97 628.688-.21-.32c-5.45-8.309-2.158-19.523 6.92-23.566l34.02-15.152a10.16 10.16 0 0 1 12.629 3.708l.095.147a10.16 10.16 0 0 1-1.63 13.061l-27.452 25.164c-7.325 6.716-18.922 5.268-24.372-3.042z"/><path stroke-miterlimit="10" stroke="#448048" stroke-width="1.5" d="m1452.958 604.2-75.022 49.205" fill="none"/></g><g style="display:block"><path fill="#D65B2B" d="M1396.261 672.122a9.296 9.296 0 0 1-9.297 9.297 9.298 9.298 0 1 1 9.297-9.297zM1413.32 672.122a7.448 7.448 0 0 1-7.449 7.448 7.448 7.448 0 1 1 0-14.897 7.449 7.449 0 0 1 7.449 7.449zM1355.09 672.122c0 7.297-5.917 13.213-13.214 13.213-7.297 0-13.213-5.916-13.213-13.213 0-7.297 5.916-13.213 13.213-13.213 7.297 0 13.214 5.916 13.214 13.213z"/><path fill="#D65B2B" d="M1388.16 678.667c0 10.3-8.35 18.649-18.65 18.649-10.3 0-18.649-8.349-18.649-18.649s8.349-18.65 18.649-18.65 18.65 8.35 18.65 18.65z"/><path fill="url(#ao)" d="M666.952 402.108h-68.28c-22.72-47.56-15.569-87.99-15.569-87.99h99.42s7.149 40.43-15.571 87.99z" transform="translate(740 358)"/><path fill="url(#ap)" d="M666.952 402.108h-68.28c-22.72-47.56-15.569-87.99-15.569-87.99h14.18c.75 15.67 14.872 71.99 69.669 87.99z" transform="translate(740 358)"/></g></g></svg>