 <svg xmlns="http://www.w3.org/2000/svg" viewBox="0 0 265 307" width="265" height="307" preserveAspectRatio="xMidYMid meet" style="width: 100%; height: 100%; transform: translate3d(0px, 0px, 0px);"><defs><clipPath id="animationMask_1dRKk6CrMS"><rect width="265" height="307" x="0" y="0"></rect></clipPath></defs><g clip-path="url(#animationMask_1dRKk6CrMS)"><g transform="matrix(0.9872521758079529,0,0,1.012912392616272,149.78915405273438,219.74107360839844)" opacity="1" style="display: block;"><g opacity="1" transform="matrix(1,0,0,1,0,0)"><path fill="rgb(255,72,48)" fill-opacity="1" d=" M27.617000579833984,-207.83299255371094 C27.617000579833984,-207.83299255371094 -60.69599914550781,-207.83299255371094 -60.69599914550781,-207.83299255371094 C-63.07400131225586,-207.83299255371094 -65.0009994506836,-205.906005859375 -65.0009994506836,-203.5279998779297 C-65.0009994506836,-203.5279998779297 -65.0009994506836,-145.6840057373047 -65.0009994506836,-145.6840057373047 C-65.0009994506836,-143.30599975585938 -63.07400131225586,-141.37899780273438 -60.69599914550781,-141.37899780273438 C-60.69599914550781,-141.37899780273438 -30.88599967956543,-141.37899780273438 -30.88599967956543,-141.37899780273438 C-30.88599967956543,-141.37899780273438 -16.538999557495117,-123.33300018310547 -16.538999557495117,-123.33300018310547 C-16.538999557495117,-123.33300018310547 -2.191999912261963,-141.37899780273438 -2.191999912261963,-141.37899780273438 C-2.191999912261963,-141.37899780273438 27.617000579833984,-141.37899780273438 27.617000579833984,-141.37899780273438 C29.9950008392334,-141.37899780273438 31.92300033569336,-143.30599975585938 31.92300033569336,-145.6840057373047 C31.92300033569336,-145.6840057373047 31.92300033569336,-203.5279998779297 31.92300033569336,-203.5279998779297 C31.92300033569336,-205.906005859375 29.9950008392334,-207.83299255371094 27.617000579833984,-207.83299255371094z"></path></g></g><g style="display: block;" transform="matrix(0.9856695532798767,0,0,1.0112886428833008,149.7629852294922,219.4750518798828)" opacity="1"><g opacity="1" transform="matrix(1,0,0,1,0,0)"><path fill="rgb(255,255,255)" fill-opacity="1" d=" M3.36299991607666,-163.82400512695312 C-0.6069999933242798,-156.95799255371094 -8.039999961853027,-152.3350067138672 -16.538999557495117,-152.3350067138672 C-25.038000106811523,-152.3350067138672 -32.47100067138672,-156.95799255371094 -36.441001892089844,-163.82400512695312 C-32.47100067138672,-170.69900512695312 -25.04599952697754,-175.32200622558594 -16.538999557495117,-175.32200622558594 C-8.031999588012695,-175.32200622558594 -0.6069999933242798,-170.69900512695312 3.36299991607666,-163.82400512695312z"></path></g></g><g style="display: block;" transform="matrix(0.9866587519645691,0,0,1.0123034715652466,149.77935791015625,220.92088317871094)" opacity="1"><g opacity="1" transform="matrix(1,0,0,1,0,0)"><path fill="rgb(255,255,255)" fill-opacity="1" d=" M-8.59000015258789,-187.9969940185547 C-8.59000015258789,-183.60699462890625 -12.14900016784668,-180.04800415039062 -16.538999557495117,-180.04800415039062 C-20.929000854492188,-180.04800415039062 -24.488000869750977,-183.60699462890625 -24.488000869750977,-187.9969940185547 C-24.488000869750977,-192.38699340820312 -20.929000854492188,-195.9459991455078 -16.538999557495117,-195.9459991455078 C-12.14900016784668,-195.9459991455078 -8.59000015258789,-192.38699340820312 -8.59000015258789,-187.9969940185547z"></path></g></g><g transform="matrix(1,0,0,1,-810,-320.8202209472656)" opacity="1" style="display: block;"><g opacity="1" transform="matrix(1,0,0,1,960,540)"><g opacity="1" transform="matrix(1,0,0,1,0,0)"><path fill="rgb(214,91,43)" fill-opacity="1" d=" M-17.774999618530273,-40.729000091552734 C-17.774999618530273,-40.729000091552734 44.66600036621094,57.73699951171875 66.40499877929688,4.331999778747559 C66.40499877929688,4.331999778747559 46.05400085449219,-33.57899856567383 46.05400085449219,-33.57899856567383 C46.05400085449219,-33.57899856567383 -17.774999618530273,-40.729000091552734 -17.774999618530273,-40.729000091552734z"></path></g></g><g opacity="1" transform="matrix(1,0,0,1,960,540)"><g opacity="1" transform="matrix(1,0,0,1,0,0)"><path fill="rgb(254,204,37)" fill-opacity="1" d=" M59.93000030517578,33.191001892089844 C59.93000030517578,33.191001892089844 59.93899917602539,33.20100021362305 59.93899917602539,33.20100021362305 C59.994998931884766,33.33000183105469 60.53099822998047,34.43000030517578 61.04899978637695,36.11399841308594 C61.04899978637695,36.11399841308594 61.04899978637695,36.124000549316406 61.04899978637695,36.124000549316406 C61.678001403808594,38.167999267578125 62.279998779296875,41.05400085449219 61.99300003051758,44.07899856567383 C61.457000732421875,49.619998931884766 57.922000885009766,55.59600067138672 46.05400085449219,57.612998962402344 C46.05400085449219,57.612998962402344 46.05400085449219,58.222999572753906 46.05400085449219,58.222999572753906 C45.999000549316406,59.777000427246094 45.53499984741211,63.994998931884766 42.27000045776367,67.49199676513672 C39.22700119018555,70.76699829101562 33.733001708984375,73.40399932861328 23.85300064086914,72.6729965209961 C23.85300064086914,72.6729965209961 23.73200035095215,73.04299926757812 23.73200035095215,73.04299926757812 C23.305999755859375,74.13500213623047 21.707000732421875,77.41799926757812 16.94300079345703,79.47200012207031 C8.284000396728516,83.19100189208984 -10.817999839782715,82.82099914550781 -52.20500183105469,57.650001525878906 C-76.76499938964844,42.720001220703125 -94.75700378417969,18.77899932861328 -101.427001953125,-9.1850004196167 C-101.61199951171875,-9.961999893188477 -101.78800201416016,-10.739999771118164 -101.95500183105469,-11.517000198364258 C-101.95500183105469,-11.517000198364258 -131.55599975585938,-35.49399948120117 -131.55599975585938,-35.49399948120117 C-131.55599975585938,-35.49399948120117 -75.12799835205078,-89.42400360107422 -75.12799835205078,-89.42400360107422 C-75.12799835205078,-89.42400360107422 -51.07699966430664,-81.24700164794922 -51.07699966430664,-81.24700164794922 C-51.07699966430664,-81.24700164794922 21.07699966430664,-73.4489974975586 21.07699966430664,-73.4489974975586 C21.07699966430664,-73.4489974975586 -17.774999618530273,-40.72999954223633 -17.774999618530273,-40.72999954223633 C-17.774999618530273,-40.72999954223633 -12.29800033569336,-34.09700012207031 -3.8989999294281006,-25.679000854492188 C-3.8989999294281006,-25.679000854492188 -3.8989999294281006,-25.679000854492188 -3.890000104904175,-25.679000854492188 C6.164999961853027,-15.604999542236328 20.410999298095703,-2.9779999256134033 34.48099899291992,3.8580000400543213 C46.0629997253418,9.491999626159668 57.525001525878906,11.20300006866455 66.40499877929688,4.329999923706055 C66.40499877929688,4.329999923706055 85.83100128173828,27.79800033569336 59.93000030517578,33.191001892089844z"></path></g></g><g opacity="1" transform="matrix(1,0,0,1,960,540)"><g opacity="1" transform="matrix(1,0,0,1,0,0)"><path fill="rgb(214,91,43)" fill-opacity="1" d=" M50.67900085449219,-100.80000305175781 C50.67900085449219,-100.80000305175781 14.293999671936035,-76.13099670410156 14.293999671936035,-76.13099670410156 C-8.67300033569336,-90.90799713134766 -27.514999389648438,-80.91200256347656 -39.3380012512207,-69.822998046875 C-52.18600082397461,-57.77299880981445 -56.18299865722656,-39.13199996948242 -49.52299880981445,-22.825000762939453 C-44.06399917602539,-9.458999633789062 -35.96699905395508,1.5729999542236328 -35.96699905395508,1.5729999542236328 C-13.456999778747559,10.824000358581543 -17.774999618530273,-40.729000091552734 -17.774999618530273,-40.729000091552734 C-17.774999618530273,-40.729000091552734 66.40499877929688,4.331999778747559 66.40499877929688,4.331999778747559 C72.87999725341797,-9.251999855041504 75.65599822998047,-25.253999710083008 75.65599822998047,-25.253999710083008 C75.65599822998047,-25.253999710083008 92.30699920654297,-36.04600143432617 92.30699920654297,-36.04600143432617 C92.30699920654297,-36.04600143432617 50.67900085449219,-100.80000305175781 50.67900085449219,-100.80000305175781z"></path></g></g><g opacity="1" transform="matrix(1,0,0,1,960,540)"><g opacity="1" transform="matrix(1,0,0,1,0,0)"><path fill="rgb(169,207,61)" fill-opacity="1" d=" M-115.38500213623047,-6.940000057220459 C-115.38500213623047,-6.940000057220459 -60.79800033569336,-100.80000305175781 -60.79800033569336,-100.80000305175781 C-60.79800033569336,-100.80000305175781 -96.71299743652344,-128.85899353027344 -96.71299743652344,-128.85899353027344 C-96.71299743652344,-128.85899353027344 -149.74899291992188,-39.81700134277344 -149.74899291992188,-39.81700134277344 C-149.74899291992188,-39.81700134277344 -115.38500213623047,-6.940000057220459 -115.38500213623047,-6.940000057220459z"></path></g></g><g opacity="1" transform="matrix(1,0,0,1,960,540)"><g opacity="1" transform="matrix(1,0,0,1,0,0)"><path fill="rgb(214,91,43)" fill-opacity="1" d=" M-29.07900047302246,68.177001953125 C-29.07900047302246,68.177001953125 -18.298999786376953,49.999000549316406 -26.34600067138672,42.76900100708008 C-28.400999069213867,40.92300033569336 -31.28499984741211,40.334999084472656 -33.98899841308594,40.90299987792969 C-40.41299819946289,42.25400161743164 -55.060001373291016,47.15800094604492 -54.82699966430664,63.779998779296875 C-54.7239990234375,71.09400177001953 -49.28200149536133,77.1989974975586 -42.06100082397461,78.37100219726562 C-35.6510009765625,79.41200256347656 -27.8799991607666,79.04900360107422 -23.363000869750977,73.00199890136719"></path></g></g><g opacity="1" transform="matrix(1,0,0,1,960,540)"><g opacity="1" transform="matrix(1,0,0,1,0,0)"><path fill="rgb(214,91,43)" fill-opacity="1" d=" M-39.09600067138672,47.362998962402344 C-39.09600067138672,47.362998962402344 -35.17100143432617,18.214000701904297 -53.22100067138672,27.78499984741211 C-56.57600021362305,29.56399917602539 -59.46200180053711,32.097999572753906 -61.82699966430664,35.06800079345703 C-66.18900299072266,40.54600143432617 -73.5530014038086,51.25699996948242 -73.26799774169922,60.832000732421875 C-73.16100311279297,64.43099975585938 -71.20500183105469,67.75900268554688 -68.14099884033203,69.6510009765625 C-64.12799835205078,72.12799835205078 -57.402000427246094,74.0979995727539 -49.45800018310547,67.71399688720703"></path></g></g><g opacity="1" transform="matrix(1,0,0,1,960,540)"><g opacity="1" transform="matrix(1,0,0,1,0,0)"><path fill="rgb(214,91,43)" fill-opacity="1" d=" M-59.632999420166016,36.49399948120117 C-59.632999420166016,36.49399948120117 -50.303001403808594,6.178999900817871 -67.80899810791016,9.321000099182129 C-70.9469985961914,9.883999824523926 -73.8219985961914,11.42300033569336 -76.18199920654297,13.567000389099121 C-83.84700012207031,20.5310001373291 -103.0719985961914,40.4370002746582 -88.77300262451172,53.606998443603516 C-88.77300262451172,53.606998443603516 -79.05999755859375,59.619998931884766 -66.8030014038086,55.22600173950195"></path></g></g><g opacity="1" transform="matrix(1,0,0,1,960,540)"><g opacity="1" transform="matrix(1,0,0,1,0,0)"><path fill="rgb(214,91,43)" fill-opacity="1" d=" M-73.2760009765625,16.836000442504883 C-73.2760009765625,16.836000442504883 -68.65299987792969,-13.6899995803833 -88.0790023803711,-3.052000045776367 C-88.0790023803711,-3.052000045776367 -100.7750015258789,8.036999702453613 -105.34400177001953,19.621999740600586 C-109.52100372314453,30.211999893188477 -100.35199737548828,41.595001220703125 -89.25499725341797,39.05400085449219 C-88.94300079345703,38.983001708984375 -88.62799835205078,38.900001525878906 -88.30999755859375,38.805999755859375"></path></g></g><g opacity="1" transform="matrix(1,0,0,1,960,540)"><g opacity="1" transform="matrix(1,0,0,1,0,0)"><path fill="rgb(250,174,40)" fill-opacity="1" d=" M31.54199981689453,-101.49400329589844 C31.54199981689453,-101.49400329589844 81.95700073242188,-12.689000129699707 81.95700073242188,-12.689000129699707 C81.95700073242188,-12.689000129699707 113.58300018310547,-37.27899932861328 113.58300018310547,-37.27899932861328 C113.58300018310547,-37.27899932861328 71.49299621582031,-128.85899353027344 71.49299621582031,-128.85899353027344 C71.49299621582031,-128.85899353027344 31.54199981689453,-101.49400329589844 31.54199981689453,-101.49400329589844z"></path></g></g><g opacity="0.5" transform="matrix(1,0,0,1,960,540)"><path fill="rgb(197,72,43)" fill-opacity="1" d=" M34.48099899291992,3.8580000400543213 C20.410999298095703,-2.9779999256134033 6.164999961853027,-15.604999542236328 -3.890000104904175,-25.679000854492188 C-3.38100004196167,-25.55900001525879 15.194000244140625,-21.219999313354492 24.315000534057617,-30.804000854492188 C24.315000534057617,-30.804000854492188 22.576000213623047,-14.22700023651123 34.48099899291992,3.8580000400543213z"></path></g><g opacity="1" transform="matrix(1,0,0,1,960,540)"><g opacity="1" transform="matrix(1,0,0,1,0,0)"><path stroke-linecap="round" stroke-linejoin="round" fill-opacity="0" stroke="rgb(243,120,46)" stroke-opacity="1" stroke-width="2.775" d=" M59.93899917602539,33.20100021362305 C59.93899917602539,33.20100021362305 53.762001037597656,33.641998291015625 42.970001220703125,29.632999420166016"></path></g></g><g opacity="1" transform="matrix(1,0,0,1,960,540)"><g opacity="1" transform="matrix(1,0,0,1,0,0)"><path stroke-linecap="round" stroke-linejoin="round" fill-opacity="0" stroke="rgb(243,120,46)" stroke-opacity="1" stroke-width="2.775" d=" M46.05400085449219,57.612998962402344 C46.05400085449219,57.612998962402344 34.95399856567383,55.534000396728516 23.85300064086914,46.59199905395508"></path></g></g><g opacity="1" transform="matrix(1,0,0,1,960,540)"><g opacity="1" transform="matrix(1,0,0,1,0,0)"><path stroke-linecap="round" stroke-linejoin="round" fill-opacity="0" stroke="rgb(243,120,46)" stroke-opacity="1" stroke-width="2.775" d=" M23.85300064086914,72.6729965209961 C23.85300064086914,72.6729965209961 11.980999946594238,68.79299926757812 6.738999843597412,63.0890007019043"></path></g></g><g opacity="1" transform="matrix(1,0,0,1,960,540)"><g opacity="1" transform="matrix(1,0,0,1,0,0)"><path stroke-linecap="round" stroke-linejoin="round" fill-opacity="0" stroke="rgb(196,71,43)" stroke-opacity="1" stroke-width="2.775" d=" M-38.749000549316406,42.242000579833984 C-45.768001556396484,44.74100112915039 -55.012001037597656,50.547000885009766 -54.82699966430664,63.779998779296875 C-54.79499816894531,66.08200073242188 -54.233001708984375,68.26399993896484 -53.25400161743164,70.20999908447266"></path></g></g><g opacity="1" transform="matrix(1,0,0,1,960,540)"><g opacity="1" transform="matrix(1,0,0,1,0,0)"><path stroke-linecap="round" stroke-linejoin="round" fill-opacity="0" stroke="rgb(196,71,43)" stroke-opacity="1" stroke-width="2.775" d=" M-58.37099838256836,31.395999908447266 C-59.62300109863281,32.51499938964844 -60.7760009765625,33.74800109863281 -61.82699966430664,35.06800079345703 C-65.56300354003906,39.7599983215332 -71.5,48.28900146484375 -72.9489974975586,56.65599822998047"></path></g></g><g opacity="1" transform="matrix(1,0,0,1,960,540)"><g opacity="1" transform="matrix(1,0,0,1,0,0)"><path stroke-linecap="round" stroke-linejoin="round" fill-opacity="0" stroke="rgb(196,71,43)" stroke-opacity="1" stroke-width="2.775" d=" M-72.82099914550781,11.13700008392334 C-74.0260009765625,11.810999870300293 -75.15299987792969,12.631999969482422 -76.18199920654297,13.567000389099121 C-81.36199951171875,18.27400016784668 -91.822998046875,28.892000198364258 -93.64600372314453,39.34700012207031"></path></g></g></g></g></svg>