<svg xmlns="http://www.w3.org/2000/svg" viewBox="0 0 343 289" width="343" height="289" preserveAspectRatio="xMidYMid meet" style="width: 100%; height: 100%; transform: translate3d(0px, 0px, 0px);"><defs><clipPath id="animationMask_ZjwCQGbbjo"><rect width="343" height="289" x="0" y="0"></rect></clipPath><linearGradient id="gr_CuQLrNuDTI" spreadMethod="pad" gradientUnits="userSpaceOnUse" x1="577" y1="-103" x2="650.489990234375" y2="-103"><stop offset="0%" stop-color="rgb(169,207,61)" stop-opacity="1"></stop><stop offset="50%" stop-color="rgb(169,207,61)" stop-opacity="0.5"></stop><stop offset="100%" stop-color="rgb(169,207,61)" stop-opacity="0"></stop></linearGradient><linearGradient id="gr_eDKAuuYU7x" spreadMethod="pad" gradientUnits="userSpaceOnUse" x1="468" y1="-16" x2="556.0479736328125" y2="-16"><stop offset="0%" stop-color="rgb(169,207,61)" stop-opacity="1"></stop><stop offset="50%" stop-color="rgb(169,207,61)" stop-opacity="0.5"></stop><stop offset="100%" stop-color="rgb(169,207,61)" stop-opacity="0"></stop></linearGradient><linearGradient id="gr_nziuYoeO2J" spreadMethod="pad" gradientUnits="userSpaceOnUse" x1="623" y1="3" x2="713.614013671875" y2="3"><stop offset="0%" stop-color="rgb(169,207,61)" stop-opacity="1"></stop><stop offset="50%" stop-color="rgb(169,207,61)" stop-opacity="0.5"></stop><stop offset="100%" stop-color="rgb(169,207,61)" stop-opacity="0"></stop></linearGradient></defs><g clip-path="url(#animationMask_ZjwCQGbbjo)"><g transform="matrix(1,0,0,1,-408,199.67889404296875)" opacity="1" style="display: block;"><g class="i" opacity="1" transform="matrix(1,0,0,1,0,0)"><g opacity="1" transform="matrix(1,0,0,1,0,0)"><path fill="rgb(221,255,149)" fill-opacity="1" d=" M411.0589904785156,-6.563000202178955 C411.0589904785156,-6.563000202178955 425.7489929199219,-21.253000259399414 425.7489929199219,-21.253000259399414 C425.7489929199219,-21.253000259399414 425.7489929199219,-55.50899887084961 425.7489929199219,-55.50899887084961 C425.7489929199219,-55.50899887084961 478.7349853515625,-108.49500274658203 478.7349853515625,-108.49500274658203 C478.7349853515625,-108.49500274658203 495.864013671875,-108.49500274658203 495.864013671875,-108.49500274658203 C495.864013671875,-108.49500274658203 504.6260070800781,-99.73300170898438 504.6260070800781,-99.73300170898438 C504.6260070800781,-99.73300170898438 527.3309936523438,-122.43800354003906 527.3309936523438,-122.43800354003906 C527.3309936523438,-122.43800354003906 527.3309936523438,-144.6999969482422 527.3309936523438,-144.6999969482422 C527.3309936523438,-144.6999969482422 573.3889770507812,-190.7570037841797 573.3889770507812,-190.7570037841797 C573.3889770507812,-190.7570037841797 619.0889892578125,-145.0570068359375 619.0889892578125,-145.0570068359375 C619.0889892578125,-145.0570068359375 650.198974609375,-145.0570068359375 650.198974609375,-145.0570068359375 C650.198974609375,-145.0570068359375 674.7449951171875,-120.51100158691406 674.7449951171875,-120.51100158691406 C674.7449951171875,-120.51100158691406 703.3920288085938,-120.51100158691406 703.3920288085938,-120.51100158691406 C703.3920288085938,-120.51100158691406 703.3920288085938,-96.11100006103516 703.3920288085938,-96.11100006103516 C703.3920288085938,-96.11100006103516 747.3939819335938,-52.10900115966797 747.3939819335938,-52.10900115966797 C747.3939819335938,-52.10900115966797 693.719970703125,1.565999984741211 693.719970703125,1.565999984741211 C693.719970703125,1.565999984741211 711.072021484375,18.917999267578125 711.072021484375,18.917999267578125 C711.072021484375,18.917999267578125 686.427001953125,43.5620002746582 686.427001953125,43.5620002746582 C686.427001953125,43.5620002746582 647.9520263671875,43.5620002746582 647.9520263671875,43.5620002746582 C647.9520263671875,43.5620002746582 613.2020263671875,78.31199645996094 613.2020263671875,78.31199645996094 C613.2020263671875,78.31199645996094 569.3189697265625,34.428001403808594 569.3189697265625,34.428001403808594 C569.3189697265625,34.428001403808594 529.5780029296875,34.428001403808594 529.5780029296875,34.428001403808594 C529.5780029296875,34.428001403808594 504.4880065917969,59.518001556396484 504.4880065917969,59.518001556396484 C504.4880065917969,59.518001556396484 477.9590148925781,32.9900016784668 477.9590148925781,32.9900016784668 C477.9590148925781,32.9900016784668 446.4169921875,32.9900016784668 446.4169921875,32.9900016784668 C446.4169921875,32.9900016784668 411.0589904785156,-6.563000202178955 411.0589904785156,-6.563000202178955z"></path></g><g opacity="1" transform="matrix(1,0,0,1,0,0)"><path fill="rgb(221,255,149)" fill-opacity="1" d=" M589.2680053710938,80.54100036621094 C589.2680053710938,80.54100036621094 550.6619873046875,80.54100036621094 550.6619873046875,80.54100036621094 C550.6619873046875,80.54100036621094 529.302001953125,59.17399978637695 529.302001953125,59.17399978637695 C529.302001953125,59.17399978637695 539.0490112304688,49.426998138427734 539.0490112304688,49.426998138427734 C539.0490112304688,49.426998138427734 558.1539916992188,49.426998138427734 558.1539916992188,49.426998138427734 C558.1539916992188,49.426998138427734 589.2680053710938,80.54100036621094 589.2680053710938,80.54100036621094z"></path></g></g><g opacity="1" transform="matrix(1,0,0,1,0,0)"><g opacity="1" transform="matrix(1,0,0,1,0,0)"><path stroke-linecap="round" stroke-linejoin="round" fill-opacity="0" stroke="rgb(255,255,255)" stroke-opacity="1" stroke-width="2.248" d=" M474.2820129394531,49.426998138427734 C474.2820129394531,49.426998138427734 593.155029296875,-79.30799865722656 593.155029296875,-79.30799865722656 C593.155029296875,-79.30799865722656 593.155029296875,-184.48899841308594 593.155029296875,-184.48899841308594"></path></g><g opacity="1" transform="matrix(1,0,0,1,0,0)"><path stroke-linecap="round" stroke-linejoin="round" fill-opacity="0" stroke="rgb(255,255,255)" stroke-opacity="1" stroke-width="2.248" d=" M582.280029296875,-67.53099822998047 C582.280029296875,-67.53099822998047 552.8599853515625,-96.95099639892578 552.8599853515625,-96.95099639892578 C552.8599853515625,-96.95099639892578 506.49700927734375,-50.5890007019043 506.49700927734375,-50.5890007019043 C506.49700927734375,-50.5890007019043 408.34698486328125,-50.5890007019043 408.34698486328125,-50.5890007019043"></path></g><g opacity="1" transform="matrix(1,0,0,1,0,0)"><path stroke-linecap="round" stroke-linejoin="round" fill-opacity="0" stroke="rgb(255,255,255)" stroke-opacity="1" stroke-width="2.248" d=" M549.9660034179688,-32.5369987487793 C549.9660034179688,-32.5369987487793 708.531982421875,49.426998138427734 708.531982421875,49.426998138427734"></path></g><g opacity="1" transform="matrix(1,0,0,1,0,0)"><path stroke-linecap="round" stroke-linejoin="round" fill-opacity="0" stroke="rgb(255,255,255)" stroke-opacity="1" stroke-width="2.248" d=" M593.155029296875,-108.50299835205078 C593.155029296875,-108.50299835205078 720.5,-108.50299835205078 720.5,-108.50299835205078"></path></g><g opacity="1" transform="matrix(1,0,0,1,0,0)"><path stroke-linecap="round" stroke-linejoin="round" fill-opacity="0" stroke="rgb(255,255,255)" stroke-opacity="1" stroke-width="2.248" d=" M662,-108.50299835205078 C662,-108.50299835205078 662,-61.5 662,-61.5 C662,-61.5 738.25,14.75 738.25,14.75"></path></g></g></g><g transform="matrix(1,0,0,1,-408,201.21546936035156)" opacity="1" style="display: block;"><g opacity="1" transform="matrix(1,0,0,1,0,0)"><path fill="url(#gr_nziuYoeO2J)" fill-opacity="1" d=" M712.9199829101562,3.196000099182129 C717.9340209960938,-12.748000144958496 703.9749755859375,-25.44499969482422 681.7429809570312,-25.160999298095703 C659.510986328125,-24.87700080871582 637.4199829101562,-11.720000267028809 632.406005859375,4.223999977111816 C632.406005859375,4.223999977111816 623.3259887695312,33.09400177001953 623.3259887695312,33.09400177001953 C623.3259887695312,33.09400177001953 663.5830078125,32.58000183105469 663.5830078125,32.58000183105469 C685.8150024414062,32.29600143432617 707.906005859375,19.139999389648438 712.9199829101562,3.196000099182129z"></path></g><g opacity="1" transform="matrix(1,0,0,1,0,0)"><g opacity="1" transform="matrix(1,0,0,1,0,0)"><path fill="rgb(245,137,43)" fill-opacity="1" d=" M641.3179931640625,-55.167999267578125 C625.2750244140625,-71.21099853515625 599.260009765625,-71.21099853515625 583.2169799804688,-55.167999267578125 C567.1740112304688,-39.125 567.1740112304688,-13.109999656677246 583.2169799804688,2.933000087738037 C599.260009765625,18.97599983215332 625.2750244140625,18.97599983215332 641.3179931640625,2.933000087738037 C657.3610229492188,-13.109999656677246 657.3610229492188,-39.125 641.3179931640625,-55.167999267578125z M633.5380249023438,-4.8470001220703125 C621.7899780273438,6.901000022888184 602.7449951171875,6.901000022888184 590.9970092773438,-4.8470001220703125 C579.2490234375,-16.594999313354492 579.2490234375,-35.63999938964844 590.9970092773438,-47.38800048828125 C602.7449951171875,-59.13600158691406 621.7899780273438,-59.13600158691406 633.5380249023438,-47.38800048828125 C645.2860107421875,-35.63999938964844 645.2860107421875,-16.594999313354492 633.5380249023438,-4.8470001220703125z"></path></g><g opacity="1" transform="matrix(1,0,0,1,0,0)"><path fill="rgb(255,255,255)" fill-opacity="1" d=" M633.5380249023438,-4.8470001220703125 C621.7899780273438,6.901000022888184 602.7449951171875,6.901000022888184 590.9970092773438,-4.8470001220703125 C579.2490234375,-16.594999313354492 579.2490234375,-35.63999938964844 590.9970092773438,-47.38800048828125 C602.7449951171875,-59.13600158691406 621.7899780273438,-59.13600158691406 633.5380249023438,-47.38800048828125 C645.2860107421875,-35.63999938964844 645.2860107421875,-16.594999313354492 633.5380249023438,-4.8470001220703125z"></path></g><g opacity="1" transform="matrix(0.9965521097183228,0,0,0.9965521097183228,2.1102294921875,-0.10865020751953125)"><path fill="rgb(242,99,47)" fill-opacity="1" d=" M619.9329833984375,-39.11399841308594 C619.9329833984375,-34.88100051879883 616.5009765625,-31.448999404907227 612.2680053710938,-31.448999404907227 C608.0349731445312,-31.448999404907227 604.60302734375,-34.88100051879883 604.60302734375,-39.11399841308594 C604.60302734375,-43.34700012207031 608.0349731445312,-46.77899932861328 612.2680053710938,-46.77899932861328 C616.5009765625,-46.77899932861328 619.9329833984375,-43.34700012207031 619.9329833984375,-39.11399841308594z"></path></g><g opacity="1" transform="matrix(1,0,0,1,0,0)"><path fill="rgb(242,99,47)" fill-opacity="1" d=" M631.458984375,-15.803999900817871 C627.6309814453125,-9.182999610900879 620.4630126953125,-4.724999904632568 612.2680053710938,-4.724999904632568 C604.072998046875,-4.724999904632568 596.9039916992188,-9.182999610900879 593.0759887695312,-15.803999900817871 C596.9039916992188,-22.433000564575195 604.0640258789062,-26.891000747680664 612.2680053710938,-26.891000747680664 C620.4719848632812,-26.891000747680664 627.6309814453125,-22.433000564575195 631.458984375,-15.803999900817871z"></path></g><g opacity="1" transform="matrix(1,0,0,1,0,0)"><path fill="rgb(245,137,43)" fill-opacity="1" d=" M641.3179931640625,2.933000087738037 C641.3179931640625,2.933000087738037 612.2680053710938,31.982999801635742 612.2680053710938,31.982999801635742 C612.2680053710938,31.982999801635742 583.2169799804688,2.933000087738037 583.2169799804688,2.933000087738037 C583.2169799804688,2.933000087738037 590.9970092773438,-4.8470001220703125 590.9970092773438,-4.8470001220703125 C602.7449951171875,6.901000022888184 621.7899780273438,6.901000022888184 633.5380249023438,-4.8470001220703125 C633.5380249023438,-4.8470001220703125 641.3179931640625,2.933000087738037 641.3179931640625,2.933000087738037z"></path></g></g></g><g transform="matrix(1,0,0,1,-408,202.9934844970703)" opacity="1" style="display: block;"><g opacity="1" transform="matrix(1,0,0,1,0,0)"><path fill="url(#gr_eDKAuuYU7x)" fill-opacity="1" d=" M555.4569702148438,-16.643999099731445 C560.3289794921875,-32.13600158691406 546.7659912109375,-44.4739990234375 525.1630249023438,-44.198001861572266 C503.55999755859375,-43.922000885009766 482.0950012207031,-31.136999130249023 477.2229919433594,-15.645000457763672 C477.2229919433594,-15.645000457763672 468.3999938964844,12.407999992370605 468.3999938964844,12.407999992370605 C468.3999938964844,12.407999992370605 507.5169982910156,11.907999992370605 507.5169982910156,11.907999992370605 C529.1199951171875,11.631999969482422 550.5850219726562,-1.1519999504089355 555.4569702148438,-16.643999099731445z"></path></g><g opacity="1" transform="matrix(1,0,0,1,0,0)"><g opacity="1" transform="matrix(1,0,0,1,0,0)"><path fill="rgb(254,204,37)" fill-opacity="1" d=" M485.8819885253906,-73.3550033569336 C470.2929992675781,-88.94400024414062 445.0159912109375,-88.94400024414062 429.427001953125,-73.3550033569336 C413.8380126953125,-57.76599884033203 413.8380126953125,-32.48899841308594 429.427001953125,-16.899999618530273 C445.0159912109375,-1.3109999895095825 470.2929992675781,-1.3109999895095825 485.8819885253906,-16.899999618530273 C501.47100830078125,-32.48899841308594 501.47100830078125,-57.76599884033203 485.8819885253906,-73.3550033569336z M478.322998046875,-24.458999633789062 C466.9070129394531,-13.043000221252441 448.40301513671875,-13.043000221252441 436.98699951171875,-24.458999633789062 C425.5710144042969,-35.875 425.5710144042969,-54.37900161743164 436.98699951171875,-65.79499816894531 C448.40301513671875,-77.21099853515625 466.9070129394531,-77.21099853515625 478.322998046875,-65.79499816894531 C489.739013671875,-54.37900161743164 489.739013671875,-35.875 478.322998046875,-24.458999633789062z"></path></g><g opacity="1" transform="matrix(1,0,0,1,0,0)"><path fill="rgb(255,255,255)" fill-opacity="1" d=" M478.322998046875,-24.458999633789062 C466.9070129394531,-13.043000221252441 448.40301513671875,-13.043000221252441 436.98699951171875,-24.458999633789062 C425.5710144042969,-35.875 425.5710144042969,-54.37900161743164 436.98699951171875,-65.79499816894531 C448.40301513671875,-77.21099853515625 466.9070129394531,-77.21099853515625 478.322998046875,-65.79499816894531 C489.739013671875,-54.37900161743164 489.739013671875,-35.875 478.322998046875,-24.458999633789062z"></path></g><g opacity="1" transform="matrix(0.9912757873535156,0,0,0.9912757873535156,3.991943359375,-0.4401435852050781)"><path fill="rgb(250,174,40)" fill-opacity="1" d=" M465.1029968261719,-57.75600051879883 C465.1029968261719,-53.643001556396484 461.76800537109375,-50.30799865722656 457.6549987792969,-50.30799865722656 C453.5419921875,-50.30799865722656 450.2070007324219,-53.643001556396484 450.2070007324219,-57.75600051879883 C450.2070007324219,-61.86899948120117 453.5419921875,-65.2040023803711 457.6549987792969,-65.2040023803711 C461.76800537109375,-65.2040023803711 465.1029968261719,-61.86899948120117 465.1029968261719,-57.75600051879883z"></path></g><g opacity="1" transform="matrix(1,0,0,1,0,0)"><path fill="rgb(250,174,40)" fill-opacity="1" d=" M476.3030090332031,-35.10599899291992 C472.5830078125,-28.67300033569336 465.6180114746094,-24.34000015258789 457.6549987792969,-24.34000015258789 C449.6919860839844,-24.34000015258789 442.72698974609375,-28.67300033569336 439.0069885253906,-35.10599899291992 C442.72698974609375,-41.547000885009766 449.6839904785156,-45.87900161743164 457.6549987792969,-45.87900161743164 C465.6260070800781,-45.87900161743164 472.5830078125,-41.547000885009766 476.3030090332031,-35.10599899291992z"></path></g><g opacity="1" transform="matrix(1,0,0,1,0,0)"><path fill="rgb(254,204,37)" fill-opacity="1" d=" M485.8819885253906,-16.899999618530273 C485.8819885253906,-16.899999618530273 457.6549987792969,11.32800006866455 457.6549987792969,11.32800006866455 C457.6549987792969,11.32800006866455 429.427001953125,-16.899999618530273 429.427001953125,-16.899999618530273 C429.427001953125,-16.899999618530273 436.98699951171875,-24.458999633789062 436.98699951171875,-24.458999633789062 C448.40301513671875,-13.043000221252441 466.9070129394531,-13.043000221252441 478.322998046875,-24.458999633789062 C478.322998046875,-24.458999633789062 485.8819885253906,-16.899999618530273 485.8819885253906,-16.899999618530273z"></path></g></g></g><g transform="matrix(1,0,0,1,-408,204.38418579101562)" opacity="1" style="display: block;"><g opacity="1" transform="matrix(1,0,0,1,0,0)"><path fill="url(#gr_CuQLrNuDTI)" fill-opacity="1" d=" M650.5850219726562,-103.3740005493164 C654.6519775390625,-116.30500030517578 643.3300170898438,-126.60199737548828 625.2990112304688,-126.37200164794922 C607.2680053710938,-126.14199829101562 589.35302734375,-115.47100067138672 585.2860107421875,-102.54000091552734 C585.2860107421875,-102.54000091552734 577.9219970703125,-79.1259994506836 577.9219970703125,-79.1259994506836 C577.9219970703125,-79.1259994506836 610.5709838867188,-79.54299926757812 610.5709838867188,-79.54299926757812 C628.6019897460938,-79.77300262451172 646.5180053710938,-90.44300079345703 650.5850219726562,-103.3740005493164z"></path></g><g opacity="1" transform="matrix(1,0,0,1,0,0)"><g opacity="1" transform="matrix(1,0,0,1,0,0)"><path fill="rgb(146,220,222)" fill-opacity="1" d=" M592.5130004882812,-150.70799255371094 C579.5020141601562,-163.718994140625 558.4039916992188,-163.718994140625 545.3930053710938,-150.70799255371094 C532.3820190429688,-137.69700622558594 532.3820190429688,-116.5979995727539 545.3930053710938,-103.58699798583984 C558.4039916992188,-90.57599639892578 579.5020141601562,-90.57599639892578 592.5130004882812,-103.58699798583984 C605.5239868164062,-116.5979995727539 605.5239868164062,-137.69700622558594 592.5130004882812,-150.70799255371094z M586.2039794921875,-109.89700317382812 C576.676025390625,-100.36900329589844 561.22998046875,-100.36900329589844 551.7020263671875,-109.89700317382812 C542.1740112304688,-119.42500305175781 542.1740112304688,-134.8699951171875 551.7020263671875,-144.3979949951172 C561.22998046875,-153.92599487304688 576.676025390625,-153.92599487304688 586.2039794921875,-144.3979949951172 C595.7319946289062,-134.8699951171875 595.7319946289062,-119.42500305175781 586.2039794921875,-109.89700317382812z"></path></g><g opacity="1" transform="matrix(1,0,0,1,0,0)"><path fill="rgb(255,255,255)" fill-opacity="1" d=" M586.2039794921875,-109.89700317382812 C576.676025390625,-100.36900329589844 561.22998046875,-100.36900329589844 551.7020263671875,-109.89700317382812 C542.1740112304688,-119.42500305175781 542.1740112304688,-134.8699951171875 551.7020263671875,-144.3979949951172 C561.22998046875,-153.92599487304688 576.676025390625,-153.92599487304688 586.2039794921875,-144.3979949951172 C595.7319946289062,-134.8699951171875 595.7319946289062,-119.42500305175781 586.2039794921875,-109.89700317382812z"></path></g><g opacity="1" transform="matrix(0.9841899275779724,0,0,0.9841899275779724,8.99591064453125,-2.0770416259765625)"><path fill="rgb(55,191,195)" fill-opacity="1" d=" M575.1699829101562,-137.68800354003906 C575.1699829101562,-134.2550048828125 572.385986328125,-131.4720001220703 568.9530029296875,-131.4720001220703 C565.52001953125,-131.4720001220703 562.7369995117188,-134.2550048828125 562.7369995117188,-137.68800354003906 C562.7369995117188,-141.12100219726562 565.52001953125,-143.90499877929688 568.9530029296875,-143.90499877929688 C572.385986328125,-143.90499877929688 575.1699829101562,-141.12100219726562 575.1699829101562,-137.68800354003906z"></path></g><g opacity="1" transform="matrix(1,0,0,1,0,0)"><path fill="rgb(55,191,195)" fill-opacity="1" d=" M584.5180053710938,-118.78299713134766 C581.4130249023438,-113.41300201416016 575.5999755859375,-109.7979965209961 568.9530029296875,-109.7979965209961 C562.3060302734375,-109.7979965209961 556.4929809570312,-113.41300201416016 553.3880004882812,-118.78299713134766 C556.4929809570312,-124.15899658203125 562.2999877929688,-127.7750015258789 568.9530029296875,-127.7750015258789 C575.6060180664062,-127.7750015258789 581.4130249023438,-124.15899658203125 584.5180053710938,-118.78299713134766z"></path></g><g opacity="1" transform="matrix(1,0,0,1,0,0)"><path fill="rgb(146,220,222)" fill-opacity="1" d=" M592.5130004882812,-103.58699798583984 C592.5130004882812,-103.58699798583984 568.9530029296875,-80.0270004272461 568.9530029296875,-80.0270004272461 C568.9530029296875,-80.0270004272461 545.3930053710938,-103.58699798583984 545.3930053710938,-103.58699798583984 C545.3930053710938,-103.58699798583984 551.7020263671875,-109.89700317382812 551.7020263671875,-109.89700317382812 C561.22998046875,-100.36900329589844 576.676025390625,-100.36900329589844 586.2039794921875,-109.89700317382812 C586.2039794921875,-109.89700317382812 592.5130004882812,-103.58699798583984 592.5130004882812,-103.58699798583984z"></path></g></g></g></g></svg>