<svg xmlns="http://www.w3.org/2000/svg" width="421" height="364" viewBox="0 0 421 364">
    <defs>
        <linearGradient id="a" x1="50%" x2="50%" y1="100.004%" y2="0%">
            <stop offset="0%" stop-color="gray" stop-opacity=".25"/>
            <stop offset="54%" stop-color="gray" stop-opacity=".12"/>
            <stop offset="100%" stop-color="gray" stop-opacity=".1"/>
        </linearGradient>
        <linearGradient id="b" x1="30.119%" x2="71.29%" y1="103.528%" y2="4.651%">
            <stop offset="0%" stop-color="gray" stop-opacity=".25"/>
            <stop offset="54%" stop-color="gray" stop-opacity=".12"/>
            <stop offset="100%" stop-color="gray" stop-opacity=".1"/>
        </linearGradient>
        <linearGradient id="c" x1="30.238%" x2="71.409%" y1="102.99%" y2="4.113%">
            <stop offset="0%" stop-color="gray" stop-opacity=".25"/>
            <stop offset="54%" stop-color="gray" stop-opacity=".12"/>
            <stop offset="100%" stop-color="gray" stop-opacity=".1"/>
        </linearGradient>
        <linearGradient id="d" x1="50%" x2="50%" y1="100%" y2="0%">
            <stop offset="0%" stop-color="gray" stop-opacity=".25"/>
            <stop offset="54%" stop-color="gray" stop-opacity=".12"/>
            <stop offset="100%" stop-color="gray" stop-opacity=".1"/>
        </linearGradient>
    </defs>
    <g fill="none" fill-rule="evenodd">
        <ellipse cx="73.5" cy="57.155" fill="url(#a)" opacity=".8" rx="73.23" ry="56.73" transform="translate(143 9)"/>
        <ellipse cx="217" cy="66.5" fill="#FCDBCC" rx="72" ry="55.5"/>
        <path fill="#FFF" d="M156.426 72.023c0-30.76 32.143-55.697 71.796-55.697A87.908 87.908 0 0 1 264 23.72C251.38 15.186 234.87 10 216.801 10 177.148 10 145 34.937 145 65.698c0 20.654 14.495 38.683 36.028 48.302-15.076-10.212-24.602-25.228-24.602-41.977z" opacity=".1"/>
        <path fill="#C2EBED" d="M217 89l79.5 137.502L376 364H58l79.5-137.498z" opacity=".2"/>
        <path fill="url(#b)" d="M64.779 59.943l6.207-18.397c4.383-13.154-.359-27.622-11.68-35.643l.05-.03a30.967 30.967 0 0 0-7.949-4.023l-.085-.03-.096-.03A31.023 31.023 0 0 0 42.718.19a29.883 29.883 0 0 0-3.076 0 31.413 31.413 0 0 0-5.282.73 21.44 21.44 0 0 0-1.465.371c-.458.136-.971.282-1.45.438a31.31 31.31 0 0 0-2.819 1.08c-.463.202-.921.413-1.37.64a30.956 30.956 0 0 0-3.901 2.292A31.175 31.175 0 0 0 11.433 21.51L1.676 50.495A31.064 31.064 0 0 0 .7 66.806c.146.72.327 1.428.503 2.132.136.468.277.935.433 1.398.232.689.504 1.377.76 2.051.187.448.383.895.59 1.338.407.88.86 1.74 1.349 2.579.488.84 1.007 1.66 1.59 2.454a31.85 31.85 0 0 0 1.335 1.74c.624.753 1.278 1.508 1.973 2.176a31.121 31.121 0 0 0 10.573 6.984l.17.07c.214-.377.45-.741.706-1.09 1.51-2.067 4.138-3.52 6.64-2.977.181.04.363.095.544.15 1.269.448 2.517 1.248 3.74 1.64.901.404 1.934.391 2.825-.035 2.447-1.303 1.54-5.41 3.64-7.21.097-.083.2-.16.307-.232a.945.945 0 0 1-.08-.115c1.62-1.006 3.866-.337 5.734.311 2.013.71 4.641 1.187 6.041-.457.946-1.126.876-2.84 1.777-4.022 1.047-1.358 3.02-1.509 4.728-1.268l.085.026c3.273 1.347 6.847-.89 6.595-4.415-.297-4.701 1.183-9.13 1.52-10.091z" opacity=".3" transform="translate(171 224)"/>
        <path fill="#FFF" d="M191.79 310.948c1.47-2.004 3.991-3.407 6.407-2.86 2.416.545 4.706 2.835 6.855 1.688 2.94-1.564.856-7.31 5.627-7.736a6.286 6.286 0 0 1 2.904.501c2.013.817 5.163 1.739 6.714-.1.91-1.082.845-2.73 1.716-3.853 1.006-1.302 2.924-1.468 4.56-1.217l.08.025c3.156 1.297 6.608-.857 6.362-4.244-.317-4.509 1.122-8.757 1.434-9.679l5.98-17.69c5.294-15.788-3.219-32.868-19.05-38.222-15.859-5.263-33.01 3.212-38.386 18.968l-9.427 27.82c-5.086 15.19 2.596 31.693 17.525 37.651.212-.364.446-.715.7-1.052z"/>
        <circle cx="203.5" cy="243.5" r="3.5" fill="#000" opacity=".2"/>
        <circle cx="221.5" cy="249.5" r="3.5" fill="#000" opacity=".2"/>
        <ellipse cx="208.285" cy="258.879" fill="#E0E0E0" rx="4.887" ry="3.262" transform="rotate(-71.4 208.285 258.88)"/>
        <circle cx="277" cy="244" r="5" fill="#FFF"/>
        <circle cx="292.5" cy="236.5" r="2.5" fill="#FFF"/>
        <g opacity=".5" transform="translate(177 27)">
            <path fill="url(#c)" d="M64.779 59.943l6.207-18.397c4.383-13.154-.359-27.622-11.68-35.643l.05-.03a30.967 30.967 0 0 0-7.949-4.023l-.085-.03-.096-.03A31.023 31.023 0 0 0 42.718.19a29.883 29.883 0 0 0-3.076 0 31.413 31.413 0 0 0-5.282.73 21.44 21.44 0 0 0-1.465.371c-.458.136-.971.282-1.45.438a31.31 31.31 0 0 0-2.819 1.08c-.463.202-.921.413-1.37.64a30.956 30.956 0 0 0-3.901 2.292A31.175 31.175 0 0 0 11.433 21.51L1.676 50.495A31.064 31.064 0 0 0 .7 66.806c.146.72.327 1.428.503 2.132.136.468.277.935.433 1.398.232.689.504 1.377.76 2.051.187.448.383.895.59 1.338.407.88.86 1.74 1.349 2.579.488.84 1.007 1.66 1.59 2.454a31.051 31.051 0 0 0 3.308 3.917 31.121 31.121 0 0 0 10.573 6.983l.17.07c.214-.377.45-.741.706-1.09 1.51-2.067 4.138-3.52 6.64-2.977.181.04.363.095.544.15 1.269.448 2.517 1.248 3.74 1.64.901.404 1.934.391 2.825-.035 2.447-1.303 1.54-5.41 3.64-7.21.097-.083.2-.16.307-.232a.945.945 0 0 1-.08-.115c1.62-1.006 3.866-.337 5.734.311 2.013.71 4.641 1.187 6.041-.457.946-1.126.876-2.84 1.777-4.022 1.047-1.358 3.02-1.509 4.728-1.268h.085c3.273 1.348 6.847-.89 6.595-4.414-.297-4.676 1.183-9.106 1.52-10.066z" opacity=".3"/>
            <path fill="#FFF" d="M21.25 87.089c1.47-2.011 3.993-3.42 6.41-2.871 2.416.548 4.707 2.846 6.856 1.694 2.94-1.568.856-7.335 5.629-7.763a6.27 6.27 0 0 1 2.905.503c2.014.82 5.165 1.745 6.716-.1.911-1.087.846-2.74 1.717-3.867 1.007-1.307 2.925-1.473 4.56-1.222l.081.025c3.157 1.303 6.61-.86 6.364-4.258-.317-4.526 1.123-8.79 1.435-9.714l5.98-17.754C75.2 25.918 66.686 8.777 50.849 3.404 34.985-1.878 17.828 6.627 12.45 22.44L3.02 50.36c-5.087 15.243 2.597 31.806 17.53 37.785.213-.366.447-.718.7-1.056z"/>
            <ellipse cx="32.397" cy="19.649" fill="#000" opacity=".2" rx="3.277" ry="3.273"/>
            <ellipse cx="51.035" cy="25.909" fill="#000" opacity=".2" rx="3.277" ry="3.273"/>
        </g>
        <path fill="#000" d="M284.946 50c.93 3.618 1.4 7.34 1.397 11.077 0 30.85-32.098 55.858-71.696 55.858-32.409-.02-59.79-16.767-68.647-39.746C152.579 102.75 181.548 122 216.3 122c39.597 0 71.7-25.009 71.7-55.858-.01-5.525-1.046-11-3.054-16.142z" opacity=".1"/>
        <ellipse cx="149" cy="38.84" fill="url(#d)" opacity=".8" rx="148.589" ry="38.705" transform="translate(68 52)"/>
        <path fill="#FFF" d="M216.5 53C137.25 53 73 69.563 73 90h287c0-20.437-64.25-37-143.5-37zM216.5 128c79.25 0 143.5-16.565 143.5-37H73c0 20.435 64.25 37 143.5 37z"/>
        <path fill="#000" d="M216.5 128c79.25 0 143.5-16.565 143.5-37H73c0 20.435 64.25 37 143.5 37z" opacity=".05"/>
        <rect width="137" height="20" x="148" y="80" fill="#000" opacity=".05" rx="10"/>
        <path fill="#4D8AF0" d="M67.426 28.557a1.922 1.922 0 0 1-1.072-2.32.971.971 0 0 0 .041-.214.961.961 0 0 0-1.73-.637.95.95 0 0 0-.105.188 1.92 1.92 0 0 1-2.322 1.071 1.047 1.047 0 0 0-.214-.042.962.962 0 0 0-.45 1.84 1.922 1.922 0 0 1 1.072 2.319.987.987 0 0 0-.041.209.961.961 0 0 0 1.73.643.862.862 0 0 0 .105-.194 1.92 1.92 0 0 1 2.322-1.045c.07.022.141.036.214.042a.962.962 0 0 0 .638-1.73.847.847 0 0 0-.188-.13zM322.423 182.557a1.92 1.92 0 0 1-1.05-2.32.968.968 0 0 0 .043-.214.961.961 0 0 0-.63-.964.968.968 0 0 0-1.108.327.95.95 0 0 0-.105.188 1.929 1.929 0 0 1-2.33 1.071 1.054 1.054 0 0 0-.215-.042.966.966 0 0 0-.968.627.959.959 0 0 0 .517 1.212 1.92 1.92 0 0 1 1.05 2.32.984.984 0 0 0-.043.209c-.03.426.225.82.627.969a.968.968 0 0 0 1.11-.326.86.86 0 0 0 .106-.194 1.93 1.93 0 0 1 2.33-1.045c.07.022.142.036.215.042a.966.966 0 0 0 .968-.627.959.959 0 0 0-.328-1.102.85.85 0 0 0-.189-.13zM40.426 253.557a1.922 1.922 0 0 1-1.072-2.32.971.971 0 0 0 .041-.214.961.961 0 0 0-1.73-.637.95.95 0 0 0-.105.188 1.92 1.92 0 0 1-2.322 1.071 1.047 1.047 0 0 0-.214-.042.962.962 0 0 0-.45 1.84 1.922 1.922 0 0 1 1.072 2.319.987.987 0 0 0-.041.209.961.961 0 0 0 1.73.643.862.862 0 0 0 .105-.194 1.92 1.92 0 0 1 2.322-1.045c.07.022.141.036.214.042a.962.962 0 0 0 .638-1.73.847.847 0 0 0-.188-.13zM13.4 87.557a1.922 1.922 0 0 1-1.046-2.32.971.971 0 0 0 .041-.214.961.961 0 0 0-1.73-.637.95.95 0 0 0-.105.188 1.92 1.92 0 0 1-2.322 1.071 1.047 1.047 0 0 0-.214-.042.962.962 0 0 0-.45 1.84 1.922 1.922 0 0 1 1.072 2.319.987.987 0 0 0-.041.209.961.961 0 0 0 1.73.643.862.862 0 0 0 .105-.194 1.92 1.92 0 0 1 2.322-1.045c.07.022.141.036.214.042a.962.962 0 0 0 .638-1.73.847.847 0 0 0-.215-.13zM317.425 3.529a1.912 1.912 0 0 1-1.028-2.301.954.954 0 0 0-.576-1.169.941.941 0 0 0-1.085.324.946.946 0 0 0-.102.186 1.882 1.882 0 0 1-2.283 1.037 1.02 1.02 0 0 0-.21-.042.945.945 0 0 0-1.081.6.957.957 0 0 0 .427 1.168c.057.044.12.08.185.109a1.912 1.912 0 0 1 1.029 2.3.986.986 0 0 0-.042.208.954.954 0 0 0 .63.998.942.942 0 0 0 1.108-.387.857.857 0 0 0 .103-.191 1.882 1.882 0 0 1 2.282-1.037c.069.021.14.035.211.042a.946.946 0 0 0 .949-.622.958.958 0 0 0-.322-1.094.832.832 0 0 0-.195-.13z" opacity=".5"/>
        <g fill="#47E6B1" opacity=".5">
            <path d="M54.706 129.425h1.588v8.5h-1.588z"/>
            <path d="M60 132.925v1.5h-9v-1.5z"/>
        </g>
        <g fill="#47E6B1" opacity=".5">
            <path d="M415.706 89.425h1.588v8.5h-1.588z"/>
            <path d="M421 92.925v1.5h-9v-1.5z"/>
        </g>
        <g fill="#47E6B1" opacity=".5">
            <path d="M365.706 228.425h1.588v8.5h-1.588z"/>
            <path d="M371 231.925v1.5h-9v-1.5z"/>
        </g>
        <circle cx="362" cy="41" r="3" fill="#F55F44" opacity=".5"/>
        <circle cx="3" cy="6" r="3" fill="#F55F44" opacity=".5"/>
        <circle cx="93" cy="179" r="3" fill="#F55F44" opacity=".5"/>
        <ellipse cx="117" cy="77.5" fill="#000" opacity=".05" rx="17" ry="3.5"/>
        <ellipse cx="117" cy="103.5" fill="#000" opacity=".05" rx="17" ry="3.5"/>
        <ellipse cx="311" cy="77.5" fill="#000" opacity=".05" rx="17" ry="3.5"/>
        <ellipse cx="311" cy="103.5" fill="#000" opacity=".05" rx="17" ry="3.5"/>
        <ellipse cx="217" cy="62.5" fill="#000" opacity=".05" rx="17" ry="3.5"/>
        <ellipse cx="229" cy="25.5" fill="#000" opacity=".05" rx="17" ry="3.5"/>
        <ellipse cx="196" cy="40.5" fill="#000" opacity=".05" rx="17" ry="3.5"/>
        <ellipse cx="259" cy="47.5" fill="#000" opacity=".05" rx="17" ry="3.5"/>
        <ellipse cx="217" cy="114.5" fill="#000" opacity=".05" rx="17" ry="3.5"/>
    </g>
</svg>
