<svg xmlns="http://www.w3.org/2000/svg" width="221" height="493"><g fill="none" fill-rule="evenodd"><path fill="#32D1D3" d="M78.12 0L157 78.202h-53.608V324.8L221 419.78V493L53.608 355V78.582L0 78.202z"/><ellipse cx="77.91" cy="245.459" fill="#000" opacity=".1" rx="17.729" ry="2.114"/><ellipse cx="78.729" cy="260.114" fill="#000" opacity=".1" rx="17.729" ry="2.114"/><ellipse cx="78.729" cy="273.114" fill="#000" opacity=".1" rx="17.729" ry="2.114"/><ellipse cx="78.729" cy="286.114" fill="#000" opacity=".1" rx="17.729" ry="2.114"/><g transform="translate(66 118)"><path fill="#FECC25" d="M54.187 111.67c.54.064 1.062.227 1.542.48a3.64 3.64 0 0 1 1.347 1.799c.638 1.807.943 3.715.898 5.63a12.03 12.03 0 0 1-.584 4.568 2.85 2.85 0 0 1-.763 1.19 2.648 2.648 0 0 1-1.05.507 2.814 2.814 0 0 1-2.466-.304 3.893 3.893 0 0 1-1.093-2.533 5.957 5.957 0 0 0-1.466-3.529c-.704-.65-1.695-.979-2.212-1.78-.61-.963-.288-2.213.102-3.276.33-.929.847-2.803 1.796-3.276.95-.473 2.94.338 3.949.523zm-35.499 4.163a7.158 7.158 0 0 0 1.519 2.782c.433.496.967 1.093.738 1.681-.09.212-.23.4-.407.547-3.191 3.093-7.638 4.598-12.094 5.144a.454.454 0 0 1-.212 0c-.127-.058-.161-.218-.178-.361a4.422 4.422 0 0 1 0-1.379 4.114 4.114 0 0 1 2.096-2.42 6.635 6.635 0 0 0 2.461-2.127c.645-1.203.374-2.766 1.138-3.893a4.129 4.129 0 0 1 2.885-1.47c.373-.06 1.188-.48 1.51-.287.323.194.416 1.404.544 1.783z"/><path fill="#118BA1" d="M54.945 111.449a.453.453 0 0 1 .397-.442 1.39 1.39 0 0 1 .639.085 9.653 9.653 0 0 0 1.546.28c.626.02 1.25.09 1.865.212.623.13 1.153.529 1.442 1.086.12.326.176.672.165 1.019a15.852 15.852 0 0 1-.484 3.97c0 .094-.07.212-.164.246-.095.034-.173 0-.25 0a.324.324 0 0 0-.147.17 8.623 8.623 0 0 0-.553 2.656 77.684 77.684 0 0 1-.562 3.987 4.401 4.401 0 0 1-.863 2.181 3.7 3.7 0 0 1-2.332 1.052 16.69 16.69 0 0 1-5.493-.492 1.611 1.611 0 0 1-.924-.407 1.031 1.031 0 0 1-.224-.721c0-.849.863-1.52 1.623-2.011l1.123-.67a.55.55 0 0 0 .181-.162.601.601 0 0 0 .052-.33l-.069-1.307a3.806 3.806 0 0 1 3.29 2.053c.147.28.286.61.58.721a.77.77 0 0 0 .906-.543c.1-.375.1-.77 0-1.145-.604-3.199-.458-6.491-.864-9.724a2.13 2.13 0 0 0-.336-1.018c-.173-.237-.501-.424-.544-.746zm-44.843 12.397c-.149.256-.38.45-.513.724a.638.638 0 0 0 .108.804.7.7 0 0 0 .463.053c3.116-.417 6.041-1.829 8.392-4.052.39-.353.735-.76 1.025-1.21.273-.441.505-.98.968-1.165.282 1.291.429 2.611.438 3.937a2.906 2.906 0 0 1-.827 2.375 2.585 2.585 0 0 1-.827.38l-1.463.44c-.263.11-.55.138-.827.08a3.522 3.522 0 0 0-.504-.194 1.12 1.12 0 0 0-.563.07l-1.256.398a6.874 6.874 0 0 0-1.249.459c-.364.185-.694.424-1.042.627-.59.31-1.2.573-1.827.785l-2.216.821a7.419 7.419 0 0 1-1.885.521c-.447 0-.893 0-1.34.08-.446.079-.653.185-1 .22a2.566 2.566 0 0 1-1.571-.494 1.596 1.596 0 0 1-.455-.441c-.314-.521 0-1.219.273-1.766a6.654 6.654 0 0 1 2.24-2.472c.39-.23.828-.397 1.2-.6 1.132-.583 1.984-1.563 3.05-2.233 1.067-.671 1.68 1.024 1.208 1.853z"/><circle cx="52" cy="18" r="8" fill="#FECC25"/><path fill="#A9CF3E" d="M19 57.78a3.685 3.685 0 0 0 1.79 3.167 6.841 6.841 0 0 0 1.941.681 38.344 38.344 0 0 0 11.075 1.361 6.203 6.203 0 0 0 2.347-.487 2.523 2.523 0 0 0 1.451-1.807c-.045-.46.225-.894.659-1.058a2.23 2.23 0 0 0 .844-2.236c.456.202.928-.252 1.14-.697.21-.445.38-.992.844-1.176.325-.074.655-.122.987-.143.524-.135.844-.639 1.216-1.025a9.142 9.142 0 0 1 2.802-1.681c2.92-1.47 5.293-3.79 7.597-6.075a25.449 25.449 0 0 0 3.276-3.655c.261-.387.506-.782.725-1.185a33.264 33.264 0 0 0 1.832-4.16 4.821 4.821 0 0 0 .464-2.386 1.99 1.99 0 0 0 0-.218 4.546 4.546 0 0 0-.717-1.446 6.072 6.072 0 0 0-3.25-2.663c-1.367-.362-2.769.075-4.22.37-.467.105-.941.178-1.419.218-1.5.022-2.993-.211-4.414-.69l-1.579-.428c-.785-.218-1.182-1.168-1.975-1.336a2.891 2.891 0 0 0-1.072.059c-1.634.24-3.216.754-4.677 1.52a7.118 7.118 0 0 0-.903.614 5.747 5.747 0 0 0-2.11 3.1c-.33 1.37 0 2.824-.355 4.202a9.28 9.28 0 0 1-1.612 3.059l-3.866 5.529a33.63 33.63 0 0 1-2.853 3.689c-2.085 2.218-5.909 3.924-5.968 6.982z"/><path fill="#FECC25" d="M29.567 4.776a6.43 6.43 0 0 0-.696-2.175 4.955 4.955 0 0 0-1.023-1.066 6.716 6.716 0 0 0-2.18-1.35 2.732 2.732 0 0 0-2.516.283 3.275 3.275 0 0 0-1.09 2.258 5.545 5.545 0 0 0 .587 3.425c.67 1.159 1.828 1.934 2.792 2.859a10.846 10.846 0 0 1 1.828 2.258c.232.434.513.84.839 1.209.331.37.82.562 1.317.516.409-.105.78-.321 1.073-.625.394-.341 1.468-.966 1.501-1.516.034-.55-.839-1.45-1.015-1.867a21.01 21.01 0 0 1-1.417-4.209z"/><path fill="#FF8100" d="M1.231 97.166c.989 1.831 2.078 3.612 2.957 5.502.511 1.1.963 2.235 1.533 3.302.57 1.067 1.39 2.26 2.044 3.41a39.713 39.713 0 0 1 3.4 9.444 18.91 18.91 0 0 0 6.701-2.361 6.39 6.39 0 0 0 .394-.26 4.834 4.834 0 0 0 1.357-1.496c-.779-2.966-1.583-5.973-3.174-8.586-.511-.84-1.106-1.68-1.676-2.52-1.55-2.437-1.868-5.511-3.627-7.796a1.339 1.339 0 0 1 0-1.588c.201-.26.528-.513.461-.84-.067-.328-.293-.462-.193-.68.1-.22.151-.169.243-.244.293-.278.26-.757.285-1.16a5.746 5.746 0 0 1 1.282-2.789c.122-.197.281-.368.469-.504.159-.1.352-.143.51-.244.562-.352.52-1.176.788-1.79.36-.84 1.248-1.209 1.826-1.864.746-.84.93-1.991 1.675-2.714.081-.076.168-.146.26-.21a12.89 12.89 0 0 0-.46 3.806c-.076 4.394 1.021 8.947.502 13.316-.402 3.47 1.725 6.93 4.74 8.661a22.63 22.63 0 0 0 3.695 1.554c1.893.673 3.777 1.37 5.629 2.143a100.76 100.76 0 0 1 3.87 1.756 47.702 47.702 0 0 1 4.573 2.52A17.601 17.601 0 0 1 46.228 119a4.403 4.403 0 0 0 3.183-1.756 12.27 12.27 0 0 0 1.751-3.31c.462-.98.745-2.036.838-3.117a.597.597 0 0 0-.344-.563l-8.636-4.595-1.616-.84c-3.535-1.882-7.204-3.62-10.739-5.503-.234.067-.435-.201-.502-.437-.067-.235-.117-.529-.344-.638-.226-.11-.26-.05-.343-.143a.37.37 0 0 1-.059-.286c.118-1.68 1.349-3.293 1.098-4.998a6.006 6.006 0 0 1-.31-2.15c.183-.47.402-.925.653-1.362.427-1.042 0-2.302.47-3.36.309-.674.517-1.39.619-2.126.225-1.46.671-2.876 1.323-4.2a7.563 7.563 0 0 1 1.215-1.849c.26-.277.553-.529.838-.84a6.733 6.733 0 0 0 1.24-3.226 15.47 15.47 0 0 0 .175-6.317 9.333 9.333 0 0 1-.402-2.126c0-.957.427-2.075-.234-2.764a2.117 2.117 0 0 0-.964-.495 30.45 30.45 0 0 0-4.682-.84l-7.22-.941a6.685 6.685 0 0 1-2.404-.622A4.812 4.812 0 0 1 18.813 57c-1.273.924-1.742 2.655-2.756 3.848-.494.588-1.097 1.058-1.675 1.596a19.312 19.312 0 0 0-1.81 2.235 39.611 39.611 0 0 0-4.087 6.485c-.561 1.21-.997 2.47-1.449 3.722-1.759 4.931-4.632 9.61-5.863 14.71C.88 90.848.117 91.974 0 93.242a7.08 7.08 0 0 0 1.231 3.924z"/><path fill="#93C642" d="M31.76 10c.206 1.914 1.841 3.322 2.843 4.975.488.843.856 1.686 1.267 2.53a25.575 25.575 0 0 0 1.712 2.613l1.789 2.53a26.533 26.533 0 0 0 3.424 4.275c2.345.396 4.28 2.108 6.522 2.935 1.825.528 3.692.9 5.581 1.113 1.866.362 3.792 1.079 4.888 2.605.404.606.713 1.268.916 1.965.242.678.339 1.4.282 2.116a3.993 3.993 0 0 1-1.712 2.589 8.956 8.956 0 0 1-2.884 1.324 7.514 7.514 0 0 1-2.568.43 3.162 3.162 0 0 1-2.32-1.054c-.522-.641-.514-1.687-1.087-2.302a5.232 5.232 0 0 0-1.053-.784l-4.768-2.977a23.129 23.129 0 0 0-2.302-1.324c-1.61-.776-3.373-1.189-4.965-1.99-1.592-.8-3.082-2.1-3.424-3.836-.967-5.321-4.708-9.807-7.901-14.2.103 0 .068-.253.111-.354a4.587 4.587 0 0 1 2.337-2.327A13.863 13.863 0 0 1 31.761 10z"/><path fill="#910505" d="M48.019 9.7a2.814 2.814 0 0 1 .333-1.688 3.784 3.784 0 0 1 2.641-1.376 48.615 48.615 0 0 1 2.906-.506 6.758 6.758 0 0 1 2.401-.043c1.046.365 1.963.02 3.2.46 1.237.439 2.06.161 4.099 1.453 2.038 1.292 2.038 1.288 2.931 2.265a6.27 6.27 0 0 1 1.017 2.81c1.521 8.102-.12 16.406-.427 24.642-.12 3.198 0 6.625 1.88 9.283l-5.401-.135c-1.376-.042-2.863-.11-3.957-.954a6.371 6.371 0 0 1-1.812-3.063 9.38 9.38 0 0 1-.692-2.743c-.086-1.94 1.025-3.84.666-5.738a6.396 6.396 0 0 0-2.478-3.57 22.565 22.565 0 0 1-3.273-2.878c-1.616-2.025-1.923-4.785-1.71-7.359.216-1.514.305-3.044.265-4.574a5.73 5.73 0 0 0-1.222-3.215A4.43 4.43 0 0 1 48.02 9.7z"/><path fill="#000" d="M9 92.008L18.655 116A4.854 4.854 0 0 0 20 114.488c-.772-2.998-1.57-6.038-3.146-8.68-.507-.848-1.096-1.698-1.66-2.547-1.537-2.463-1.852-5.571-3.596-7.881a1.375 1.375 0 0 1 0-1.605c.2-.263.524-.518.457-.85-.066-.33-.29-.466-.19-.687.099-.221.149-.17.24-.246.29-.28.257-.765.282-1.172a5.861 5.861 0 0 1 1.27-2.82c.122-.199.28-.372.465-.51.158-.101.349-.144.507-.246.556-.357.514-1.189.78-1.809.357-.849 1.237-1.223 1.81-1.885.739-.85.921-2.013 1.66-2.743l.067-.17-.73-4.637L9 92.008z" opacity=".1"/></g></g></svg>