<svg xmlns="http://www.w3.org/2000/svg" xmlns:xlink="http://www.w3.org/1999/xlink" width="250" height="250" viewBox="10 -35 250 250">
    <defs>
        <path id="a" d="M0 58.5C0 90.81 26.191 117 58.5 117S117 90.81 117 58.5C117 26.191 90.809 0 58.5 0S0 26.191 0 58.5"/>
        <linearGradient id="b" x1="74.638%" x2="-255.098%" y1="80.494%" y2="-327.625%">
            <stop offset="0%" stop-color="#36BFC3" stop-opacity=".2"/>
            <stop offset="100%" stop-color="#36BFC3" stop-opacity=".4"/>
        </linearGradient>
        <path id="d" d="M0 35.5C0 55.107 15.894 71 35.5 71S71 55.107 71 35.5C71 15.894 55.106 0 35.5 0S0 15.894 0 35.5"/>
        <linearGradient id="f" x1="-114.29%" x2="212.514%" y1="91.815%" y2="-8.678%">
            <stop offset="0%" stop-color="#2EB3BB"/>
            <stop offset="50%" stop-color="#4AC1C6"/>
            <stop offset="100%" stop-color="#67CED1"/>
        </linearGradient>
        <linearGradient id="g" x1="-226.479%" x2="99.89%" y1="335.323%" y2="-1.592%">
            <stop offset="0%" stop-color="#2EB3BB"/>
            <stop offset="50%" stop-color="#4AC1C6"/>
            <stop offset="100%" stop-color="#67CED1"/>
        </linearGradient>
    </defs>
    <g fill="none" fill-rule="evenodd">
        <g opacity=".364" transform="translate(28)">
            <mask id="c" fill="#fff">
                <use xlink:href="#a"/>
            </mask>
            <path fill="url(#b)" d="M0 58.5C0 90.81 26.191 117 58.5 117S117 90.81 117 58.5C117 26.191 90.809 0 58.5 0S0 26.191 0 58.5" mask="url(#c)"/>
        </g>
        <g opacity=".364" transform="translate(158 88)">
            <mask id="e" fill="#fff">
                <use xlink:href="#d"/>
            </mask>
            <path fill="url(#b)" d="M0 35.5C0 55.107 15.894 71 35.5 71S71 55.107 71 35.5C71 15.894 55.106 0 35.5 0S0 15.894 0 35.5" mask="url(#e)"/>
        </g>
        <g transform="translate(0 15)">
            <path fill="#F3752D" d="M127.035 118.541c.149 1.935.917 3.942 2.528 5.079 1.61 1.136 4.164 1.112 5.378-.411.421-.58.719-1.21.892-1.887 1.041-3.192 1.76-6.675.645-9.843-2.553-.17-5.527-1.33-7.436.726-1.561 1.668-2.205 4.087-2.007 6.336z"/>
            <path fill="#FECC25" d="M138.16 98.397c-.348 2.934-.919 5.869-.87 8.828.025 1.139.15 2.277.15 3.415 0 2.985-.77 5.92-2.233 8.5a2.798 2.798 0 0 1-.62.81c-.596.48-1.465.454-2.135.075a4.23 4.23 0 0 1-1.513-1.67c-1.861-3.237-1.91-7.158-2.63-10.8-.57-2.809-1.538-5.515-1.91-8.348-.224-1.822-.2-3.694-.571-5.49-.124-.556-.422-1.365-.62-2.15-.2-.708-.298-1.416-.1-1.897.397-.986 1.687-.607 2.531-.556 2.953.227 5.93.227 8.907-.026.298-.025.62-.025.82.177.098.102.148.228.198.38.248.658.421 1.34.545 2.024.422 2.175.298 4.477.05 6.728z"/>
            <path fill="#FECC25" d="M138.074 91.125a1.308 1.308 0 0 0-.441 0 47.57 47.57 0 0 1-4.221.176c1.546 0 3.116-.05 4.662-.176zm-4 30.659a4.187 4.187 0 0 1-1.497-1.653c-1.84-3.206-1.89-7.089-2.601-10.696-.565-2.78-1.522-5.46-1.89-8.266-.22-1.803-.196-3.657-.564-5.435-.123-.551-.418-1.353-.614-2.129-.196-.701-.294-1.403-.098-1.879.172-.4.564-.65.982-.65-.614-.051-1.228.024-1.473.65-.196.476-.098 1.178.098 1.879.197.802.516 1.603.614 2.13.368 1.777.319 3.631.564 5.434.344 2.806 1.325 5.486 1.89 8.266.736 3.632.785 7.515 2.601 10.696a4.187 4.187 0 0 0 1.497 1.653c.393.225.835.325 1.276.275-.27-.05-.54-.15-.785-.275zm13.219-6.531c-1.45 2.968-1.208 7.172-1.208 7.172.242 9.893-3.623 30.668-3.623 30.668h-3.382s-.483-23.001 0-24.98c.484-1.978-.241-8.903-.966-18.548-.531-7.173.918-13.677 1.715-16.521.266-.99.46-1.533.46-1.533s5.555-8.41 8.695-4.452c.724.915 1.11 2.77 1.232 5.12.434 7.74-1.812 20.799-2.923 23.074z"/>
            <path fill="#000" d="M150.872 92.179c-.126-2.35-.53-4.205-1.289-5.12-.733-.89-1.592-1.138-2.477-1.039.683.124 1.314.47 1.719 1.04.758.914 1.163 2.77 1.289 5.119.455 7.74-1.896 20.799-3.059 23.074-1.516 2.968-1.263 7.172-1.263 7.172.252 9.893-3.792 30.668-3.792 30.668h.758s4.045-20.775 3.792-30.668c0 0-.253-4.204 1.264-7.172 1.137-2.275 3.488-15.333 3.058-23.074z" opacity=".1"/>
            <path fill="#F3752D" d="M137.664 151.968s-1.757 3.454.445 7.418c.027.097.08.195.132.292.576.827 1.625 1.313 2.674 1.508 1.049.195 2.15.097 3.225.024a.747.747 0 0 0 .445-.146.556.556 0 0 0 .131-.34c.053-.51.027-1.07.263-1.532.34-.633 1.127-.949 1.573-1.533.629-.778.55-1.873.314-2.797-.524-2.067-1.704-4.402-3.434-5.837-4.195-.34-5.768 2.943-5.768 2.943z"/>
            <path fill="#3F3D56" d="M145.202 26.459c1.409-2.08 1.031-5.011-.402-7.09-1.433-2.08-3.747-3.383-6.11-4.235-3.194-1.127-6.74-1.528-10.034-.676-2.616.676-4.98 2.104-7.444 3.207a32.027 32.027 0 0 1-13.906 2.756c-5.306-.15-11.115-1.504-15.591 1.378-8.148 5.286-4.527 19.667-12.247 25.555-2.087 1.579-4.703 2.28-7.016 3.508-2.314 1.228-4.501 3.357-4.451 5.963.025 1.253.578 2.455 1.257 3.507 2.892 4.56 8.299 7.391 13.705 7.341 5.407-.05 10.688-2.931 13.831-7.34.78-1.103 1.484-2.33 2.616-3.082 2.263-1.478 5.255-.451 7.946-.226 6.01.501 12.02-4.008 13.227-9.896.503-2.506.428-5.537 2.44-7.116 1.634-1.278 3.948-1.002 6.035-1.227 3.797-.401 6.815-2.756 8.877-5.838.955-1.403 1.056-3.107 2.338-4.234 1.459-1.178 3.596-.276 4.93-2.255z"/>
            <path fill="#000" d="M102.367 20.94c2.186.05 4.347-.1 6.507-.5a21.36 21.36 0 0 1-1.788 0c-4.123-.124-8.544-.973-12.369.05 2.533.026 5.141.375 7.65.45zm-7.799 36.748c-1.118.724-1.788 1.972-2.583 3.07a17.513 17.513 0 0 1-9.811 6.791c.298 0 .571.025.87.025 5.34-.05 10.555-2.92 13.66-7.314.77-1.099 1.465-2.322 2.583-3.071l.199-.125c-1.764-.25-3.477-.324-4.918.624zm49.552-38.271c-1.416-2.072-3.702-3.37-6.036-4.219-3.155-1.123-6.657-1.523-9.91-.674a.722.722 0 0 1-.224.05c1.838.1 3.676.475 5.415 1.099 2.36.848 4.62 2.147 6.035 4.219 1.416 2.072 1.788 4.993.398 7.065-1.317 1.972-3.453 1.073-4.844 2.296-1.267 1.124-1.39 2.796-2.31 4.22-1.763 2.646-4.197 4.743-7.252 5.542 1.043-.125 2.16-.1 3.179-.225 3.75-.4 6.73-2.746 8.768-5.817.943-1.398 1.043-3.095 2.31-4.219 1.39-1.223 3.526-.324 4.843-2.297 1.39-2.072 1.043-4.993-.373-7.04zM123.852 39.29c-2.037.224-4.322-.05-5.961 1.222-2.012 1.573-1.913 4.569-2.41 7.09-.869 4.394-4.42 8.014-8.618 9.362l.298.025c5.936.5 11.872-3.994 13.064-9.86.497-2.497.423-5.518 2.41-7.09.472-.35.993-.6 1.54-.75-.125-.025-.224 0-.323 0z" opacity=".1"/>
            <path fill="#FECC25" d="M141.952 41.257a6.17 6.17 0 0 0 3.02.1c.301-.05.603-.15.88-.3.755-.5 8.305-2.751 10.57-3.001 2.264-.25 13.588-5.752 13.588-5.752l12.331-17.007s-.251-10.003 4.781-14.005c5.033-4.001-2.013 17.257-2.013 17.257s-6.04 12.004-8.052 16.506c-2.014 4.501-20.384 11.254-22.9 11.504-.68.1-1.309.4-1.787.85-1.435 1.25-2.24 3.402-2.24 3.402s1.007 6.752-.251 18.006l-.076.65c-1.107 10.705 1.208 13.23 1.208 13.23s-24.41 9.254-23.655-2.75c.227-3.777.201-6.528-.025-8.854a36.954 36.954 0 0 0-1.434-6.977c-.604-2.076-1.309-4.352-2.039-7.453a32.784 32.784 0 0 0-1.409-4.552c-.025-.05-.025-.1-.05-.125-1.259-3.101-2.517-4.101-3.247-4.427-.68-.3-1.333-.65-1.937-1.075-2.315-1.676-7.323-5.402-11.752-9.829-6.04-6.002-12.08-20.257-12.08-20.257s-1.76-8.253 2.265-15.006c4.027-6.752 2.265 13.255 2.265 13.255s7.298 9.754 9.06 14.255c.906 2.326 2.34 3.502 3.523 4.127 1.937 1 3.8 2.176 5.561 3.451 1.183.9 2.441 1.7 3.75 2.426 2.818 1.5 6.19 3.201 8.983 3.627.428.075.881.1 1.334.125.428.025.83-.175 1.107-.5"/>
            <path fill="#000" d="M149.707 67.703a47.847 47.847 0 0 0-.301 6.005c.025-1.315.125-2.804.301-4.516a97.966 97.966 0 0 0 .703-12.158c-.05 3.35-.25 6.7-.628 10.024 0 .223-.05.422-.075.645zM131.6 35.273c-.176.1-.251.15-.251.15.251 1.066.402 2.133.477 3.225a15.163 15.163 0 0 0-.226-3.375zM98.048 13.488c.125-1.737.301-4.863.276-7.617-.05 3.697-.377 7.468-.377 7.468l.1.15zM127.33 79.29c0 .1 0 .199-.024.298-.754 11.91 23.607 2.73 23.607 2.73a3.99 3.99 0 0 1-.628-1.266c-3.667 1.29-22.1 7.295-22.954-1.762zm57.612-62.105s-6.028 11.91-8.037 16.376c-2.009 4.467-20.342 11.166-22.853 11.414a3.32 3.32 0 0 0-1.783.844c-1.432 1.24-2.235 3.374-2.235 3.374s.05.397.125 1.166c.276-.645 1.005-2.109 2.085-3.052a3.143 3.143 0 0 1 1.783-.843c2.511-.248 20.844-6.948 22.853-11.414 2.01-4.466 8.037-16.376 8.037-16.376s4.244-12.754 3.767-16.55c-.352 4.888-3.742 15.061-3.742 15.061zM127.28 69.316a36.475 36.475 0 0 0-1.431-6.923c-.603-2.06-1.306-4.317-2.034-7.394a32.386 32.386 0 0 0-1.407-4.516c-.025-.05-.025-.099-.05-.124-1.256-3.076-2.511-4.069-3.24-4.392a11.239 11.239 0 0 1-1.933-1.066c-2.31-1.663-7.308-5.36-11.729-9.752-6.027-5.955-12.054-20.098-12.054-20.098a21.884 21.884 0 0 1-.377-3.622c-.05 1.712.075 3.424.377 5.111 0 0 6.027 14.143 12.054 20.098 4.446 4.392 9.418 8.089 11.729 9.751.602.422 1.255.77 1.933 1.067.704.323 1.96 1.315 3.24 4.392.025.05.025.1.05.124a31.952 31.952 0 0 1 1.382 4.491c.728 3.077 1.456 5.335 2.034 7.394a36.08 36.08 0 0 1 1.431 6.923c.1 1.042.176 2.158.176 3.449.075-1.638 0-3.276-.15-4.913z" opacity=".1"/>
            <path fill="#26A7B3" d="M151.566 57.382a14.642 14.642 0 0 0-.994 1.972c-.373 1.05-.373 2.198-.448 3.297-.1 1.548-.323 16.832-.696 18.356-.05.274-.15.549-.249.824-.074.174-.174.35-.298.5-.124.174-.298.299-.472.424a9.233 9.233 0 0 1-.845.474c-3.456 1.623-7.235 3.047-11.014 2.498a15.727 15.727 0 0 1-4.574-1.549c-1.368-.674-2.91-1.448-4.326-.899-.224.1-.448.175-.696.225h-.15c-.472-.1-.472-15.409-.571-15.883-.398-1.798-.473-3.247-.721-4.795a14.596 14.596 0 0 0-.597-2.547c-.994-3.022-1.293-6.244-1.293-9.416 0-.15-1.118 0-1.491-.024-.1 0-.15-.025-.125-.05l.075-.075c.124-.1.273-.175.447-.225l.299-.1c1.541-.45 3.232-.624 4.375-1.698 1.194-1.124 1.492-2.922 1.442-4.545-.025-.525-.273-1.798-.224-2.872.423.075.87.1 1.318.125.423.024.82-.175 1.094-.5.423.8.77 1.648 1.069 2.497.423 1.05.746 2.148 1.367 3.097.995 1.548 2.835 2.547 4.65 2.398 1.814-.15 3.53-1.574 3.853-3.372.298-1.598-.373-3.87-.373-5.519.97.275 1.989.325 2.983.1.05.1.075.2.1.3.547 1.923 1.293 4.145 3.182 4.82 1.218.449 2.66.1 3.779.749.074.05.174.1.248.174.25.2.473.425.672.7.472.774.746 1.623.795 2.522.299 2.747-.273 5.544-1.59 8.017z"/>
            <ellipse cx="135.366" cy="30.387" fill="#FECC25" rx="8.366" ry="8.387"/>
            <path fill="#F86D70" d="M120 49.53s16.581-10.684 68.082.763c51.502 11.447 81.398 2.29 81.398 2.29v11.955s-57.782 6.36-79.89 0c-22.108-6.36-53.587-10.022-64.59-.178l-5-14.83z"/>
            <path fill="#FECC25" d="M120 49.53s16.581-10.684 68.082.763c51.502 11.447 81.398 2.29 81.398 2.29v11.955s-57.782 6.36-79.89 0c-22.108-6.36-53.587-10.022-64.59-.178l-5-14.83z"/>
            <path fill="#A9CF3D" d="M122 51.509s15.919-10.634 66.909.76C239.899 63.66 269 54.546 269 54.546l.249 10.886s-56.71 6.33-78.6 0c-21.888-6.33-52.805-10.734-63.7-.937L122 51.51z"/>
            <path fill="#F86D70" d="M117.13 66.834s-16.587 10.684-68.105-.763S.02 63.781.02 63.781V51.827s25.382-6.359 47.497 0c22.115 6.36 53.604 10.023 64.612.178l5 14.83z"/>
            <path fill="#FECC25" d="M117.13 66.834s-16.587 10.684-68.105-.763S.02 63.781.02 63.781V51.827s25.382-6.359 47.497 0c22.115 6.36 53.604 10.023 64.612.178l5 14.83z"/>
            <path fill="#A9CF3D" d="M116.014 66.737s-16.036 10.634-67.403-.76C-2.756 54.586.25 63.7.25 63.7L0 52.813s24.807-6.33 46.857 0 53.196 10.734 64.17.937l4.987 12.987z"/>
            <path fill="#3F3D56" d="M129.217 31.475c-.257-1.52-.642-3.457.695-4.34a3.011 3.011 0 0 1 1.594-.392c2.777-.024 5.425 1.814 8.15 1.275 2.495-.49 4.09-2.82 3.55-5.198a4.355 4.355 0 0 0-1.75-2.623c-1.08-.76-2.416-1.03-3.728-1.3-3.445-.686-7.045-1.348-10.465-.49-3.42.858-6.505 3.776-6.248 7.11.129 1.594.977 3.04 1.877 4.413.669 1.03 3.317 5.885 4.603 5.958 1.825.123 1.902-3.408 1.722-4.413z"/>
            <path fill="#26A7B3" d="M150.148 104.837s4.103-19.857-.733-26.837c0 0-16.853 4.284-22.47 0 0 0-4.64 7.71.415 26.837 0 0 10.405-.756 11.626 0"/>
            <path fill="#000" d="M140.92 20.335a6.82 6.82 0 0 0-.554-.335c1.635 1.768 1.459 4.469-.403 6.022a4.547 4.547 0 0 1-2.063.98c-2.667.526-5.258-1.267-7.975-1.243a2.955 2.955 0 0 0-1.56.383c-1.308.86-.93 2.724-.68 4.23.177.98.101 4.42-1.66 4.325H126c.478.574.93.932 1.283.956 1.761.096 1.837-3.346 1.66-4.326-.251-1.481-.628-3.37.68-4.23a2.955 2.955 0 0 1 1.56-.382c2.717-.024 5.308 1.769 7.975 1.243 2.44-.478 4-2.748 3.472-5.066a4.244 4.244 0 0 0-1.71-2.557z" opacity=".1"/>
            <g fill="#FFF" opacity=".25">
                <path d="M135.786 49.39l.451 1.39a2.907 2.907 0 0 1-1.259.215 3.572 3.572 0 0 1-1.164-.294 9.803 9.803 0 0 0-.498-2.594c.166.535.522.963.997 1.203.475.24.998.268 1.473.08zm.879 2.701l.45 1.39a5.048 5.048 0 0 1-3.538.161v-.053c.095-.455.166-.936.214-1.418.95.348 1.947.321 2.874-.08zm.902 2.728l.451 1.39c-.997.401-2.018.615-3.064.588a7.488 7.488 0 0 1-2.399-.454c.19-.321.357-.669.5-1.016.047-.107.07-.214.118-.321a5.949 5.949 0 0 0 1.805.294 6.206 6.206 0 0 0 2.59-.481zm-9.073-4.733c.142.454.214.936.19 1.417a4.328 4.328 0 0 1-.285 1.364 3.414 3.414 0 0 1-.736 1.123c-.31.32-.69.588-1.093.748l-.451-1.39c.475-.187.855-.588 1.069-1.123a2.489 2.489 0 0 0 .07-1.658l1.236-.481z"/>
                <path d="M130.893 49.096c.261.83.38 1.685.356 2.567a7.633 7.633 0 0 1-.522 2.434 6.52 6.52 0 0 1-1.307 2.032 6.15 6.15 0 0 1-1.971 1.364l-.451-1.39a4.456 4.456 0 0 0 1.52-1.044c.427-.454.76-.962 1.021-1.577a5.59 5.59 0 0 0 .404-1.872 6.204 6.204 0 0 0-.261-1.979l1.21-.535z"/>
                <path d="M133.316 48.107c.285.829.45 1.711.498 2.594a8.86 8.86 0 0 1 0 1.123c0 .133-.023.267-.023.4-.048.482-.12.964-.214 1.418v.054a8.628 8.628 0 0 1-.404 1.337c-.047.107-.071.213-.119.32a7.857 7.857 0 0 1-.498 1.017c-.096.187-.214.374-.31.534a9.499 9.499 0 0 1-1.068 1.364c-.831.856-1.781 1.524-2.827 1.952l-.45-1.39a7.032 7.032 0 0 0 2.398-1.658c.333-.348.641-.749.903-1.15a8.32 8.32 0 0 0 .688-1.31 9.1 9.1 0 0 0 .452-1.444 8.359 8.359 0 0 0 .19-1.524 8.732 8.732 0 0 0-.428-3.129l1.212-.508z"/>
            </g>
            <path fill="url(#f)" d="M9.802 10.592c.053 5.604-3.62 9.929-7.82 11.65C-1.188 10.714.185 5.234 1.902.146c4.862 1.278 7.873 5.48 7.9 10.445z" opacity=".4" transform="translate(125 78)"/>
            <path fill="url(#g)" d="M8.627 3.404a4.324 4.324 0 0 1-3.173 5.243 4.313 4.313 0 0 1-5.23-3.18A4.324 4.324 0 0 1 3.395.224c2.306-.572 4.66.845 5.23 3.18z" opacity=".4" transform="translate(132 72)"/>
        </g>
    </g>
</svg>
