<svg xmlns="http://www.w3.org/2000/svg" width="320" height="90" viewBox="0 0 320 90">
    <defs>
        <linearGradient id="a" x1="105.038%" x2="4.775%" y1="54.243%" y2="30.34%">
            <stop offset="0%" stop-color="#818181" stop-opacity=".25"/>
            <stop offset="54%" stop-color="#818181" stop-opacity=".12"/>
            <stop offset="100%" stop-color="#818181" stop-opacity=".1"/>
        </linearGradient>
    </defs>
    <g fill="none" fill-rule="evenodd">
        <path fill="#010101" d="M284.826 17.662c-.452 1.114-3.657 2.881-8.634 5.04-2.008-3.253-3.46-8.893-3.99-11.156.937-.386 1.6-.832 1.708-1.334.344-1.676 13.51 1.064 10.916 7.45zM287.595 17.838s.679 8.813 3.363 8.063c2.685-.751-3.363-8.063-3.363-8.063zM152.304 38.403c-2.06.854-3.42 1.327-3.42 1.327l-1.441-8.76s.905-.709 2.365-1.78l2.496 9.213z" opacity=".1"/>
        <path fill="#454154" d="M175.797 42.4l29.855-6.769s20.216-11.906 28.077-14.291c7.862-2.385 21.42-5.663 22.592-6.244 1.173-.58 4.48-.955 6.982-1.111 2.502-.157 8.86-1.25 9.222-2.954.362-1.704 13.227 1.08 10.688 7.599-2.54 6.518-93.271 34.884-93.271 34.884L175.797 42.4z"/>
        <path fill="#4A9BAB" d="M175.797 42.4l29.855-6.769s20.216-11.906 28.077-14.291c7.862-2.385 21.42-5.663 22.592-6.244 1.173-.58 4.48-.955 6.982-1.111 2.502-.157 8.86-1.25 9.222-2.954.362-1.704 13.227 1.08 10.688 7.599-2.54 6.518-93.271 34.884-93.271 34.884L175.797 42.4z"/>
        <path fill="#64BEC5" d="M288.477 26.445l-9.343-18.15a3.71 3.71 0 0 0-5.001-1.598 3.719 3.719 0 0 0-1.6 5.006l9.342 18.15a3.71 3.71 0 0 0 5 1.598 3.719 3.719 0 0 0 1.602-5.006z"/>
        <path fill="#7EBA56" d="M278.684 7.759L295.58 0s7.704 18.539 11.228 24.246c.71 1.156 2.888 5.756-2.495 4.818l-15.245-9.008-3.886 1.765-6.5-14.062z"/>
        <path fill="#83C8CC" d="M291.847 9.73c8.162.373 3.118 19.361 3.118 19.361l-34.256 7.692s-81.456 47.33-111.84 47.541c-1.646 0-8.585-1.065-12.975-1.301-2.082-.106-3.566-.162-3.566-.162l-5.138-38.805s4.246-.94 9.608-2.204c7.788-1.831 17.932-4.36 20.745-5.68 4.757-2.235 30.115 4.36 34.767 4.453 4.651.093 21.648-4.546 28.376-7.473 9.022-3.936 29.642-16.703 35.64-16.709"/>
        <path fill="#50A6B2" d="M192 40.178s-2.778 24.097-16.13 37.474c0 0-20.143 7.383-27.359 6.617-7.215-.767 8.683-48.584 8.683-48.584s11.473-.433 34.806 4.493z"/>
        <path fill="#428FA2" d="M148.618 84.324l-12.786-1.314s4.264-5.7-1.709-19.884c-5.18-12.322 7.25-27.45 7.25-27.45h15.792s-15.484 44.459-8.547 48.648z"/>
        <path fill="#010101" d="M110.177 85.135a44.327 44.327 0 0 0 6.56-3.512c3.476-2.31-6.56 3.512-6.56 3.512z" opacity=".1"/>
        <path fill="#F9CE4E" d="M172.556 20.762c.124 7.852-13.726 14.761-20.304 17.6-2.048.88-3.4 1.368-3.4 1.368l-1.409-9.025s.9-.73 2.352-1.835c6.249-4.75 22.65-16.459 22.761-8.108z"/>
        <path fill="#E1E7EF" d="M149.074 29.19l3.23 12.15-65.177 7.309-6.114-7.068s27.44-2.436 28.161-2.554"/>
        <path fill="#8CBC55" d="M149.074 29.19l3.23 12.15-65.177 7.309-6.114-7.068s20.881-1.314 28.161-2.554c18.63-3.186 39.9-9.838 39.9-9.838z"/>
        <path fill="#010101" d="M37.039 66.385c.62 3.882-.04 7.86-1.878 11.331a42.846 42.846 0 0 0-6.657 2.73c-10.16 5.139-1.724-22.589-1.724-22.589s2.829 0 6.228-.29a17.99 17.99 0 0 1 4.03 8.818z" opacity=".1"/>
        <path fill="#F9CE4E" d="M36.226 66.436c1.483 9.308-4.355 18.217-13.472 20.557-9.117 2.34-18.514-2.658-21.683-11.534a17.766 17.766 0 0 1-.845-3.267c-1.515-9.601 4.747-18.707 14.242-20.714 9.496-2.007 18.897 3.789 21.385 13.184.157.584.281 1.176.373 1.774z"/>
        <path fill="#010101" d="M134.619 66.136c3.897 7.58 1.958 13.663.494 16.567-2.09-.106-3.578-.163-3.578-.163l-5.155-38.934s4.26-.943 9.64-2.21l.557-.045s-7.47 14.07-1.958 24.785z" opacity=".1"/>
        <path fill="#B1CD56" d="M47.646 47.401c7.223-7.174 15.119-13.096 42.072-6.293 10.101 2.561 29.507 1.838 29.507 1.838l15.78-1.34s-7.448 14.19-1.988 24.99c5.459 10.799-.624 18.583-.624 18.583l-27.033 3.267C103.34 88.986 77.21 90 77.21 90s-23.644-.403-31.215-12.316c0 0-3.54-4.581-3.858-12.913-.187-5.557 2.1-13.99 5.51-17.37z"/>
        <path fill="#010101" d="M51.848 59.146s7.79 14.352 24.443 9.63c16.654-4.722 29.125-1.24 29.125-1.24s15.579-.885 18.448-2.069a114.51 114.51 0 0 1 13.166-4.065c2.456-.496 5.882-1.475 8.595-2.312 2.713-.836 17.21-3.86 17.21-3.86s-4.582-10.151-2.363-11.446c0 0-14.309 2.888-14.472 1.859-.162-1.029-16.197-1.655-17.503-.62-1.307 1.035-15.629 2.058-16.88 2.522-1.25.465-23.38 2.392-23.38 2.392s-33.2-13.379-36.389 9.21z" opacity=".1"/>
        <path fill="#010101" d="M52.658 57.53s7.814 14.33 24.447 9.632c16.633-4.699 29.128-1.24 29.128-1.24s15.577-.886 18.44-2.07a114.575 114.575 0 0 1 13.17-4.067c2.45-.495 5.882-1.475 8.594-2.312 2.713-.837 17.209-3.862 17.209-3.862s-4.588-10.153-2.37-11.449c0 0-14.301 2.889-14.47 1.86-.169-1.03-16.195-1.655-17.502-.62-1.306 1.035-15.626 2.058-16.877 2.523-1.25.465-23.365 2.38-23.365 2.38s-33.21-13.37-36.404 9.224z" opacity=".1"/>
        <path fill="#010101" d="M106.137 55.494c-.246-.694 3.995-.363 12.366-2.024 8.37-1.661 22.459-5.632 22.459-5.632s-32.932 12.925-34.825 7.656zM74.52 50.27s.436 1.024-4.039 3.244M82.502 51.892c.573 2.425-.779 4.892-3.11 5.676" opacity=".1"/>
        <path fill="url(#a)" d="M283.544 64.632c.299.382.677.695 1.11.919 1.117.503 2.417 0 3.641.056 1.224.056 2.46.714 3.729.813.894.011 1.785-.097 2.65-.323 1.671-.341 3.488-.534 5.047.211 1.558.746 2.523 2.758 1.615 4.18.99 1.372 2.915 1.813 4.612 1.583 3.975-.553 7.306-3.918 11.356-1.31 1.76 1.148 1.647 2.924 1.609 4.644a17.467 17.467 0 0 0 .858-3.26c1.537-9.58-4.82-18.666-14.462-20.668-9.642-2.003-19.188 3.78-21.714 13.155h-.05z" transform="matrix(-1 0 0 1 320 0)"/>
        <path fill="#F9CE4E" d="M157.165 45.028s25.763-15.113 26.708-5.133c.945 9.98-24.238 13.619-24.238 13.619l-2.47-8.486z"/>
        <path fill="#A0C356" d="M74.338 44.216C60.645 41.63 50.611 53.11 51.972 58.535c1.604 6.397 7.786 14.539 24.414 9.755l47.518-3.352c4.3-1.638 8.692-3.015 13.156-4.124 2.448-.496 5.876-1.494 8.585-2.342 2.71-.847 17.19-3.904 17.19-3.904s-4.583-10.29-2.366-11.595c0 0-47.518 3.34-48.798 3.817 0 0-28.135-.823-37.333-2.574z"/>
        <path fill="#F9CE4E" d="M8.101 82.703V90l6.481-5.842z"/>
        <path fill="#010101" d="M9.71 85.464c-1.15.244-2.33.286-3.492.123a5.976 5.976 0 0 1-3.112-1.295 5.437 5.437 0 0 1-1.643-2.939 6.609 6.609 0 0 1 .348-3.483l-.056-.032a5.109 5.109 0 0 0-.902 3.625c.085.653.316 1.275.672 1.82a5.748 5.748 0 0 0 1.245 1.41 6.33 6.33 0 0 0 3.41 1.23c1.193.08 2.39-.05 3.542-.381l-.013-.078z"/>
        <path fill="#010101" d="M3.29 83.514c1.62-1.939 3.216-3.896 4.91-5.778 1.695-1.882 3.31-3.796 5.127-5.528 1.817-1.732 3.757-3.383 6.09-4.227a6.131 6.131 0 0 1 3.616-.319 4.446 4.446 0 0 1 2.836 2.245h.055a4.558 4.558 0 0 0-2.867-2.42 6.377 6.377 0 0 0-3.757.207c-2.456.812-4.438 2.5-6.323 4.151a51.838 51.838 0 0 0-5.261 5.49A58.979 58.979 0 0 0 3.24 83.49l.049.025z"/>
        <path fill="#2FB3BB" d="M299.52 27.486L294.55 7.68a3.712 3.712 0 0 0-4.505-2.697 3.716 3.716 0 0 0-2.698 4.508l4.968 19.807a3.712 3.712 0 0 0 4.505 2.696 3.716 3.716 0 0 0 2.698-4.508z"/>
        <path fill="#A8C954" d="M294.886 9.695l17.76-4.83s4.38 19.778 6.815 26.015c.493 1.256 1.848 6.224-3.223 4.396l-13.323-11.581-4.073 1.105-3.956-15.105z"/>
    </g>
</svg>
