<svg xmlns="http://www.w3.org/2000/svg" width="320" height="83" viewBox="0 0 320 83">
    <defs>
        <linearGradient id="a" x1="-3.856%" x2="96.407%" y1="52.911%" y2="29.008%">
            <stop offset="0%" stop-color="#818181" stop-opacity=".25"/>
            <stop offset="54%" stop-color="#818181" stop-opacity=".12"/>
            <stop offset="100%" stop-color="#818181" stop-opacity=".1"/>
        </linearGradient>
    </defs>
    <g fill="none" fill-rule="evenodd">
        <path fill="#010101" d="M33.486 12.27c.434 1.14 3.509 2.95 8.283 5.16 1.926-3.331 3.32-9.104 3.827-11.421-.899-.395-1.535-.852-1.638-1.365-.355-1.716-12.96 1.09-10.472 7.626zM21.066 21.095a9.49 9.49 0 0 1 2.806.387c4.375 1.504 7.63-14.76 7.63-14.76s-.062-.786-.243-1.922a538.63 538.63 0 0 1-6.706-1.48c-6.7.293-4.5 13.123-3.487 17.775z" opacity=".1"/>
        <path fill="#010101" d="M29.845 11.62s-.695 9.022-3.442 8.254c-2.748-.77 3.442-8.254 3.442-8.254zM163.316 32.674c2.107.873 3.5 1.356 3.5 1.356l1.474-8.969s-.926-.725-2.42-1.821l-2.554 9.434z" opacity=".1"/>
        <path fill="#454154" d="M140.933 36.362L111.3 29.696s-20.064-11.73-27.867-14.078c-7.803-2.35-21.26-5.579-22.424-6.15-1.164-.573-4.446-.942-6.93-1.096-2.483-.153-8.793-1.23-9.152-2.909-.36-1.679-13.129 1.064-10.608 7.485 2.52 6.421 92.575 34.362 92.575 34.362l14.039-10.948z"/>
        <path fill="#84BC56" d="M140.933 36.362L111.3 29.696s-20.064-11.73-27.867-14.078c-7.803-2.35-21.26-5.579-22.424-6.15-1.164-.573-4.446-.942-6.93-1.096-2.483-.153-8.793-1.23-9.152-2.909-.36-1.679-13.129 1.064-10.608 7.485 2.52 6.421 92.575 34.362 92.575 34.362l14.039-10.948z"/>
        <path fill="#A8C954" d="M26.162 4.15c-8.072.37-3.083 19.174-3.083 19.174l33.9 7.61s80.527 46.87 110.598 47.086c1.627 0 8.49-1.055 12.83-1.289 2.06-.105 3.528-.16 3.528-.16l5.08-38.428s-4.198-.931-9.501-2.183c-7.701-1.813-17.733-4.317-20.514-5.624-4.705-2.214-29.781 4.317-34.381 4.41-4.6.092-21.414-4.503-28.061-7.401-8.922-3.892-29.313-16.54-35.245-16.547"/>
        <path fill="#8ABE56" d="M124.352 35.104s2.741 23.43 15.916 36.429c0 0 19.877 7.183 26.997 6.432 7.12-.751-8.567-47.247-8.567-47.247s-11.31-.397-34.346 4.386z"/>
        <path fill="#7EBA56" d="M167.09 78.02l13.086-1.278s-4.365-5.536 1.741-19.334c5.308-11.976-7.414-26.698-7.414-26.698h-16.161s15.81 43.237 8.747 47.31z"/>
        <path fill="#010101" d="M204.767 78.85a49.226 49.226 0 0 1-6.712-2.885c-3.558-1.869 6.712 2.885 6.712 2.885z" opacity=".1"/>
        <path fill="#F9CE4E" d="M143.42 15.333c-.122 7.74 13.58 14.55 20.088 17.35 2.026.867 3.364 1.347 3.364 1.347l1.418-8.909s-.89-.72-2.327-1.809c-6.182-4.67-22.407-16.211-22.542-7.98z"/>
        <path fill="#E1E7EF" d="M167.3 23.24l-3.155 11.92 63.664 7.17 5.973-6.933s-26.81-2.39-27.515-2.506"/>
        <path fill="#4CB8BF" d="M167.3 23.24l-3.155 11.92 63.664 7.17 5.973-6.933s-20.402-1.283-27.515-2.506c-18.184-3.12-38.967-9.651-38.967-9.651z"/>
        <path fill="#010101" d="M277.125 60.482a18.518 18.518 0 0 0 1.921 11.608 45.089 45.089 0 0 1 6.812 2.793c10.396 5.246 1.764-23.127 1.764-23.127s-2.894 0-6.372-.296a18.46 18.46 0 0 0-4.125 9.022z" opacity=".1"/>
        <path fill="#F9CE4E" d="M277.945 59.84c-1.45 9.105 4.258 17.819 13.173 20.108 8.915 2.289 18.103-2.6 21.203-11.282a17.383 17.383 0 0 0 .826-3.196c1.481-9.391-4.642-18.299-13.927-20.262-9.285-1.963-18.478 3.706-20.91 12.896a16.92 16.92 0 0 0-.365 1.735z"/>
        <path fill="#010101" d="M181.233 60.056c-3.682 7.46-1.85 13.446-.467 16.304 1.974-.104 3.38-.16 3.38-.16l4.87-38.292s-4.025-.927-9.107-2.175l-.526-.043s7.056 13.82 1.85 24.366z" opacity=".1"/>
        <path fill="#4FB9C2" d="M266.481 41.44c-7.133-7.004-14.93-12.78-41.55-6.144-9.983 2.495-29.154 1.764-29.154 1.764l-15.584-1.31s7.386 13.856 1.963 24.4c-5.422 10.543.616 18.144.616 18.144l26.699 3.188c1.994.529 27.8 1.518 27.8 1.518s23.351-.393 30.83-12.024c0 0 3.495-4.467 3.803-12.608.209-5.395-2.056-13.622-5.423-16.928z"/>
        <path fill="#010101" d="M261.969 53.414s-7.68 14.233-24.1 9.55c-16.42-4.682-28.717-1.229-28.717-1.229s-15.36-.878-18.189-2.052a115.284 115.284 0 0 0-12.98-4.032c-2.423-.491-5.8-1.462-8.476-2.292-2.675-.83-16.968-3.828-16.968-3.828s4.518-10.067 2.33-11.351c0 0 14.108 2.864 14.269 1.844.16-1.02 15.97-1.641 17.258-.615 1.288 1.026 15.41 2.04 16.642 2.501 1.233.461 23.052 2.372 23.052 2.372s32.742-13.268 35.879 9.132z" opacity=".1"/>
        <path fill="#010101" d="M261.969 51.754s-7.703 14.233-24.093 9.55c-16.391-4.682-28.715-1.229-28.715-1.229s-15.356-.878-18.178-2.052A115.326 115.326 0 0 0 178 53.99c-2.415-.491-5.798-1.462-8.473-2.292-2.674-.83-16.988-3.828-16.988-3.828s4.523-10.067 2.335-11.351c0 0 14.099 2.864 14.265 1.844.167-1.02 15.966-1.641 17.254-.615 1.287 1.026 15.404 2.04 16.637 2.501 1.232.461 23.027 2.366 23.027 2.366s32.763-13.286 35.912 9.138z" opacity=".1"/>
        <path fill="#010101" d="M208.902 49.462c.24-.646-3.899-.338-12.066-1.885-8.167-1.548-21.914-5.247-21.914-5.247s32.145 12.016 33.98 7.132zM241.253 44.82s-.357 1.048 3.307 3.32M232.225 46.48c-.44 2.128.598 4.293 2.386 4.98" opacity=".1"/>
        <path fill="url(#a)" d="M42.28 59.06c-.29.379-.66.69-1.086.909-1.092.497-2.363 0-3.56.055-1.196.055-2.406.706-3.646.805a9.45 9.45 0 0 1-2.59-.32c-1.636-.338-3.412-.528-4.936.21-1.524.737-2.468 2.727-1.58 4.134-.968 1.358-2.85 1.795-4.51 1.567-3.886-.547-7.143-3.877-11.104-1.296-1.721 1.137-1.61 2.894-1.573 4.596a17.459 17.459 0 0 1-.839-3.226c-1.503-9.48 4.713-18.47 14.142-20.452 9.428-1.982 18.762 3.74 21.232 13.017h.05z" transform="matrix(-1 0 0 1 320 0)"/>
        <path fill="#505050" d="M319.526 68.89s4.925-27.408-16.962-36.352c-7.923-3.235-23.752.923-28.16 19.468 0 0 11.402 7.67 24.817 3.893 13.415-3.776 20.305 12.991 20.305 12.991z"/>
        <path fill="#F9CE4E" d="M158.342 39.038s-25.565-14.735-26.503-5.005c-.938 9.73 24.051 13.277 24.051 13.277l2.452-8.272z"/>
        <path fill="#6FC1C7" d="M239.79 38.545c13.507-2.48 23.394 8.554 22.058 13.77-1.588 6.157-7.677 13.98-24.072 9.38l-46.851-3.223a115.449 115.449 0 0 0-12.972-3.966c-2.413-.477-5.793-1.437-8.465-2.252-2.672-.815-16.95-3.755-16.95-3.755s4.52-9.893 2.334-11.149c0 0 46.851 3.211 48.113 3.67 0 0 27.742-.809 36.804-2.475z"/>
        <path fill="#505050" d="M299.275 80.964s-12.37 3.232-19.825-9.26c-2.915-4.877-1.265-11.114-1.265-11.114s2.28 8.883 10.566 11.7c8.287 2.816 10.524 8.674 10.524 8.674z"/>
        <path fill="#A8C954" d="M18.253 4.252l-.235 20.102a3.664 3.664 0 0 0 7.327.086l.236-20.102a3.664 3.664 0 0 0-7.327-.086z"/>
        <path fill="#138CA2" d="M19.067 5.03L.13 4.98S.866 24.848.053 31.407c-.165 1.33-.228 6.368 4.336 3.319l10.285-14.374h4.349l.044-15.323z"/>
    </g>
</svg>
