<svg xmlns="http://www.w3.org/2000/svg" width="250" height="250" viewBox="-15 -25 250 250">
    <defs>
        <linearGradient id="a" x1="49.993%" x2="49.993%" y1="100.04%" y2=".017%">
            <stop offset="0%" stop-color="gray" stop-opacity=".25"/>
            <stop offset="54%" stop-color="gray" stop-opacity=".12"/>
            <stop offset="100%" stop-color="gray" stop-opacity=".1"/>
        </linearGradient>
        <linearGradient id="b" x1="49.998%" x2="49.998%" y1="100.002%" y2=".002%">
            <stop offset="0%" stop-color="gray" stop-opacity=".25"/>
            <stop offset="54%" stop-color="gray" stop-opacity=".12"/>
            <stop offset="100%" stop-color="gray" stop-opacity=".1"/>
        </linearGradient>
        <linearGradient id="c" x1="49.968%" x2="49.968%" y1="100.03%" y2="-.01%">
            <stop offset="0%" stop-color="gray" stop-opacity=".25"/>
            <stop offset="54%" stop-color="gray" stop-opacity=".12"/>
            <stop offset="100%" stop-color="gray" stop-opacity=".1"/>
        </linearGradient>
    </defs>
    <g fill="none" fill-rule="evenodd">
        <g fill="#47E6B1" opacity=".5">
            <path d="M27.075 10.2h1v4.725h-1z"/>
            <path d="M25.125 12.15h4.725v1h-4.725z"/>
        </g>
        <g fill="#47E6B1" opacity=".5">
            <path d="M199.175 190.125h1v4.725h-1z"/>
            <path d="M197.225 192.075h4.725v1h-4.725z"/>
        </g>
        <g fill="#47E6B1" opacity=".5">
            <path d="M199 54.075h1V58.8h-1z"/>
            <path d="M197.05 56.025h4.725v1h-4.725z"/>
        </g>
        <g fill="#47E6B1" opacity=".5">
            <path d="M208 11.075h1V15.8h-1z"/>
            <path d="M206.05 13.025h4.725v1h-4.725z"/>
        </g>
        <g fill="#47E6B1" opacity=".5">
            <path d="M65.025 10.075h1V14.8h-1z"/>
            <path d="M63.075 12H67.8v1h-4.725z"/>
        </g>
        <path fill="#4D8AF0" d="M13.737 78.53a.8.8 0 0 1-.459-.971c0-.02.02-.06.02-.1.04-.217-.12-.416-.34-.455-.159-.02-.318.04-.398.178a.15.15 0 0 0-.04.08.808.808 0 0 1-.978.455c-.02 0-.06-.02-.08-.02-.219-.04-.418.12-.458.337-.02.159.04.317.18.397.02.02.06.04.08.04a.8.8 0 0 1 .458.97c0 .02-.02.06-.02.1-.04.217.12.416.34.455.159.02.318-.04.398-.178a.15.15 0 0 0 .04-.08.808.808 0 0 1 .978-.455c.02 0 .06.02.08.02.219.04.418-.12.458-.337.02-.159-.04-.317-.18-.397-.02-.02-.04-.02-.08-.04zm16.002 94a.801.801 0 0 1-.456-.971c0-.02.02-.06.02-.1.04-.217-.12-.416-.337-.455-.159-.02-.317.04-.397.178a.15.15 0 0 0-.04.08.801.801 0 0 1-.97.455c-.02 0-.06-.02-.1-.02-.217-.04-.416.12-.455.337-.02.159.04.317.178.397.02.02.06.04.08.04a.801.801 0 0 1 .455.97c0 .02-.02.06-.02.1-.04.217.12.416.337.455.159.02.317-.04.397-.178a.15.15 0 0 0 .04-.08.801.801 0 0 1 .97-.455c.02 0 .06.02.1.02.217.04.416-.12.455-.337.02-.159-.04-.317-.178-.397a.15.15 0 0 1-.08-.04zm137-124.01a.808.808 0 0 1-.456-.978c0-.02.02-.06.02-.08.04-.219-.12-.418-.337-.458-.159-.02-.317.04-.397.18-.02.02-.04.06-.04.08a.8.8 0 0 1-.97.458c-.02 0-.06-.02-.1-.02-.217-.04-.416.12-.455.34-.02.159.04.318.178.398.02.02.06.04.08.04.376.16.574.579.455.978 0 .02-.02.06-.02.08-.04.219.12.418.337.458.159.02.317-.04.397-.18.02-.02.04-.06.04-.08a.8.8 0 0 1 .97-.458c.02 0 .06.02.1.02.217.04.416-.12.455-.34.02-.159-.04-.318-.178-.398a.15.15 0 0 1-.08-.04zm-1 22.01a.801.801 0 0 1-.456-.971c0-.02.02-.06.02-.1.04-.217-.12-.416-.337-.455-.159-.02-.317.04-.397.178a.15.15 0 0 0-.04.08.801.801 0 0 1-.97.455c-.02 0-.06-.02-.1-.02-.217-.04-.416.12-.455.337-.02.159.04.317.178.397.02.02.06.04.08.04a.801.801 0 0 1 .455.97c0 .02-.02.06-.02.1-.04.217.12.416.337.455.159.02.317-.04.397-.178a.15.15 0 0 0 .04-.08.801.801 0 0 1 .97-.455c.02 0 .06.02.1.02.217.04.416-.12.455-.337.02-.159-.04-.317-.178-.397-.02 0-.04-.02-.08-.04zm1-69a.801.801 0 0 1-.456-.971c0-.02.02-.06.02-.1.04-.217-.12-.416-.337-.455-.159-.02-.317.04-.397.178a.15.15 0 0 0-.04.08.801.801 0 0 1-.97.455c-.02 0-.06-.02-.1-.02-.217-.04-.416.12-.455.337-.02.159.04.317.178.397.02.02.06.04.08.04a.801.801 0 0 1 .455.97c0 .02-.02.06-.02.1-.04.217.12.416.337.455.159.02.317-.04.397-.178a.15.15 0 0 0 .04-.08.801.801 0 0 1 .97-.455c.02 0 .06.02.1.02.217.04.416-.12.455-.337.02-.159-.04-.317-.178-.397-.04-.02-.06-.04-.08-.04zm39 113.99a.794.794 0 0 1-.456-.965c0-.02.02-.06.02-.098.04-.217-.12-.414-.337-.453-.159-.02-.317.04-.397.177a.149.149 0 0 0-.04.079.803.803 0 0 1-.97.452c-.02 0-.06-.02-.1-.02-.217-.039-.416.119-.455.335-.02.158.04.315.178.394.02.02.06.04.08.04.376.157.574.59.455.984 0 .02-.02.06-.02.098-.04.217.12.414.337.453.159.02.317-.04.397-.177.02-.02.04-.059.04-.079a.803.803 0 0 1 .97-.452c.02 0 .06.02.1.02.217.039.416-.119.455-.335.02-.158-.04-.315-.178-.394a.273.273 0 0 0-.08-.06z" opacity=".5"/>
        <circle cx="15.5" cy="41.5" r="1.5" fill="#F55F44" opacity=".5"/>
        <ellipse cx="3.169" cy="159.35" fill="#F55F44" opacity=".5" rx="1.646" ry="1.654" transform="rotate(-.263 3.169 159.35)"/>
        <circle cx="108.5" cy="11.5" r="1.5" fill="#F55F44" opacity=".5"/>
        <circle cx="123.5" cy="43.5" r="1.5" fill="#F55F44" opacity=".5"/>
        <circle cx="1.5" cy="118.5" r="1.5" fill="#F55F44" opacity=".5"/>
        <circle cx="66.5" cy="39.5" r="1.5" fill="#47E6B1" opacity=".5"/>
        <circle cx="178.5" cy="147.5" r="1.5" fill="#F55F44" opacity=".5"/>
        <path fill="url(#a)" fill-rule="nonzero" d="M62.965 4.465C59.811 1.283 55.214 0 50.005.888c-4.866.839-9.732 3.478-13.693 7.474a15.744 15.744 0 0 0-2.86 3.971 16.895 16.895 0 0 0-2.837-4.119c-3.913-4.07-8.73-6.808-13.572-7.72-5.183-.988-9.805.22-13.008 3.353C.83 6.981-.49 11.593.318 16.848c.758 4.933 3.301 9.866 7.213 13.936 8.216 8.535 24.6 5.205 25.284 5.057l.196-.05.636.148c.684.148 17.019 3.774 25.381-4.612 3.962-3.996 6.627-8.905 7.458-13.789.88-5.254-.366-9.891-3.52-13.073zM30.052 30.907c-3.961.543-13.816 1.258-18.73-3.823-3.155-3.28-5.209-7.203-5.796-11.05-.538-3.503.245-6.488 2.177-8.387a7.148 7.148 0 0 1 2.665-1.653c1.638-.592 3.57-.69 5.697-.296 3.79.715 7.605 2.91 10.76 6.191 4.914 5.131 3.863 15.047 3.227 19.018zm31.226-14.282c-.66 3.824-2.787 7.721-5.99 10.928-4.99 5.007-14.843 4.119-18.78 3.502-.587-3.996-1.443-13.936 3.545-18.944C43.257 8.88 47.12 6.76 50.91 6.117c2.128-.37 4.084-.222 5.698.395a7.175 7.175 0 0 1 2.64 1.702c1.908 1.924 2.641 4.933 2.03 8.411z" opacity=".5" transform="translate(70 49)"/>
        <path fill="#F3752D" fill-rule="nonzero" d="M105.636 83.918l-1.599.347c-.674.148-16.69 3.342-24.736-4.853-3.823-3.912-6.321-8.665-7.07-13.37-.8-5.05.499-9.481 3.647-12.502 3.148-3.02 7.646-4.16 12.718-3.218 4.747.89 9.445 3.515 13.268 7.402 8.02 8.195 4.297 23.966 4.122 24.634l-.35 1.56zM82.1 55.595c-.975.347-1.874.866-2.624 1.584-1.899 1.833-2.673 4.68-2.149 8.047.575 3.689 2.599 7.452 5.672 10.596 4.797 4.902 14.442 4.209 18.315 3.689.65-3.813 1.649-13.344-3.148-18.247-3.074-3.144-6.822-5.248-10.52-5.941-2.048-.397-3.947-.297-5.546.272z"/>
        <path fill="#F3752D" fill-rule="nonzero" d="M103.229 83.778l-.373-1.594c-.15-.672-3.606-16.583 4.526-24.701 3.854-3.86 8.604-6.424 13.329-7.221 5.048-.847 9.524.373 12.608 3.461 3.059 3.088 4.277 7.57 3.407 12.625-.82 4.73-3.407 9.462-7.262 13.321-8.131 8.093-23.997 4.607-24.693 4.458l-1.542-.349zm23.923-28.063c-1.592-.598-3.482-.722-5.546-.373-3.705.622-7.46 2.689-10.569 5.801-4.849 4.831-4.003 14.443-3.431 18.302 3.854.598 13.428 1.47 18.277-3.386 3.109-3.113 5.198-6.873 5.82-10.558.571-3.362-.125-6.25-1.99-8.142a6.965 6.965 0 0 0-2.561-1.644z"/>
        <path fill="url(#b)" d="M151.976.05H.049v30.522h7.893v88.33h136.14v-88.33h7.894z" opacity=".5" transform="translate(27 80)"/>
        <path fill="#F5F5F5" d="M36 88h133v109H36z"/>
        <path fill="#F3752D" d="M90 108h25v89H90z"/>
        <path fill="#000" d="M36 83h133v27H36z" opacity=".1"/>
        <path fill="#F5F5F5" d="M28 80h149v27H28z"/>
        <path fill="#F3752D" d="M90 80h25v27H90z"/>
        <path fill="url(#c)" fill-rule="nonzero" d="M192.981 82.577c-.467-1.372-5.64 2.476-5.64 2.476l-1.181-.074-2.29-2.108 1.6-1.593-13.446-11.47a3.397 3.397 0 0 0-2.636-.784l-11.18 1.397c-.05-.637-.444-1.397-1.01-2.156-1.158-1.863-3.571-3.995-4.458-4.73l-1.354-9.142 1.157-1.74a3.307 3.307 0 0 1-.64-.22l.246-.368-.098-.025.123-.122 2.906-3.333a1.256 1.256 0 0 0-.099-1.74l-6.452-4.878c.197-.465.296-.955.271-1.47.05-.98-.394-1.96-1.847-2.671a16.185 16.185 0 0 0-2.832-1.005 9.148 9.148 0 0 0-4.876.073l-.074-.098c-1.995-2.255-4.581.98-4.68 1.128l-10.17 11.273c-.567.907-.37 2.108.492 2.745l5.393 4.02-.024.024.295.22c-.221.442-.542.76-.96.785l.812.417a.888.888 0 0 1-.443.171l3.768 1.887c0 1.96.197 10.906 3.399 15.293.32.54.714 1.03 1.157 1.47 0 0 .271-.146.764-.391l.566 1.127a6.672 6.672 0 0 0 6.92 3.603l17.732-2.525-.197.564.099-.024-5.739 17.155.96.319-.024.024.123.05-1.182 2.254-3.768 2.892s11.009 5.49 12.166 4.632c1.158-.858-4.063-4.608-4.063-4.608l-.296-1.151 1.256-2.672 1.06.343 8.52-16.96.296-.587 5.763 7.18 1.625-1.617.172.171.025-.024 2.266 2.28 1.625 4.435c.025.05 8.57-8.75 8.102-10.122zM148.234 49.59l-.124-.122c-.91 1.078-2.019 1.936-3.25 2.598v-.956l.074-.05v-.416a6.2 6.2 0 0 0 1.773-6.323l3.743 2.868-2.216 2.401zm-12.708-10.636l-.099-.098.099.098zm-3.005 6.004c-.024.295-.024.589-.024.907 0 .441.024.883.074 1.324.197 1.52.738 2.77 1.871 3.357.985.515 1.626.49 2.044.147l.05.05c.024.588.197 1.176.467 1.715a18.515 18.515 0 0 1-5.96-2.377s0 .073.025.22l-1.551-1.593 3.004-3.75z"/>
        <path fill="#FECC25" d="M160.741 93L158 98.163l4.259 1.837L165 94.224z"/>
        <path fill="#128BA1" d="M161.987 99.808l.249 1.224s4.636 3.936 3.618 4.867c-1.018.93-10.854-4.867-10.854-4.867L158.347 98l3.64 1.808z"/>
        <path fill="#000" d="M164 96.019L160.143 95 159 96.717 162.81 98z" opacity=".1"/>
        <path fill="#FECC25" d="M178 84.742L182.022 89 185 85.42 180.403 81z"/>
        <path fill="#000" d="M179.56 81L178 84.51l1 1.49 2-2.98z" opacity=".1"/>
        <path fill="#128BA1" d="M184.952 85.565l1.228.073s5.303-3.645 5.8-2.366c.496 1.28-8.308 9.728-8.308 9.728L182 88.752l2.952-3.187z"/>
        <path fill="#FECC25" d="M148.713 55l5.985-6.71c.43-.49.405-1.25-.1-1.69L141.59 37 140 39.4l10.102 7.543-4.293 4.555L148.713 55z"/>
        <path fill="#000" d="M147.128 51L145 53.333 147.949 57 151 53.487A8.782 8.782 0 0 1 147.128 51z" opacity=".1"/>
        <path fill="#FECC25" d="M131.682 58l-5.957-4.797a2.03 2.03 0 0 1-.443-2.588L134.184 40 136 41.947l-6.156 8.217 3.632 3.918L131.682 58z"/>
        <path fill="#000" d="M130 57.135l1.048.865L133 53.7l-2.452-2.7c.047.918.19 4.483-.548 6.135z" opacity=".1"/>
        <path fill="#67CED1" d="M164.006 76.086L158 94.914 164.006 97 174 76.086 166 74z"/>
        <path fill="#000" d="M164.284 77.962l-.284.885 6.123-.885L172.51 81l1.49-3.038L166.222 76z" opacity=".1"/>
        <path fill="#FDA57D" d="M134 39.688s2.58-3.023 4.546-.978c1.967 2.045-3.096 2.29-3.096 2.29L134 39.688z"/>
        <path fill="#67CED1" d="M138 72.883l1.923 3.904c1.241 2.48 3.918 3.903 6.644 3.51l23.414-3.387L177.988 87 184 80.96l-12.9-11.17a3.175 3.175 0 0 0-2.53-.761L138 72.883z"/>
        <path fill="#000" d="M132.451 51.577s.533 6.425-1.451 6.641l3.967 1.974S134.75 71.837 138.935 76c0 0 7.74-4.163 15.893-3.946 8.152.216-1.984-7.916-1.984-7.916l-1.33-9 1.113-1.66a8.388 8.388 0 0 1-3.87-2.478c-1.114 1.372-3.63 3.248-5.83 3.248h-.944c-3.266 0-6.75-.65-9.507-2.406l-.025-.265z" opacity=".1"/>
        <path fill="#A9CF3D" d="M132.451 51.577s.533 6.425-1.451 6.641l3.967 1.974S134.75 71.837 138.935 76c0 0 7.74-4.163 15.893-3.946 8.152.216-1.984-7.916-1.984-7.916l-1.33-9 1.113-1.66a8.388 8.388 0 0 1-3.87-2.478c-1.114 1.372-3.63 3.248-5.83 3.248h-.944a17.925 17.925 0 0 1-9.532-2.67z"/>
        <path fill="#000" d="M137 51.673v.182c2.552 1.527 6.448 1.527 9 0V50h-9v1.673z" opacity=".1"/>
        <circle cx="141.5" cy="47.5" r="5.5" fill="#FECC25"/>
        <path fill="#000" d="M136.955 45.424h10.23s4.083-4.107 0-6.16a13.646 13.646 0 0 0-2.787-.977c-6.223-1.578-12.122 3.581-11.326 9.992.2 1.503.722 2.755 1.842 3.331 4.331 2.28 2.041-6.186 2.041-6.186z" opacity=".1"/>
        <path fill="#333" d="M136.955 45.424h10.23s4.083-4.107 0-6.16a13.646 13.646 0 0 0-2.787-.977c-6.223-1.578-12.122 3.581-11.326 9.992.2 1.503.722 2.755 1.842 3.331 4.331 2.28 2.041-6.186 2.041-6.186z"/>
        <ellipse cx="137.5" cy="47" fill="#FDA57D" rx="1" ry="1"/>
        <path fill="#000" d="M134 61l.244-1 .756.676zm17 4s-2.34 1.538-3 3m3-14l-.343 1-.657-1z" opacity=".1"/>
        <path fill="#333" d="M136.955 45.424h10.23s4.083-4.107 0-6.16a13.646 13.646 0 0 0-2.787-.977c-6.223-1.578-12.122 3.581-11.326 9.992.2 1.503.722 2.755 1.842 3.331 4.331 2.28 2.041-6.186 2.041-6.186z"/>
        <path fill="#1D9BAC" d="M165.621 99.087c-.332.756-1.16 1.096-1.847.783l-5.969-2.792c-.687-.313-.97-1.2-.64-1.956.332-.757 1.161-1.096 1.848-.757l5.969 2.792c.686.313.994 1.173.64 1.93z"/>
        <path fill="#2EB3BB" d="M184.333 78.868c.69.79.69 1.948-.023 2.632l-6.072 5.868c-.714.685-1.833.58-2.524-.184-.69-.79-.666-1.947.024-2.605l6.072-5.868c.738-.685 1.833-.632 2.523.157z"/>
        <path fill="#FAB028" d="M142.05 48.15l2.35-.125c.325-.025.5.375.25.6l-2.3 2.2"/>
    </g>
</svg>
