<svg version="1.1" id="Capa_1" xmlns="http://www.w3.org/2000/svg" xmlns:xlink="http://www.w3.org/1999/xlink" x="0px" y="0px"
	 viewBox="0 0 53 53" style="enable-background:new 0 0 53 53;" xml:space="preserve">
<style type="text/css">
	.st0{fill:#FFFFFF;}
	.st1{fill:url(#SVGID_1_);}
	.st2{fill:url(#SVGID_2_);}
	.st3{fill:url(#SVGID_3_);}
	.st4{fill:url(#SVGID_4_);}
	.st5{fill:url(#SVGID_5_);}
	.st6{fill:url(#SVGID_6_);}
</style>
<g>
	<g>
		<path d="M39.4,5.8L39.4,5.8c-7.1-7.1-18.6-7.1-25.7,0l0,0C7.3,12.2,6.5,24.3,12,31.5l14.5,21l14.5-21
			C46.5,24.3,45.7,12.2,39.4,5.8z M26.7,24.5c-3.3,0-6-2.7-6-6s2.7-6,6-6s6,2.7,6,6S30,24.5,26.7,24.5z"/>
	</g>
	<g>
		<g>
			<circle class="st0" cx="26.5" cy="18.5" r="12"/>
		</g>
		<g>
			
				<linearGradient id="SVGID_1_" gradientUnits="userSpaceOnUse" x1="269.8264" y1="-363.5849" x2="265.1869" y2="-360.799" gradientTransform="matrix(1 0 0 -1 -233.6 -346.06)">
				<stop  offset="0" style="stop-color:#B1CD56"/>
				<stop  offset="1" style="stop-color:#64AC56"/>
			</linearGradient>
			<path class="st1" d="M31.9,14.5c-0.5-0.5-0.8-1.2-0.8-1.9h0L29.9,15c0.2,0.3,0.4,0.6,0.6,0.8c0.9,0.9,2,1.3,3.2,1.3v-1.9
				C33.1,15.3,32.4,15,31.9,14.5z"/>
			
				<linearGradient id="SVGID_2_" gradientUnits="userSpaceOnUse" x1="268.509" y1="-367.2828" x2="262.3146" y2="-363.5673" gradientTransform="matrix(1 0 0 -1 -233.6 -346.06)">
				<stop  offset="0" style="stop-color:#63BDC2"/>
				<stop  offset="1" style="stop-color:#3C889E"/>
			</linearGradient>
			<path class="st2" d="M28.1,18.5c1.5,1.4,3.5,2.3,5.6,2.3v-1.9c-1.6,0-3.2-0.6-4.4-1.7L28.1,18.5z"/>
			
				<linearGradient id="SVGID_3_" gradientUnits="userSpaceOnUse" x1="266.7738" y1="-370.1767" x2="260.5794" y2="-366.4584" gradientTransform="matrix(1 0 0 -1 -233.6 -346.06)">
				<stop  offset="0" style="stop-color:#3B7DBC"/>
				<stop  offset="1" style="stop-color:#1E5098"/>
			</linearGradient>
			<path class="st3" d="M27.1,20l-1.2,1.4c2.2,1.9,5,3,7.9,3v-1.9C31.3,22.6,28.9,21.7,27.1,20L27.1,20z"/>
			
				<linearGradient id="SVGID_4_" gradientUnits="userSpaceOnUse" x1="258.1671" y1="-357.8775" x2="247.9445" y2="-368.0973" gradientTransform="matrix(1 0 0 -1 -233.6 -346.06)">
				<stop  offset="0" style="stop-color:#F9CD4F"/>
				<stop  offset="1" style="stop-color:#EA9646"/>
			</linearGradient>
			<path class="st4" d="M19.2,17.1v-1.9c1.5,0,2.7-1.2,2.7-2.7h1.9C23.8,15.1,21.8,17.1,19.2,17.1C19.2,17.1,19.2,17.1,19.2,17.1
				L19.2,17.1z"/>
			
				<linearGradient id="SVGID_5_" gradientUnits="userSpaceOnUse" x1="260.3647" y1="-360.0752" x2="250.1422" y2="-370.2978" gradientTransform="matrix(1 0 0 -1 -233.6 -346.06)">
				<stop  offset="0" style="stop-color:#E88E43"/>
				<stop  offset="1" style="stop-color:#DE553E"/>
			</linearGradient>
			<path class="st5" d="M19.2,20.8v-1.9c3.5,0,6.3-2.8,6.3-6.3h1.9C27.4,17.1,23.8,20.8,19.2,20.8C19.2,20.8,19.2,20.8,19.2,20.8
				L19.2,20.8z"/>
			
				<linearGradient id="SVGID_6_" gradientUnits="userSpaceOnUse" x1="262.557" y1="-362.2674" x2="252.3372" y2="-372.49" gradientTransform="matrix(1 0 0 -1 -233.6 -346.06)">
				<stop  offset="0" style="stop-color:#DF5D3B"/>
				<stop  offset="1" style="stop-color:#D23B32"/>
			</linearGradient>
			<path class="st6" d="M19.2,24.4v-1.9c2,0,3.9-0.6,5.6-1.7c1.6-1.1,2.9-2.6,3.6-4.4c0.5-1.2,0.8-2.5,0.8-3.9h1.9
				c0,1.6-0.3,3.2-0.9,4.6c-0.3,0.7-0.7,1.4-1.1,2c-0.4,0.6-0.9,1.2-1.4,1.7c-1.1,1.1-2.4,1.9-3.8,2.5
				C22.4,24.1,20.8,24.4,19.2,24.4z"/>
		</g>
	</g>
</g>
</svg>
