<svg width="323" height="204" xmlns="http://www.w3.org/2000/svg"><defs><linearGradient x1="0%" y1="50%" x2="99.18%" y2="50%" id="a"><stop stop-color="#007ECC" offset="0%"/><stop stop-color="#004CA0" offset="100%"/></linearGradient><linearGradient x1="49.961%" y1="99.987%" x2="49.961%" y2="-.139%" id="b"><stop stop-color="gray" stop-opacity=".25" offset="0%"/><stop stop-color="gray" stop-opacity=".12" offset="54%"/><stop stop-color="gray" stop-opacity=".1" offset="100%"/></linearGradient></defs><g fill="none" fill-rule="evenodd"><g transform="translate(125)"><ellipse fill="url(#a)" cx="99.5" cy="97.5" rx="98.5" ry="97.5"/><path d="M98.55 0C58.704-.02 22.769 23.728 7.51 60.165-7.748 96.602.676 138.55 28.852 166.44c28.177 27.891 70.555 36.23 107.366 21.126 36.81-15.103 60.802-50.673 60.782-90.116C196.973 43.64 152.911.027 98.55 0zm0 181.952c-47.147 0-85.368-37.833-85.368-84.502 0-46.67 38.22-84.502 85.369-84.502 47.148 0 85.368 37.833 85.368 84.502 0 22.411-8.994 43.905-25.004 59.752-16.01 15.847-37.723 24.75-60.364 24.75z" fill="#000" fill-rule="nonzero" opacity=".1"/><path d="M156.045 67.208l-29.762 29.856a.526.526 0 0 0 0 .765l20.882 21.895a3.513 3.513 0 0 1 .772 3.856 3.6 3.6 0 0 1-3.308 2.193 3.646 3.646 0 0 1-2.545-1.039l-20.773-21.816a.573.573 0 0 0-.795 0l-5.062 5.04c-4.186 4.221-9.922 6.6-15.91 6.598-6.1-.027-11.934-2.472-16.188-6.785l-4.862-4.902a.573.573 0 0 0-.796 0l-20.723 21.767a3.616 3.616 0 0 1-2.54 1.039 3.616 3.616 0 0 1-2.541-1.039 3.505 3.505 0 0 1-1.058-2.505c0-.94.381-1.843 1.058-2.505L72.696 97.78a.582.582 0 0 0 0-.765L42.935 67.16a.553.553 0 0 0-.598-.118.54.54 0 0 0-.337.5v59.742c.016 4.808 3.965 8.7 8.84 8.717h97.32c4.875-.016 8.823-3.91 8.84-8.717V67.59a.539.539 0 0 0-.341-.523.552.552 0 0 0-.614.141z" fill="#FFF"/><path d="M98.96 108c4.064.039 7.97-1.557 10.826-4.424L153 59.966A8.67 8.67 0 0 0 147.547 58H50.453A8.61 8.61 0 0 0 45 59.966l43.224 43.61A15.015 15.015 0 0 0 98.96 108z" fill="#FFF"/></g><g transform="translate(0 101)"><path d="M115.403 68.707c.129.456.281.9.434 1.345-.693-.667-1.362-1.357-2.055-2.035.27.093.552.175.81.28.272.11.531.248.775.41h.036zm-3.323-2.246c-4.062-3.51-8.758-6.236-12.914-9.64 2.266 1.11 4.473 2.41 6.656 3.65a195.75 195.75 0 0 0 7.878 4.246 6.432 6.432 0 0 1-1.655 1.744h.035zm1.726-8.845l.2-.199v1.392l-1.092-.374c.302-.255.588-.529.857-.819h.035zM78.08 67.092a33.494 33.494 0 0 0 4.32-6.142c1.609 2.796 4.227 4.82 6.446 7.172-3.581-.456-7.174-.843-10.766-1.03z" fill="url(#b)" fill-rule="nonzero"/><path fill="#2F2E41" d="M84.27 33.773l2.525.525 8.605 13.11-3.787.525z"/><path d="M22.26 85.812a44.448 44.448 0 0 0 2.573 6.175 67.91 67.91 0 0 0 8.557-2.255 25.189 25.189 0 0 0-1.782-2.177 8.763 8.763 0 0 0-2.42-1.71 7.202 7.202 0 0 0-2.939 0c-1.322-.033-2.655-.011-3.989-.033z" fill="#FBBEBE"/><path d="M28.246 89.412c-1.376-.595-2.417-1.736-2.852-3.128a9.979 9.979 0 0 0-2.174-3.737c-.426.056-.79.32-.966.698-.207.355-.333.755-.563 1.11-.46.632-1.265.942-1.84 1.474-.575.533-.92 1.365-1.542 1.908a6.249 6.249 0 0 1-2.91 1.109 19.32 19.32 0 0 0-4.6 1.63c-.531.307-1.098.553-1.69.732a6.938 6.938 0 0 1-1.978 0l-4.53-.31c-.382-.06-.77-.06-1.15 0-.953.331-1.546 1.247-1.438 2.218a3.307 3.307 0 0 0 1.437 2.35 9.682 9.682 0 0 0 2.576 1.265 77.964 77.964 0 0 0 12.144 3.327v.865a21.664 21.664 0 0 0 9.258 2.074c.236.014.472-.024.69-.11a1.46 1.46 0 0 0 .575-.866 33.515 33.515 0 0 0 1.898-9.493 7.302 7.302 0 0 0-.196-2.451c-.253-.787.598-.455-.184-.765" fill="#118BA1"/><path d="M116.37 71.924c-13.694.795-27.224-3.087-40.941-3.496a20.635 20.635 0 0 0-5.088.307 26.156 26.156 0 0 0-5.042 1.895c-7.35 3.315-14.96 6.061-22.557 8.797l-8.735 3.144a13.594 13.594 0 0 1-5.404 1.135c-.833 0-1.853-.17-2.345.5-1.419 2.042-.75 5.028.187 7.32.305.738.821 1.544 1.642 1.623a4.899 4.899 0 0 0 1.665-.408c1.582-.409 3.165.624 4.807.794 2.016.205 3.892-.908 5.803-1.589 3.165-1.135 6.612-1.135 9.942-1.634 5.569-.897 10.74-3.405 15.57-6.254a18.443 18.443 0 0 1 5.803-2.656 16.558 16.558 0 0 1 7.304.806 171.484 171.484 0 0 1 16.754 5.516c2.85 1.2 5.77 2.235 8.746 3.099a32.637 32.637 0 0 0 19.615-1.135c2.192-.84 4.572-2.27 4.69-4.609.082-1.305-.974-2.451-1.665-3.575a51.12 51.12 0 0 0-1.384-2.122c-2.345-3.292-5.205-7.696-9.367-7.458z" fill="#2F2E41"/><path d="M116.37 71.924c-13.694.795-27.224-3.087-40.941-3.496a20.635 20.635 0 0 0-5.088.307 26.156 26.156 0 0 0-5.042 1.895c-7.35 3.315-14.96 6.061-22.557 8.797l-8.735 3.144a13.594 13.594 0 0 1-5.404 1.135c-.833 0-1.853-.17-2.345.5-1.419 2.042-.75 5.028.187 7.32.305.738.821 1.544 1.642 1.623a4.899 4.899 0 0 0 1.665-.408c1.582-.409 3.165.624 4.807.794 2.016.205 3.892-.908 5.803-1.589 3.165-1.135 6.612-1.135 9.942-1.634 5.569-.897 10.74-3.405 15.57-6.254a18.443 18.443 0 0 1 5.803-2.656 16.558 16.558 0 0 1 7.304.806 171.484 171.484 0 0 1 16.754 5.516c2.85 1.2 5.77 2.235 8.746 3.099a32.637 32.637 0 0 0 19.615-1.135c2.192-.84 4.572-2.27 4.69-4.609.082-1.305-.974-2.451-1.665-3.575a51.12 51.12 0 0 0-1.384-2.122c-2.345-3.292-5.205-7.696-9.367-7.458z" fill="#000" opacity=".1"/><path d="M47.7 85.211c2.264.741 4.55 1.426 6.855 2.056 1.24-2.044 3.719-3.466 4.252-5.808a.53.53 0 0 0 0-.31.588.588 0 0 0-.26-.228 13.353 13.353 0 0 0-5.38-1.518c-1.488-.083-2.17 1.41-2.84 2.462-.26.466-2.02 3.573-2.627 3.346z" fill="#FBBEBE"/><path d="M51.427 84.249a4.697 4.697 0 0 1-3.16-2.09c-.294-.531-.623-1.252-1.233-1.18-.611.07-.81.708-.94 1.263-.407 2.092-1 4.143-1.774 6.128a11.495 11.495 0 0 1-3.794 5.018c-.8.555-1.68.969-2.467 1.56a16.96 16.96 0 0 1-2.08 1.581c-.518.234-1.052.431-1.597.59-.803.304-1.567.7-2.279 1.182-.634.365-1.17.88-1.562 1.5a2.17 2.17 0 0 0-.118 2.09c.333.549.885.928 1.516 1.038a6.358 6.358 0 0 0 1.89 0c2.503-.177 5.005-.401 7.507-.626a21.556 21.556 0 0 0 3.137-.436l1.633-.45a12.93 12.93 0 0 1 2.854-.424c.28-.026.564.002.834.082.576.19.987.768 1.586.886.398.038.8-.014 1.175-.153a25.809 25.809 0 0 1 5.556-.58c.822 0 1.786-.212 2.162-.944.47-.92-.306-1.948-.623-2.94a9.493 9.493 0 0 1-.259-1.925 11.782 11.782 0 0 0-1.374-4.581c-.634-1.18-1.504-2.48-1.057-3.731.222-.398.366-.835.423-1.288-.176-2.03-4.805-1.31-5.956-1.57z" fill="#118BA1"/><path d="M97.545 48.761c-2.462-1.047-4.434-2.946-5.534-5.326-.225-.508-.415-1.05-.641-1.557a11.847 11.847 0 0 0-3.301-4.462 1.65 1.65 0 0 0-1.187-.496c-.45.132-.79.489-.891.934-.133.469-.165.96-.095 1.441a25 25 0 0 0 .594 3.367l.677 2.975c.09.455.229.9.415 1.326.29.498.672.94 1.128 1.303a80.95 80.95 0 0 0 1.876 1.614c.364.307.763.574 1.188.795.663.308 1.372.51 2.101.6a18.201 18.201 0 0 1 7.885 2.952v-2.214a2.876 2.876 0 0 0-.594-1.603 10.676 10.676 0 0 0-3.621-1.649z" fill="#FBBEBE"/><path d="M97.545 48.761c-2.462-1.047-4.434-2.946-5.534-5.326-.225-.508-.415-1.05-.641-1.557a11.847 11.847 0 0 0-3.301-4.462 1.65 1.65 0 0 0-1.187-.496c-.45.132-.79.489-.891.934-.133.469-.165.96-.095 1.441a25 25 0 0 0 .594 3.367l.677 2.975c.09.455.229.9.415 1.326.29.498.672.94 1.128 1.303a80.95 80.95 0 0 0 1.876 1.614c.364.307.763.574 1.188.795.663.308 1.372.51 2.101.6a18.201 18.201 0 0 1 7.885 2.952v-2.214a2.876 2.876 0 0 0-.594-1.603 10.676 10.676 0 0 0-3.621-1.649z" fill="#F9CE4E" opacity=".1"/><ellipse fill="#2F2E41" cx="125.61" cy="22.76" rx="3.18" ry="3.147"/><path d="M122.622 19.713a3.41 3.41 0 0 0-2.56.378 3.666 3.666 0 0 0-.879 1.24 18.317 18.317 0 0 0-1.691 4.106c-.286 1.18-.331 2.513-.697 3.729-.663 2.242-2.365 4.142-2.56 6.479-.09 1.05.08 2.277-.662 2.985a4.213 4.213 0 0 1-.583.437c-.514.354-.95.816-1.28 1.357-.223.481-.53.917-.902 1.286-.663.508-1.76.46-2.08 1.18-.32.72.514 1.7.32 2.55-.194.849-.914 1.014-1.428 1.486a5.21 5.21 0 0 0-1.234 2.36 7.442 7.442 0 0 1-6.216-1.593 21.063 21.063 0 0 1 .971 7.34 3.07 3.07 0 0 1-.571 2.266c2.577.198 5.13.657 7.621 1.369a5.098 5.098 0 0 0 3.325 0 5.586 5.586 0 0 0 1.531-1.25c1.371-1.44 2.811-3.01 3.142-5.004.082-1.127.102-2.258.058-3.387.13-1.4.41-2.782.834-4.119a50.467 50.467 0 0 0 1.45-8.473c.15-1.77 1.635-3.186 2.412-4.72 1.462-2.986 2.97-6.09 3.073-9.44.046-1.087-.32-2.444-1.394-2.562z" fill="#2F2E41"/><path d="M122.622 19.713a3.41 3.41 0 0 0-2.56.378 3.666 3.666 0 0 0-.879 1.24 18.317 18.317 0 0 0-1.691 4.106c-.286 1.18-.331 2.513-.697 3.729-.663 2.242-2.365 4.142-2.56 6.479-.09 1.05.08 2.277-.662 2.985a4.213 4.213 0 0 1-.583.437c-.514.354-.95.816-1.28 1.357-.223.481-.53.917-.902 1.286-.663.508-1.76.46-2.08 1.18-.32.72.514 1.7.32 2.55-.194.849-.914 1.014-1.428 1.486a5.21 5.21 0 0 0-1.234 2.36 7.442 7.442 0 0 1-6.216-1.593 21.063 21.063 0 0 1 .971 7.34 3.07 3.07 0 0 1-.571 2.266c2.577.198 5.13.657 7.621 1.369a5.098 5.098 0 0 0 3.325 0 5.586 5.586 0 0 0 1.531-1.25c1.371-1.44 2.811-3.01 3.142-5.004.082-1.127.102-2.258.058-3.387.13-1.4.41-2.782.834-4.119a50.467 50.467 0 0 0 1.45-8.473c.15-1.77 1.635-3.186 2.412-4.72 1.462-2.986 2.97-6.09 3.073-9.44.046-1.087-.32-2.444-1.394-2.562z" fill="#000" opacity=".1"/><path d="M119.46 74.331c-2.858-1.348-4.95-3.848-7.267-6-4.41-4.104-9.807-6.976-14.451-10.848-3.08-2.546-5.88-5.51-9.207-7.65a23.18 23.18 0 0 0-9.865-3.407 2.65 2.65 0 0 0-1.176 0 2.7 2.7 0 0 0-1.117.872 35.157 35.157 0 0 0-3.986 5.407c-5.879 9.883-14.24 18.185-21.165 27.37-.159.19-.275.413-.34.651-.03.356.061.712.258 1.012l1.411 2.72c.788 1.535 2.058 3.314 3.75 3.012a4.109 4.109 0 0 0 1.965-1.244l6.325-5.988 6.632-6.267c3.88-3.663 7.831-7.418 10.37-12.116 1.976 3.395 5.492 5.616 7.89 8.72.918 1.163 1.67 2.477 2.493 3.733 1.305 2 2.799 3.884 4.28 5.814l7.608 9.592a14.477 14.477 0 0 0 3.527 3.488 13.58 13.58 0 0 0 6.103 1.616c2.857.252 5.727.353 8.595.303 2.197.087 4.386-.31 6.408-1.163a5.744 5.744 0 0 0 3.469-5.104 7.432 7.432 0 0 0-1.094-3.175c-2.75-4.848-6.302-8.94-11.417-11.348z" fill="#2F2E41"/><path d="M126.684 24.744a3.308 3.308 0 0 0 0 3.823c.116.139.532 1.008.705 1.02a.635.635 0 0 0 .44-.232 29.063 29.063 0 0 0 2.473-2.955 5.5 5.5 0 0 1 3.144-2.062 6.785 6.785 0 0 1 4.334 1.356c.58.265 1.09.662 1.49 1.158a4.05 4.05 0 0 1 .486 1.657c.378 3.497.525 7.015.44 10.531.066 2.54-.1 5.08-.497 7.588-.255 1.286-.625 2.55-.798 3.858a24.664 24.664 0 0 0-.162 3.476v4.842c-.03.889.031 1.778.185 2.653.231 1.055.728 2.04 1.063 3.07.346 1.185.582 2.399.706 3.627l.658 5.005c.208 1.575.37 3.301-.59 4.634-.427.567-.993 1.03-1.432 1.598-1.63 2.132-1.156 5.179-1.792 7.786a9.71 9.71 0 0 1-3.167 4.865 5.229 5.229 0 0 1-4.172 1.495c-2.035-.382-3.248-2.502-3.803-4.507-.555-2.004-.751-4.182-1.953-5.873a15.554 15.554 0 0 0-3.86-3.233 6.683 6.683 0 0 1-3.017-3.927c-.128-.73 0-1.483-.128-2.224a5.246 5.246 0 0 0-3.224-4.252c-1.04-.406-2.312-.556-2.913-1.506a7.03 7.03 0 0 0 3.04-4.09c.46-1.685.708-3.42.74-5.167l.346-5.793c.162-2.606.231-5.178 1.376-7.518.508-1.043 1.156-2.028 1.676-3.059a33.249 33.249 0 0 0 1.791-4.483c.832-2.387 1.665-4.774 2.404-7.183a13.55 13.55 0 0 1 1.318-3.348c.624-1.09 1.526-2.399 2.693-2.63z" fill="#118BA1"/><path d="M113.057 62.093h1.557l.328-2.32c.043-.466.153-.923.328-1.358a8.12 8.12 0 0 1 .902-1.3c1.522-2.146 1.417-4.988 1.791-7.599a38.43 38.43 0 0 1 3.42-9.932l3.02-6.671a9.16 9.16 0 0 0 .657-1.706c.126-.65.19-1.31.187-1.972 0-1.033.328-4.792.363-5.801 0-.383-.855-.174-1.03-.51-.375-.743-.89 1.264-1.605 1.705a3.898 3.898 0 0 0-1.393 2.019c-.656 1.67-1.054 3.48-1.663 5.14a10.485 10.485 0 0 1-2.822 4.548c-.62.533-1.335.963-1.92 1.543-1.874 1.833-2.061 4.745-2.12 7.367-.047 1.602-.351 16.847 0 16.847zM136.661 21.346a5.324 5.324 0 0 0-2.78 3.81 19.271 19.271 0 0 1-1.408 4.691c-1.9 3.307-6.746 4.269-8.095 7.845a14.417 14.417 0 0 0-.54 3.694c-.234 2.568-1.079 5.042-1.337 7.599a33.838 33.838 0 0 0 .14 5.968l1.702 20.193c.325 2.97.155 5.974-.505 8.888a8.568 8.568 0 0 0 5.092-.844c1.584-.727 3.038-1.724 4.575-2.568 2.628-1.454 5.538-2.474 7.849-4.41.414-.33.77-.725 1.056-1.172.353-.847.59-1.739.704-2.65.2-.714.454-1.412.762-2.087a61.485 61.485 0 0 0 2.206-6.239c.423-1.4.76-2.826 1.009-4.268.187-1.173.293-2.345.387-3.518a20.63 20.63 0 0 1 1.08-5.335 42.959 42.959 0 0 0 2.475-12.805 6.693 6.693 0 0 0-.13-1.876 10.036 10.036 0 0 0-1.032-2.146c-.704-1.325-1.173-2.78-1.783-4.128a20.302 20.302 0 0 0-6.934-7.282c-1.36-.926-2.956-1.911-4.493-1.36z" fill="#2F2E41"/><path d="M101.049 54.554a12.208 12.208 0 0 1-3.226-2.383c-.423-.479-.775-1.015-1.174-1.494a8.045 8.045 0 0 0-4.059-2.28 20.379 20.379 0 0 0-4.693-.445 8.749 8.749 0 0 0-3.132.365 3.139 3.139 0 0 0-2.077 2.166 3.557 3.557 0 0 0 1.584 3.193 7.553 7.553 0 0 0 3.156 1.483 25.92 25.92 0 0 0 2.85.33c5.609.57 10.618 3.536 15.534 6.238a194.018 194.018 0 0 0 13.21 6.66c.174-1.305.249-2.62.223-3.934 0-.981-.082-2.486-1.032-3.068a21.168 21.168 0 0 0-4.2-1.22 67.207 67.207 0 0 1-8.46-3.33c-1.548-.65-3.038-1.448-4.504-2.28z" fill="#F9CE4E"/><ellipse fill="#F9CE4E" cx="129.815" cy="10.533" rx="10.335" ry="10.227"/><path d="M137.895 31.894a15.84 15.84 0 0 0-1.964 3.606c-1.19 2.52-3.214 4.667-4.202 7.34-.988 2.672-1 6.103-3.035 8.285-.408.334-.716.77-.893 1.26-.008.305-.04.61-.095.91-.298.794-1.619.829-1.869 1.646-.071.233 0 .49-.119.723-.202.525-.916.607-1.38.922-.989.653-.786 2.17-1.489 3.116a2.709 2.709 0 0 1-2.535.875 9.039 9.039 0 0 1-2.63-.969 2.572 2.572 0 0 0-.953-.291 1.99 1.99 0 0 0-1.095.373 6.569 6.569 0 0 0-2.737 5.66 18.187 18.187 0 0 0 1.57 6.336c.101.347.276.669.513.945a2.31 2.31 0 0 0 2.523.187 12.022 12.022 0 0 1 2.464-1.086c1.571-.28 3.107.782 4.702.689a6.6 6.6 0 0 0 3.166-1.365 17.42 17.42 0 0 0 4.261-3.501c.69-.899 1.19-1.914 1.81-2.87a36.872 36.872 0 0 1 2.558-3.35l5.857-7.001a16.154 16.154 0 0 0 1.57-2.124c.521-1.022.92-2.098 1.191-3.209a24.166 24.166 0 0 0 1.19-5.706 21.508 21.508 0 0 0-.428-4.785 16.641 16.641 0 0 0-1.19-4.562c-1.274-2.637-4.369-4.784-6.761-2.054z" fill="#2F2E41"/></g><path fill="#F9CE4E" d="M122 117v-7l-6 5.604z"/></g></svg>