<svg xmlns="http://www.w3.org/2000/svg" width="487" height="342" viewBox="0 0 487 342">
    <defs>
        <linearGradient id="a" x1="0%" x2="99.996%" y1="49.951%" y2="49.951%">
            <stop offset="0%" stop-color="#67CED1" stop-opacity=".3"/>
            <stop offset="50%" stop-color="#58C7CB" stop-opacity=".2"/>
            <stop offset="100%" stop-color="#49C0C5" stop-opacity=".1"/>
        </linearGradient>
        <linearGradient id="b" x1=".015%" x2="99.969%" y1="49.929%" y2="49.929%">
            <stop offset="0%" stop-color="#7DBF43"/>
            <stop offset="50%" stop-color="#7DBF43" stop-opacity=".5"/>
            <stop offset="100%" stop-color="#7DBF43" stop-opacity="0"/>
        </linearGradient>
        <linearGradient id="c" x1="-.012%" y1="49.984%" y2="49.984%">
            <stop offset="0%" stop-color="#2EB3BB"/>
            <stop offset="50%" stop-color="#4AC1C6"/>
            <stop offset="100%" stop-color="#67CED1"/>
        </linearGradient>
        <linearGradient id="d" x1="-.222%" x2="100.292%" y1="50%" y2="50%">
            <stop offset="0%" stop-color="#1D9BAC"/>
            <stop offset="50%" stop-color="#1D9BAC" stop-opacity=".5"/>
            <stop offset="100%" stop-color="#1D9BAC" stop-opacity="0"/>
        </linearGradient>
        <linearGradient id="e" x1="-.269%" x2="100.245%" y1="50%" y2="50%">
            <stop offset="0%" stop-color="#1D9BAC"/>
            <stop offset="50%" stop-color="#1D9BAC" stop-opacity=".5"/>
            <stop offset="100%" stop-color="#1D9BAC" stop-opacity="0"/>
        </linearGradient>
        <linearGradient id="f" x1="-.061%" x2="99.997%" y1="50.144%" y2="50.144%">
            <stop offset="0%" stop-color="#7DBF43"/>
            <stop offset="50%" stop-color="#7DBF43" stop-opacity=".5"/>
            <stop offset="100%" stop-color="#7DBF43" stop-opacity="0"/>
        </linearGradient>
        <linearGradient id="g" x1="-.125%" x2="99.972%" y1="50.02%" y2="50.02%">
            <stop offset="0%" stop-color="#7DBF43"/>
            <stop offset="50%" stop-color="#7DBF43" stop-opacity=".5"/>
            <stop offset="100%" stop-color="#7DBF43" stop-opacity="0"/>
        </linearGradient>
        <linearGradient id="h" x1=".027%" x2="99.877%" y1="50.296%" y2="50.296%">
            <stop offset="0%" stop-color="#7DBF43"/>
            <stop offset="50%" stop-color="#7DBF43" stop-opacity=".5"/>
            <stop offset="100%" stop-color="#7DBF43" stop-opacity="0"/>
        </linearGradient>
        <linearGradient id="i" x1="50%" x2="50%" y1="100.021%" y2="12.843%">
            <stop offset="0%" stop-color="#F5892B"/>
            <stop offset="50%" stop-color="#F9AA28"/>
            <stop offset="100%" stop-color="#FECA25"/>
        </linearGradient>
    </defs>
    <g fill="none" fill-rule="evenodd">
        <path fill="#5B5A5A" d="M408.8 86.73s-9.456-11.336 1.464-21.412c2.664-2.466 7.21-4.513 11.755-4.303 5.434.21 14.995.525 18.234 19.627.575 3.464 4.389 6.14 5.747 7.242 0 0-5.12 3.202-6.949 4.094-4.284 2.099-6.74.315-6.74.315"/>
        <ellipse cx="249" cy="316" fill="url(#a)" rx="238" ry="22"/>
        <path fill="#7DBF43" d="M447.123 186.918s4.387 11.695 11.877 2.65L453.276 183H446l1.123 3.918z"/>
        <path fill="#FECC25" d="M457.949 185.052s2.489 6.618 4.304 8.598c1.815 1.98 4.667 15.79.881 14.227-3.785-1.563-11.045-13.184-11.512-15.217-.415-1.98-.622-7.66-.622-7.66l6.949.052z"/>
        <path fill="#575A89" d="M402 218.75l34 1.25-3.941-13.7-17.132-.3z"/>
        <path fill="url(#b)" d="M406 218.75l34 1.25-3.941-13.7-17.132-.3z"/>
        <path fill="#FECC25" d="M414.33 254.612c.23 2.48.518 4.42.518 4.42s-13.933 4.043-16.006.54c-.518-.917-.806-2.427-.863-4.26-.288-5.39.863-13.153.863-13.153s-.575-11.968-.863-13.1c-.115-.485-.288-1.94-.46-3.558-.231-2.372-.519-5.067-.519-5.067L416 211s0 2.857-.058 5.553"/>
        <path fill="#000" d="M411 258.945s-12.39 4.222-14.232.563c-.46-.957-.717-2.533-.768-4.447 2.56-.45 10.341-1.632 14.59-.731.205 2.589.41 4.615.41 4.615z" opacity=".1"/>
        <path fill="#128BA1" d="M403.187 294.673c-.052-1.914-7.418-35.252-6.008-38.548 0 0 12.172-2.127 16.821-.532 0 0-.366 44.29-.888 59.922-.105 2.5.888 7.338-.627 9.677-.418.585-3.03 1.808-5.224 1.808-2.507 0-3.813-1.382-3.813-1.382-.105-.16-.261-.266-.366-.426-1.567-1.967.627-19.354.627-19.354s.627-2.02.105-3.19c-.523-1.17-.157-2.924-.157-2.924"/>
        <path fill="#FECC25" d="M439.445 243.074c-.863 1.488-.518 6.749-.115 10.628a88.23 88.23 0 0 0 .518 4.358s-13.933 3.986-16.006.531c-.518-.903-.806-2.391-.863-4.198-.288-5.314.863-12.967.863-12.967s-.575-11.797-.863-12.913c-.173-.638-.403-6.537-.634-11.85C422.173 212.144 422 208 422 208l19 2.71s0 7.706-.23 15.624c-.23 7.653-.634 15.518-1.325 16.74z"/>
        <path fill="#000" d="M437 258.945s-12.39 4.222-14.232.563c-.46-.957-.717-2.533-.768-4.447 2.56-.45 10.341-1.632 14.59-.731.205 2.589.41 4.615.41 4.615z" opacity=".1"/>
        <circle cx="421" cy="86" r="12" fill="#000" opacity=".1"/>
        <circle cx="421" cy="86" r="12" fill="#FECC25"/>
        <path fill="#000" d="M397 220.489L416 212s0 1.6-.058 4.026a1133.038 1133.038 0 0 1-10.997 5.481c-2.187 1.068-4.318 2.135-6.16 3.008-.403.194-.864.34-1.324.485-.173-2.086-.461-4.511-.461-4.511z" opacity=".1"/>
        <path fill="#A9CF3D" d="M442.195 106.02c5.485 1.983 7.805 18.493 7.805 18.493s-11.602 10.291-13.976 15.544c-.633 1.5-1.002 3.055-1.213 4.663-.422 3.484-.527 7.022-.263 10.506 8.016 6.7 6.486 20.797 6.486 20.797s6.17 28.57 4.852 31.196c-1.318 2.627 3.006 18.493 3.006 18.493-3.691.697-5.695 1.286-11.127 1.286-1.319.054-2.585-1.072-3.903-1.18-2.268-.267-3.428-.589-4.746-1.018-9.177-2.894-13.08-10.88-13.08-10.88s-3.27 5.788-9.545 9.487c-2.004 1.18-4.061 1.876-7.858 2.52-2.584.428-4.114.267-5.643.32-7.49.537-17.404-4.18-15.822-5.895 1.951-2.037 11.497-38.165 11.497-38.165s4.852-22.351 9.071-25.46a4.86 4.86 0 0 0 1.582-2.251c1.424-4.074-.949-10.613-.949-10.613s-13.607-17.046-13.026-18.064c.58-1.018.632-6.271.632-6.271s.159-6.969 2.215-10.56c.897-1.5 4.8-5.682 10.865-6.968-.053.16 32.908.322 43.14 4.02z"/>
        <path fill="#A9CF3D" d="M459 189.916s-8.005-6.304-11.663 2.084l-4.93-20.14s-3.605-20.569-3.552-22.172c.053-1.602-1.855-18.965-1.855-18.965L448.133 121l2.65 2.137 2.757 24.842s1.908 18.698 2.756 24.949c.584 4.274 2.704 16.988 2.704 16.988z"/>
        <path fill="#7DBF43" d="M388.43 123l-1.904 2.446s.154 10.49-1.287 13.044c-1.44 2.555 4.014 17.393 6.072 16.469 2.058-.924 6.689-24.078 6.689-24.35 0-.272-9.57-7.609-9.57-7.609z"/>
        <path fill="#575A89" d="M387.861 136s-6.32 6.557-5.834 9.725c.486 3.168 6.483 13.06 15.127 7.725 0 0 7.996-15.505-9.293-17.45z"/>
        <path fill="#000" d="M414 325.966c-1.436.076-9.653 0-9.653 0-.1-.226-.248-.377-.347-.603 2.129-1.057 6.634-2.718 10 .603zM438 325.966c-1.436.076-9.653 0-9.653 0-.1-.226-.248-.377-.347-.603 2.129-1.057 6.634-2.718 10 .603zM403 169c-1.234 13.07-.84 38.943-.592 50.466-1.876 1.173-3.702 2.347-5.282 3.307-1.283.747-2.666 1.174-4.097 1.227-.543-3.52 6.713-39.21 9.971-55zM405 163c-.065.201-.839 2.87-2 7 .452-3.525 1.097-6.043 2-7zM425.849 160s7.074 48.06-13.849 54c0 0 14.447-2.43 13.849-54zM439 224.98c-1.337.052-2.62 0-3.957-.106L429 161c3.85 2.467 8.503 47.761 10 63.98z" opacity=".1"/>
        <path fill="#5B5A5A" d="M427.93 84.85c2.496 5.762 7.109 7.096 7.109 7.096.65.32 5.534-.854 5.86-1.494 1.14-1.814 1.248-4.108.977-6.243a17.213 17.213 0 0 0-2.822-7.522c-3.31-4.642-8.845-7.15-14.543-6.616-.976.107-1.953.267-2.875.533-3.473.907-6.838 2.615-8.954 5.442-.488.694-1.085 1.388-1.682 2.028 0 .053 14.054.16 16.93 6.776z"/>
        <path fill="#000" d="M445 150s6.102-7.837 6.937-5.598C452.772 146.642 445 150 445 150z" opacity=".1"/>
        <path fill="#000" d="M444 154s5.448-8.578 5.97-5.221C450.492 152.135 444 154 444 154zM428 108s6.95.533 7 1.716c.049 1.184-7-1.716-7-1.716zM410 104s-6.95.533-7 1.716c-.049 1.184 7-1.716 7-1.716zM437.61 127.153c-.051-.05-.153-.102-.203-.153 1.823 1.637 1.519 5.27-.71 8.289-2.228 3.018-5.62 4.246-7.697 2.865a.7.7 0 0 0 .203.153c2.025 1.586 5.57.358 7.9-2.763 2.33-3.12 2.532-6.804.506-8.39zM396.9 134.397c-2.054-3.317-1.77-6.998.513-8.397-.114.052-.171.052-.286.104-2.51 1.295-2.852 5.08-.741 8.552 2.11 3.473 5.876 5.183 8.386 3.94.057-.053.171-.104.228-.156-2.51 1.036-6.104-.674-8.1-4.043z" opacity=".1"/>
        <path fill="#FBBEBE" d="M388.693 145.478s1.509-7.198-.52-9.494c-2.03-2.295-1.405-14.24 1.717-13.98 3.121.261 7.804 9.755 7.024 11.737-.78 1.983-3.747 12.259-3.747 12.259l-4.474-.522z"/>
        <ellipse cx="390" cy="146.5" fill="#575A89" rx="5" ry="3.5"/>
        <ellipse cx="234.5" cy="164" fill="#7EDBDB" rx="164.5" ry="164"/>
        <path fill="url(#c)" d="M326 244.672c0 26.344-40.939 2.272-84.763 2.272-43.825 0-88.237 23.098-88.237-3.245 0-15.038 14.163-35.918 34.418-51.063C202.703 181.222 221.462 173 240.328 173c19.4 0 38.374 8.871 53.552 21.042 19.08 15.308 32.12 35.917 32.12 50.63z"/>
        <path fill="#67CED1" d="M182.7 139.325c3.166-.161 17.978-1.287 27.37-6.65 1.503-.911 3.22-1.394 4.992-1.448 3.005-.107 6.44 1.18 4.24 8.151-3.596 11.422-24.313 24.292-37.193 23.595-12.398-.697-27.103-5.684-36.763-23.22a10.935 10.935 0 0 1-1.342-5.523c.107-3.539 1.395-7.99 8.05-3.003 8.963 6.703 26.03 7.937 29.465 8.151.322 0 .75 0 1.18-.053zM299.7 139.325c3.166-.161 17.978-1.287 27.37-6.65 1.503-.911 3.22-1.394 4.992-1.448 3.005-.107 6.44 1.18 4.24 8.151-3.596 11.422-24.313 24.292-37.193 23.595-12.398-.697-27.103-5.684-36.763-23.22a10.935 10.935 0 0 1-1.342-5.523c.107-3.539 1.395-7.99 8.05-3.003 8.963 6.703 26.03 7.937 29.465 8.151.322 0 .75 0 1.18-.053z"/>
        <path fill="#FECC25" d="M416 216l-1.675 38.305-16.401.695-.924-30.6 12.3 4.76zM424 223l.097 32 13.742-.706 1.161-29.61-7.79 4.13z"/>
        <path fill="url(#d)" d="M403 324l.052-30.362L410 277l-2.593 42.178z"/>
        <path fill="#128BA1" d="M429.187 294.673c-.052-1.914-7.418-35.252-6.008-38.548 0 0 12.172-2.127 16.821-.532 0 0-.366 44.29-.888 59.922-.105 2.5.888 7.338-.627 9.677-.418.585-3.03 1.808-5.224 1.808-2.507 0-3.813-1.382-3.813-1.382-.105-.16-.261-.266-.366-.426-1.567-1.967.627-19.354.627-19.354s.627-2.02.105-3.19c-.523-1.17-.157-2.924-.157-2.924"/>
        <path fill="url(#e)" d="M429 324l.052-30.362L436 277l-2.593 42.178z"/>
        <path fill="#A9CF3D" d="M416 212s6.255 12.279 22.408 12.97c16.154.744-15.5-12.545-15.5-12.545L416 212z"/>
        <path fill="url(#f)" d="M398 144s2.513 5.79 1.016 9.426l35.717.574c-.268-3.11-.214-6.268.267-9.378l-1.978-.096c-4.01-.095-31.226-.526-32.937-.526"/>
        <path fill="#A9CF3D" d="M447.65 191.7c-1.25-.35-2.3-1.35-2.55-2.75-.4-1.95.85-3.8 2.8-4.2l11.5-2.3c1.9-.4 3.8.85 4.2 2.8.4 1.95-.85 3.8-2.8 4.2l-11.5 2.3c-.55.1-1.1.1-1.65-.05z"/>
        <path fill="url(#h)" d="M2.65 9.7C1.4 9.35.35 8.35.1 6.95c-.4-1.95.85-3.8 2.8-4.2L14.4.45c1.9-.4 3.8.85 4.2 2.8.4 1.95-.85 3.8-2.8 4.2L4.3 9.75c-.55.1-1.1.1-1.65-.05z" transform="translate(445 182)"/>
        <path fill="#FECC25" d="M61.553 283.063v55.874H.063v-55.874z"/>
        <path fill="url(#i)" d="M0 .063h54.431v55.874H0z" transform="translate(43 283)"/>
        <path fill="#FEED6A" d="M137.546 246v96H55.584v-96z"/>
        <path fill="#FECC25" d="M108.115 338.124c0 1.021-.064 1.978-.128 2.999H55.512v-48.549c2.112-.319 4.224-.446 6.4-.446 25.533-.064 46.203 20.542 46.203 45.996zM137.553 277v46.871c-12.33-.644-22.106-10.88-22.106-23.435 0-12.49 9.775-22.792 22.106-23.436z"/>
        <g fill="#000" opacity=".04">
            <path d="M97.404 259.719v3.444c-1.135 0-2.206-.195-3.214-.65-.945-.39-1.765-.975-2.52-1.754.566-2.015.818-4.03.818-6.174 0 1.365.505 2.6 1.45 3.574.945.975 2.142 1.56 3.466 1.56zM97.404 266.542v3.445c-3.151 0-6.113-.975-8.634-2.86 0-.065.063-.065.063-.13.63-.91 1.135-1.884 1.639-2.924 1.953 1.624 4.411 2.47 6.932 2.47zM97.404 273.3v3.445c-2.71 0-5.294-.52-7.814-1.495-1.954-.78-3.781-1.82-5.42-3.184.693-.585 1.387-1.17 2.017-1.82.189-.194.378-.39.504-.584a17.236 17.236 0 0 0 4.096 2.34c2.143.909 4.348 1.299 6.617 1.299zM79.255 254.65c0 1.17-.189 2.274-.63 3.314s-1.008 1.95-1.765 2.73c-.756.78-1.638 1.43-2.646 1.82-1.008.454-2.08.649-3.214.649v-3.444c1.323 0 2.52-.52 3.466-1.495a5.041 5.041 0 0 0 1.45-3.574h3.34z"/>
            <path d="M85.872 254.65c0 2.08-.378 4.094-1.135 5.979a15.477 15.477 0 0 1-3.213 4.874 14.966 14.966 0 0 1-4.727 3.314c-1.827.78-3.78 1.235-5.797 1.235v-3.445c1.575 0 3.088-.325 4.474-.91 1.386-.584 2.584-1.43 3.655-2.534a11.365 11.365 0 0 0 2.458-3.77c.63-1.494.882-2.989.882-4.613l3.403-.13z"/>
            <path d="M92.488 254.65c0 2.08-.252 4.159-.819 6.174-.252.844-.504 1.69-.819 2.469-.126.26-.252.585-.378.845a16.437 16.437 0 0 1-1.639 2.924c0 .065-.063.065-.063.13-.63.91-1.26 1.82-2.016 2.6-.19.195-.378.39-.504.584-.63.65-1.26 1.235-2.017 1.82-.378.325-.756.585-1.197.91-1.134.78-2.395 1.495-3.655 2.014A20.65 20.65 0 0 1 71 276.875v-3.444c2.458 0 4.79-.52 7.058-1.495 1.071-.455 2.08-1.04 3.088-1.754.945-.65 1.89-1.43 2.71-2.275.818-.845 1.575-1.755 2.205-2.794.63-.975 1.197-2.08 1.638-3.185.945-2.274 1.45-4.744 1.387-7.278h3.402z"/>
        </g>
    </g>
</svg>
