<svg width="275" height="273" xmlns="http://www.w3.org/2000/svg"><defs><linearGradient x1="49.998%" y1="100.007%" x2="49.998%" y2=".003%" id="a"><stop stop-color="gray" stop-opacity=".25" offset="0%"/><stop stop-color="gray" stop-opacity=".12" offset="54%"/><stop stop-color="gray" stop-opacity=".1" offset="100%"/></linearGradient><linearGradient x1="49.877%" y1="100.026%" x2="50.079%" y2="-.074%" id="b"><stop stop-opacity=".12" offset="0%"/><stop stop-opacity=".09" offset="55%"/><stop stop-opacity=".02" offset="100%"/></linearGradient></defs><g fill="none" fill-rule="evenodd"><path d="M275 112.138c.022-10.204-2.1-12.883-6.711-16.762L143.863 2.05a10.176 10.176 0 0 0-12.185-.048L9.452 92.708C4.813 96.565.47 101.061.447 111.265H.313L0 250.98v6.22a15.209 15.209 0 0 0 4.454 10.786 15.313 15.313 0 0 0 10.803 4.486h6.025l115.9.257 121.92.271a15.313 15.313 0 0 0 10.823-4.439 15.209 15.209 0 0 0 4.5-10.766l.325-145.68.25.023z" fill="url(#a)"/><path d="M2.614 111.65l269.41.611-.295 130.167c-.036 14.74-12.033 26.661-26.8 26.632l-216.412-.49c-14.502-.033-26.232-11.794-26.2-26.268l.297-130.652z" fill="#0072C1"/><path d="M2.301 112L2 247.632c-.025 11.5 9.298 20.846 20.83 20.878L250 269" fill="#F5F5F5"/><path d="M272 112l-.302 136.147c-.033 11.544-9.426 20.878-20.984 20.853L23 268.494" fill="#FFF"/><path d="M131.56 5.948L11.82 94.11c-4.544 3.748-8.798 8.12-8.82 18.04l269 .85c.022-9.919-2.057-12.523-6.582-16.294L143.496 5.981a10.048 10.048 0 0 0-11.937-.033z" fill="#0060B2"/><path d="M131.56 5.948L11.82 94.11c-4.544 3.748-8.798 8.12-8.82 18.04l269 .85c.022-9.919-2.057-12.523-6.582-16.294L143.496 5.981a10.048 10.048 0 0 0-11.937-.033z" fill="#000" opacity=".3"/><path fill="url(#b)" d="M242 35.577L209.452 10l-78.689 99.795-42.287-32.826L62 110.663l61.539 47.064L138.795 170z"/><path fill="#FFF" d="M241 35.646L211.443 13l-78.295 102.025L89.664 81.71 67 111.243l58.257 44.57L140.197 167z"/></g></svg>