<svg width="222" height="508" xmlns="http://www.w3.org/2000/svg" xmlns:xlink="http://www.w3.org/1999/xlink"><defs><path d="M.729.646c0 86.846 70.57 157.248 157.622 157.248 87.052 0 157.622-70.402 157.622-157.248H.729z" id="a"/><linearGradient x1="106.903%" y1="140.858%" x2="19.75%" y2="-74.882%" id="b"><stop stop-color="#37BFC3" stop-opacity=".2" offset="0%"/><stop stop-color="#36BFC3" stop-opacity=".4" offset="100%"/></linearGradient><path d="M.486 50.382c0 27.472 22.272 49.744 49.745 49.744 27.472 0 49.743-22.272 49.743-49.744S77.704.638 50.231.638C22.758.638.486 22.908.486 50.382" id="d"/><linearGradient x1="86.045%" y1="29.972%" x2="-102.594%" y2="73.88%" id="e"><stop stop-color="#F2622F" stop-opacity=".2" offset="0%"/><stop stop-color="#F4892A" stop-opacity=".4" offset="100%"/></linearGradient></defs><g fill="none" fill-rule="evenodd"><g transform="rotate(90 15 207)"><mask id="c" fill="#fff"><use xlink:href="#a"/></mask><path d="M.729.646c0 86.846 70.57 157.248 157.622 157.248 87.052 0 157.622-70.402 157.622-157.248H.729z" fill="url(#b)" mask="url(#c)"/></g><g transform="matrix(-1 0 0 1 100 0)"><mask id="f" fill="#fff"><use xlink:href="#d"/></mask><path d="M.486 50.382c0 27.472 22.272 49.744 49.745 49.744 27.472 0 49.743-22.272 49.743-49.744S77.704.638 50.231.638C22.758.638.486 22.908.486 50.382L-19 931" fill="url(#e)" mask="url(#f)"/></g></g></svg>