<svg xmlns="http://www.w3.org/2000/svg" xmlns:xlink="http://www.w3.org/1999/xlink" width="116" height="273"><defs><path id="a" d="M.362 121.725c0 61.958 46.296 113.143 106.304 121.09V.636C46.658 8.583.362 59.767.362 121.726"/><linearGradient id="b" x1="180.902%" x2="65.562%" y1="9.443%" y2="80.798%"><stop offset="0%" stop-color="#DDFF95" stop-opacity=".2"/><stop offset="100%" stop-color="#DDFF95" stop-opacity=".4"/></linearGradient><path id="d" d="M.648 21.949c0 11.968 9.702 21.67 21.67 21.67 11.969 0 21.67-9.702 21.67-21.67C43.989 9.98 34.288.278 22.319.278 10.35.278.649 9.98.649 21.948"/></defs><g fill="none" fill-rule="evenodd"><g transform="matrix(-1 0 0 1 83 35)"><mask id="c" fill="#fff"><use xlink:href="#a"/></mask><path fill="url(#b)" d="M.362 121.725c0 61.958 46.296 113.143 106.304 121.09V.636C46.658 8.583.362 59.767.362 121.726" mask="url(#c)"/></g><g transform="matrix(-1 0 0 1 116 0)"><mask id="e" fill="#fff"><use xlink:href="#d"/></mask><path fill="url(#b)" d="M.648 21.949c0 11.968 9.702 21.67 21.67 21.67 11.969 0 21.67-9.702 21.67-21.67C43.989 9.98 34.288.278 22.319.278 10.35.278.649 9.98.649 21.948" mask="url(#e)"/></g></g></svg>