<svg width="386" height="311" xmlns="http://www.w3.org/2000/svg" xmlns:xlink="http://www.w3.org/1999/xlink"><defs><path d="M.75 41.885c0 22.991 18.693 41.628 41.752 41.628s41.751-18.637 41.751-41.628c0-22.99-18.692-41.628-41.75-41.628C19.442.257.75 18.895.75 41.885" id="a"/><linearGradient x1="74.638%" y1="80.494%" x2="-255.098%" y2="-327.625%" id="b"><stop stop-color="#36BFC3" stop-opacity=".2" offset="0%"/><stop stop-color="#36BFC3" stop-opacity=".4" offset="100%"/></linearGradient><path d="M.5 193c0 98.496 73.165 179.867 168 192.5V.5C73.665 13.133.5 94.503.5 193" id="d"/><linearGradient x1="180.902%" y1="9.443%" x2="65.562%" y2="80.798%" id="e"><stop stop-color="#DDFF95" stop-opacity=".2" offset="0%"/><stop stop-color="#DDFF95" stop-opacity=".4" offset="100%"/></linearGradient></defs><g fill="none" fill-rule="evenodd"><g transform="translate(36 227)"><mask id="c" fill="#fff"><use xlink:href="#a"/></mask><path d="M.75 41.885c0 22.991 18.693 41.628 41.752 41.628s41.751-18.637 41.751-41.628c0-22.99-18.692-41.628-41.75-41.628C19.442.257.75 18.895.75 41.885" fill="url(#b)" mask="url(#c)"/></g><g transform="matrix(0 -1 -1 0 386 169)"><mask id="f" fill="#fff"><use xlink:href="#d"/></mask><path d="M.5 193c0 98.496 73.165 179.867 168 192.5V.5C73.665 13.133.5 94.503.5 193" fill="url(#e)" mask="url(#f)"/></g></g></svg>